<svg width="168" height="118" viewBox="0 0 168 118" fill="none" xmlns="http://www.w3.org/2000/svg">
<g clip-path="url(#clip0_516_3811)">
<path d="M164.84 58.36L160.84 59.43C160.34 59.56 160 60.01 160 60.53V70.52C160 71.1 160.41 71.59 160.97 71.7L161.76 71.86C161.97 71.9 162.18 71.89 162.39 71.84L165.94 70.9101C166.65 70.7201 167.14 70.08 167.14 69.35V60.4C167.14 59.75 166.85 59.13 166.35 58.71C165.93 58.36 165.36 58.23 164.83 58.37L164.84 58.36Z" fill="#303A66"/>
<mask id="mask0_516_3811" style="mask-type:luminance" maskUnits="userSpaceOnUse" x="160" y="58" width="8" height="14">
<path d="M164.84 58.36L160.84 59.43C160.34 59.56 160 60.01 160 60.53V70.52C160 71.1 160.41 71.59 160.97 71.7L161.76 71.86C161.97 71.9 162.18 71.89 162.39 71.84L165.94 70.9101C166.65 70.7201 167.14 70.08 167.14 69.35V60.4C167.14 59.75 166.85 59.13 166.35 58.71C165.93 58.36 165.36 58.23 164.83 58.37L164.84 58.36Z" fill="white"/>
</mask>
<g mask="url(#mask0_516_3811)">
<path opacity="0.1" d="M160.33 72.4H161.65V60.9L160.33 60.27V72.4Z" fill="#010101"/>
</g>
<g style="mix-blend-mode:multiply" opacity="0.1">
<path d="M28.04 77.5399C32.62 76.3099 46.37 79.4299 50.95 80.6599L141.23 104.85C145.81 106.08 145.81 108.09 141.23 109.31L114.19 116.56C109.61 117.79 102.07 117.99 97.43 117C54.64 107.49 7.08003 93.5399 2.35003 89.5499C-2.44997 85.4999 0.870028 84.7199 5.45003 83.4899L28.04 77.5399Z" fill="#14192E"/>
</g>
<g style="mix-blend-mode:multiply" opacity="0.4">
<path d="M31.7701 80.07C36.3501 78.84 43.8401 78.84 48.4201 80.07L140.24 104.72C144.82 105.95 144.82 107.96 140.24 109.18L120.01 114.59C115.43 115.82 110.55 116.1 107.89 115.92C105.23 115.74 101.93 115.18 95.8201 113.06C86.3801 109.79 34.3501 96.37 27.7501 94.66C17.0601 91.89 12.2301 89.72 10.7601 88.72C9.29006 87.73 8.74006 86.23 13.3201 85L31.7801 80.05L31.7701 80.07Z" fill="#14192E"/>
</g>
<path d="M16.8201 79.3799L91.2101 99.3099L92.2801 105.53L108.49 101.45L107.23 90.5799L14.8901 65.6499L15.5901 78.1799L16.8201 79.3799Z" fill="#14192E"/>
<path d="M49.98 79.2501C51.47 84.8201 49.38 90.2101 45.3 91.3001C41.23 92.3901 36.72 88.7701 35.22 83.2001C33.73 77.6401 35.82 72.2401 39.9 71.1501C43.97 70.0601 48.48 73.6901 49.98 79.2501Z" fill="#14192E"/>
<path d="M39.8965 71.1489L33.8884 72.7588L39.2874 92.908L45.2955 91.2981L39.8965 71.1489Z" fill="#14192E"/>
<path d="M44.1199 80.8202C45.6099 86.3802 43.5199 91.7802 39.4399 92.8702C35.3699 93.9602 30.8599 90.3302 29.3599 84.7702C27.8699 79.2002 29.9599 73.8102 34.0399 72.7202C38.1099 71.6302 42.6199 75.2602 44.1199 80.8202Z" fill="#303A66"/>
<path d="M38.6631 89.9452C41.5544 89.1704 43.0397 85.3379 41.9805 81.3849C40.9213 77.4319 37.7187 74.8554 34.8274 75.6302C31.936 76.4049 30.4507 80.2375 31.5099 84.1905C32.5691 88.1435 35.7717 90.7199 38.6631 89.9452Z" fill="#E9EAEB"/>
<path d="M40.63 81.7502C41.32 84.3202 40.35 86.8202 38.47 87.3302C36.59 87.8402 34.5 86.1602 33.81 83.5802C33.12 81.0102 34.09 78.5102 35.97 78.0002C37.85 77.4902 39.94 79.1702 40.63 81.7502Z" fill="#D0D2D3"/>
<path d="M37.9499 82.4702C38.1899 83.3802 37.8499 84.2602 37.1899 84.4402C36.5199 84.6202 35.7899 84.0302 35.5399 83.1202C35.2999 82.2102 35.6399 81.3302 36.2999 81.1502C36.9699 80.9702 37.6999 81.5602 37.9499 82.4702Z" fill="#E9EAEB"/>
<path d="M36.2 77.9101L37.25 78.1901C37.65 78.3001 37.99 78.0301 37.99 77.6001V77.4301C37.99 77.0001 37.66 76.5501 37.25 76.4401L36.2 76.1601C35.8 76.0501 35.46 76.3201 35.46 76.7501V76.9201C35.46 77.3501 35.79 77.8001 36.2 77.9101Z" fill="#191E39"/>
<path d="M36.2 89.09L37.25 89.37C37.65 89.48 37.99 89.21 37.99 88.78V88.61C37.99 88.18 37.66 87.73 37.25 87.62L36.2 87.34C35.8 87.23 35.46 87.5 35.46 87.93V88.1C35.46 88.53 35.79 88.98 36.2 89.09Z" fill="#191E39"/>
<path d="M40.55 83.0002V84.5902C40.55 85.0102 40.87 85.4402 41.26 85.5402C41.65 85.6402 41.9701 85.3902 41.9701 84.9702V83.3802C41.9701 82.9602 41.65 82.5302 41.26 82.4302C40.87 82.3302 40.55 82.5802 40.55 83.0002Z" fill="#191E39"/>
<path d="M31.49 80.57V82.16C31.49 82.58 31.81 83.01 32.2 83.11C32.59 83.21 32.91 82.96 32.91 82.54V80.95C32.91 80.53 32.59 80.1 32.2 80C31.81 79.9 31.49 80.15 31.49 80.57Z" fill="#191E39"/>
<path d="M39.8399 86.4302L39.0299 87.2202C38.7599 87.4802 38.7599 88.0202 39.0299 88.4202L39.0599 88.4702C39.3299 88.8702 39.7599 88.9902 40.0299 88.7302L40.8399 87.9402C41.1099 87.6802 41.1099 87.1402 40.8399 86.7402L40.8099 86.6902C40.5399 86.2902 40.1099 86.1702 39.8399 86.4302Z" fill="#191E39"/>
<path d="M33.43 76.8101L32.62 77.6001C32.35 77.8601 32.35 78.4001 32.62 78.8001L32.65 78.8501C32.92 79.2501 33.35 79.3701 33.62 79.1101L34.43 78.3201C34.7 78.0601 34.7 77.5201 34.43 77.1201L34.4 77.0701C34.13 76.6701 33.7 76.5501 33.43 76.8101Z" fill="#191E39"/>
<path d="M34.43 85.99L33.62 84.77C33.35 84.37 32.92 84.25 32.65 84.51L32.62 84.54C32.35 84.8 32.35 85.34 32.62 85.74L33.43 86.96C33.7 87.36 34.13 87.48 34.4 87.22L34.43 87.19C34.7 86.93 34.7 86.39 34.43 85.99Z" fill="#191E39"/>
<path d="M40.8399 79.8001L40.0299 78.5801C39.7599 78.1801 39.3299 78.0601 39.0599 78.3201L39.0299 78.3501C38.7599 78.6101 38.7599 79.1501 39.0299 79.5501L39.8399 80.7701C40.1099 81.1701 40.5399 81.2901 40.8099 81.0301L40.8399 81.0001C41.1099 80.7401 41.1099 80.2001 40.8399 79.8001Z" fill="#191E39"/>
<path d="M51.0601 79.7202L85.8201 89.0302V102.63L52.3901 93.6702C51.6101 93.4602 51.0601 92.7502 51.0601 91.9402V79.7202Z" fill="#303A66"/>
<path d="M93.7501 86.9201L58.9901 77.6001L51.0601 79.7201L85.8201 89.0401L93.7501 86.9201Z" fill="#14192E"/>
<path d="M93.7501 86.9202V100.51L85.8201 102.64V89.0402L93.7501 86.9202Z" fill="#191E39"/>
<path d="M25.96 68.5001L17.94 66.3601L10.01 68.4801L18.03 70.6301L25.96 68.5001Z" fill="#14192E"/>
<path d="M25.96 68.5V82.1L18.03 84.22V70.63L25.96 68.5Z" fill="#191E39"/>
<path d="M10.01 68.4802L18.03 70.6302V84.2302L11.52 82.4902C10.63 82.2502 10.01 81.4502 10.01 80.5302V68.4902V68.4802Z" fill="#303A66"/>
<path d="M42.3802 81.2899C43.8702 86.8599 41.7802 92.2499 37.7002 93.3399C33.6302 94.4299 29.1202 90.8099 27.6202 85.2399C26.1302 79.6799 28.2202 74.2799 32.3002 73.1899C36.3702 72.0999 40.8802 75.7299 42.3802 81.2899Z" fill="#14192E"/>
<path d="M32.3032 73.1936L26.2952 74.8035L31.6941 94.9527L37.7022 93.3428L32.3032 73.1936Z" fill="#14192E"/>
<path d="M36.5301 82.85C38.0201 88.41 35.9301 93.81 31.8501 94.9C27.7801 95.99 23.2701 92.36 21.7701 86.8C20.2801 81.23 22.3701 75.84 26.4501 74.75C30.5201 73.66 35.0301 77.29 36.5301 82.85Z" fill="#303A66"/>
<path d="M34.39 83.43C35.45 87.38 33.96 91.21 31.07 91.99C28.18 92.76 24.98 90.19 23.92 86.24C22.86 82.29 24.35 78.46 27.24 77.68C30.13 76.91 33.33 79.48 34.39 83.43Z" fill="#E9EAEB"/>
<path d="M33.0302 83.79C33.7202 86.36 32.7502 88.86 30.8702 89.37C28.9902 89.88 26.9002 88.2 26.2102 85.62C25.5202 83.05 26.4902 80.55 28.3702 80.04C30.2502 79.53 32.3402 81.21 33.0302 83.79Z" fill="#445A6D"/>
<path d="M30.35 84.51C30.59 85.42 30.25 86.3 29.59 86.48C28.92 86.66 28.19 86.07 27.94 85.16C27.7 84.25 28.04 83.37 28.7 83.19C29.37 83.01 30.1 83.6 30.35 84.51Z" fill="#191E39"/>
<path d="M28.6101 79.9499L29.6601 80.2299C30.0601 80.3399 30.4001 80.0699 30.4001 79.6399V79.4699C30.4001 79.0399 30.0701 78.5899 29.6601 78.4799L28.6101 78.1999C28.2101 78.0899 27.8701 78.3599 27.8701 78.7899V78.9599C27.8701 79.3899 28.2001 79.8399 28.6101 79.9499Z" fill="#191E39"/>
<path d="M28.6101 91.1298L29.6601 91.4098C30.0601 91.5198 30.4001 91.2498 30.4001 90.8198V90.6498C30.4001 90.2198 30.0701 89.7698 29.6601 89.6598L28.6101 89.3798C28.2101 89.2698 27.8701 89.5398 27.8701 89.9698V90.1398C27.8701 90.5698 28.2001 91.0198 28.6101 91.1298Z" fill="#191E39"/>
<path d="M32.9602 85.03V86.62C32.9602 87.04 33.2802 87.47 33.6702 87.57C34.0602 87.67 34.3802 87.42 34.3802 87V85.41C34.3802 84.99 34.0602 84.56 33.6702 84.46C33.2802 84.36 32.9602 84.61 32.9602 85.03Z" fill="#191E39"/>
<path d="M23.8901 82.5998V84.1898C23.8901 84.6098 24.2101 85.0398 24.6001 85.1398C24.9901 85.2398 25.3101 84.9898 25.3101 84.5698V82.9798C25.3101 82.5598 24.9901 82.1298 24.6001 82.0298C24.2101 81.9298 23.8901 82.1798 23.8901 82.5998Z" fill="#191E39"/>
<path d="M32.24 88.47L31.43 89.26C31.16 89.52 31.16 90.06 31.43 90.46L31.46 90.51C31.73 90.91 32.16 91.03 32.43 90.77L33.24 89.98C33.51 89.72 33.51 89.18 33.24 88.78L33.21 88.73C32.94 88.33 32.51 88.21 32.24 88.47Z" fill="#191E39"/>
<path d="M25.8301 78.8499L25.0201 79.6399C24.7501 79.8999 24.7501 80.4399 25.0201 80.8399L25.0501 80.8899C25.3201 81.2899 25.7501 81.4099 26.0201 81.1499L26.8301 80.3599C27.1001 80.0999 27.1001 79.5599 26.8301 79.1599L26.8001 79.1099C26.5301 78.7099 26.1001 78.5899 25.8301 78.8499Z" fill="#191E39"/>
<path d="M26.8401 88.0198L26.0301 86.7998C25.7601 86.3998 25.3301 86.2798 25.0601 86.5398L25.0301 86.5698C24.7601 86.8298 24.7601 87.3698 25.0301 87.7698L25.8401 88.9898C26.1101 89.3898 26.5401 89.5098 26.8101 89.2498L26.8401 89.2198C27.1101 88.9598 27.1101 88.4198 26.8401 88.0198Z" fill="#191E39"/>
<path d="M33.25 81.8399L32.44 80.6199C32.17 80.2199 31.74 80.0999 31.47 80.3599L31.44 80.3899C31.17 80.6499 31.17 81.1899 31.44 81.5899L32.25 82.8099C32.52 83.2099 32.95 83.3299 33.22 83.0699L33.25 83.0399C33.52 82.7799 33.52 82.2399 33.25 81.8399Z" fill="#191E39"/>
<path d="M114.5 100.63C115.99 106.2 113.9 111.59 109.82 112.68C105.75 113.77 101.24 110.14 99.7401 104.58C98.2501 99.02 100.34 93.62 104.42 92.53C108.49 91.44 113 95.07 114.5 100.63Z" fill="#14192E"/>
<path d="M104.412 92.5313L98.4036 94.1411L103.803 114.29L109.811 112.68L104.412 92.5313Z" fill="#14192E"/>
<path d="M2.25992 9.67L2.18992 9.65L38.2099 0L122.37 22.55V77.67L86.3399 87.32L2.16992 64.77V9.65L2.25992 9.67Z" fill="#E9EAEB"/>
<path opacity="0.1" d="M2.16992 64.7699L86.3399 87.3199V32.1999L2.16992 9.6499V64.7699Z" fill="#010101"/>
<path opacity="0.1" d="M122.37 22.55V77.67L86.3398 87.3201V32.2001L122.37 22.55Z" fill="#010101"/>
<path opacity="0.1" d="M124.03 37.02V92.13L88 101.79V46.67L124.03 37.02Z" fill="#010101"/>
<path d="M145.77 42.1099C151.48 43.6399 158.62 46.0999 160.36 49.9599C162.27 54.1899 164.32 73.8499 164.17 92.3399C164.17 92.8699 164.75 93.3899 164.75 93.9099C164.82 100.21 163.72 101.66 161.4 102.79C156.78 105.01 138.07 109.57 130.25 111.16C126.55 111.65 123.11 112.02 120.34 111.31C111.95 109.16 111.24 108.91 111.24 108.91C111.42 106.09 111.43 105.26 110.82 102.22C109.43 95.2199 103.56 90.5299 98.7199 91.3199C94.1099 92.0799 91.4299 96.0599 92.2699 105.55L90.1699 104.98V47.0399L127.15 37.1299C135.36 39.3299 141.98 41.1099 145.76 42.1199L145.77 42.1099Z" fill="#E9EAEB"/>
<path d="M108.65 102.19C110.14 107.75 108.05 113.15 103.97 114.24C99.9 115.33 95.39 111.7 93.89 106.14C92.4 100.57 94.49 95.18 98.57 94.09C102.64 93 107.15 96.6301 108.65 102.19Z" fill="#303A66"/>
<path d="M106.51 102.77C107.57 106.72 106.08 110.55 103.19 111.33C100.3 112.1 97.0998 109.53 96.0398 105.58C94.9798 101.63 96.4698 97.8001 99.3598 97.0201C102.25 96.2501 105.45 98.8201 106.51 102.77Z" fill="#E9EAEB"/>
<path d="M105.15 103.13C105.84 105.7 104.87 108.2 102.99 108.71C101.11 109.22 99.02 107.54 98.33 104.96C97.64 102.39 98.61 99.89 100.49 99.38C102.37 98.87 104.46 100.55 105.15 103.13Z" fill="#445A6D"/>
<path d="M102.47 103.85C102.71 104.76 102.37 105.64 101.71 105.82C101.04 106 100.31 105.41 100.06 104.5C99.8199 103.59 100.16 102.71 100.82 102.53C101.49 102.35 102.22 102.94 102.47 103.85Z" fill="#191E39"/>
<path d="M100.73 99.29L101.78 99.57C102.18 99.68 102.52 99.41 102.52 98.98V98.81C102.52 98.38 102.19 97.93 101.78 97.82L100.73 97.54C100.33 97.43 99.99 97.7 99.99 98.13V98.3C99.99 98.73 100.32 99.18 100.73 99.29Z" fill="#191E39"/>
<path d="M100.73 110.47L101.78 110.75C102.18 110.86 102.52 110.59 102.52 110.16V109.99C102.52 109.56 102.19 109.11 101.78 109L100.73 108.72C100.33 108.61 99.99 108.88 99.99 109.31V109.48C99.99 109.91 100.32 110.36 100.73 110.47Z" fill="#191E39"/>
<path d="M105.08 104.37V105.96C105.08 106.38 105.4 106.81 105.79 106.91C106.18 107.01 106.5 106.76 106.5 106.34V104.75C106.5 104.33 106.18 103.9 105.79 103.8C105.4 103.7 105.08 103.95 105.08 104.37Z" fill="#191E39"/>
<path d="M96.01 101.95V103.54C96.01 103.96 96.33 104.39 96.72 104.49C97.11 104.59 97.43 104.34 97.43 103.92V102.33C97.43 101.91 97.11 101.48 96.72 101.38C96.33 101.28 96.01 101.53 96.01 101.95Z" fill="#191E39"/>
<path d="M104.36 107.81L103.55 108.6C103.28 108.86 103.28 109.4 103.55 109.8L103.58 109.85C103.85 110.25 104.28 110.37 104.55 110.11L105.36 109.32C105.63 109.06 105.63 108.52 105.36 108.12L105.33 108.07C105.06 107.67 104.63 107.55 104.36 107.81Z" fill="#191E39"/>
<path d="M97.95 98.19L97.14 98.98C96.87 99.24 96.87 99.78 97.14 100.18L97.17 100.23C97.44 100.63 97.87 100.75 98.14 100.49L98.95 99.7C99.22 99.44 99.22 98.9 98.95 98.5L98.92 98.45C98.65 98.05 98.22 97.93 97.95 98.19Z" fill="#191E39"/>
<path d="M98.96 107.37L98.15 106.15C97.88 105.75 97.45 105.63 97.18 105.89L97.15 105.92C96.88 106.18 96.88 106.72 97.15 107.12L97.96 108.34C98.23 108.74 98.66 108.86 98.93 108.6L98.96 108.57C99.23 108.31 99.23 107.77 98.96 107.37Z" fill="#191E39"/>
<path d="M105.37 101.18L104.56 99.96C104.29 99.56 103.86 99.44 103.59 99.7L103.56 99.73C103.29 99.99 103.29 100.53 103.56 100.93L104.37 102.15C104.64 102.55 105.07 102.67 105.34 102.41L105.37 102.38C105.64 102.12 105.64 101.58 105.37 101.18Z" fill="#191E39"/>
<path opacity="0.1" d="M137.55 107.6C137.09 107.49 137.7 106.37 137.89 105.98C139.54 102.67 149.13 100.66 152.29 100.14C154.99 99.7 156.16 100.12 156.44 100.82C156.55 101.09 156.86 102.2 156.53 102.49C155.75 103.17 150.96 104.4 148.51 105.12C145.86 105.89 138.09 107.73 137.55 107.6Z" fill="#010101"/>
<path d="M160.73 50.9299C149.63 54.6299 136.83 58.0699 123.07 61.1799L126.05 87.2499C141.18 83.7199 153.74 80.2699 163.85 77.0599C163.61 68.4899 162.27 55.4599 160.73 50.9399V50.9299Z" fill="#191E39"/>
<path d="M157.68 72.1699C157.68 72.1699 139.48 77.6299 126.57 80.5399L127.11 86.1199C141.3 82.8099 162.58 76.5599 162.58 76.5599C162.51 74.8699 159.76 72.1699 157.68 72.1699Z" fill="#303A66"/>
<path d="M126.42 102.55C141.55 99.0201 154.11 95.5701 164.22 92.3601" stroke="#231F32" stroke-width="0.14" stroke-miterlimit="10"/>
<path d="M125.96 67.24L125.5 62.69L140.84 58.52L141.3 63.07L125.96 67.24Z" fill="#303A66"/>
<path d="M143.57 62.3001L143.11 57.7501L158.45 53.5801L158.91 58.1301L143.57 62.3001Z" fill="#303A66"/>
<path d="M90.1799 47.03C90.1799 47.03 103.72 50.66 107.94 51.79C113.65 53.32 120.79 55.78 122.53 59.64C124.44 63.87 126.49 83.53 126.34 102.02C126.34 102.55 126.92 103.07 126.92 103.59C126.97 108.57 126.3 110.53 124.86 111.68" stroke="#231F32" stroke-width="0.14" stroke-miterlimit="10"/>
<path d="M90.1799 104.96V88.3799L101.32 91.3699C100.44 91.1899 99.5699 91.1599 98.7299 91.2999C94.1199 92.0599 91.4399 96.0399 92.2799 105.53L90.1799 104.96Z" fill="#303A66"/>
<path d="M146.09 86.3899C145.86 86.9499 146.04 87.5499 146.49 87.7399C146.94 87.9299 147.5 87.6299 147.73 87.0699C147.96 86.5099 147.78 85.9099 147.33 85.7199C146.88 85.5299 146.32 85.8299 146.09 86.3899Z" fill="#303A66"/>
<g opacity="0.1">
<path d="M162.46 85.9C163 85.76 163.43 86.09 163.43 86.65V90.04C163.43 90.59 162.99 91.17 162.46 91.31L128.87 100.31C128.33 100.45 127.9 100.12 127.9 99.56V96.17C127.9 95.62 128.34 95.04 128.87 94.9L162.46 85.9Z" fill="#010101"/>
</g>
<g opacity="0.1">
<path d="M162.43 91.1701C162.98 91.1001 162.99 91.1501 162.46 91.3001L128.87 100.3C128.33 100.44 127.9 100.11 127.9 99.5501V96.8201C127.9 96.2701 128.35 95.7501 128.9 95.6801L162.44 91.1701H162.43Z" fill="#010101"/>
</g>
<path d="M119.78 46.1602L128.2 43.9002C129.41 43.5802 131.37 43.5802 132.58 43.9002L141 46.1602C142.21 46.4802 142.21 47.0102 141 47.3302L132.58 49.5902C131.37 49.9102 129.41 49.9102 128.2 49.5902L119.78 47.3302C118.57 47.0102 118.57 46.4802 119.78 46.1602Z" fill="#B4BCC5"/>
<path d="M118.87 46.75H141.92V45.86H118.87V46.75Z" fill="#B4BCC5"/>
<path d="M119.78 45.3601L128.2 43.1001C129.41 42.7801 131.37 42.7801 132.58 43.1001L141 45.3601C142.21 45.6801 142.21 46.2101 141 46.5301L132.58 48.7901C131.37 49.1101 129.41 49.1101 128.2 48.7901L119.78 46.5301C118.57 46.2101 118.57 45.6801 119.78 45.3601Z" fill="#D0D2D3"/>
<path opacity="0.1" d="M131.2 40.9L105.56 47.77L94.5801 44.83L120.22 37.96L131.2 40.9Z" fill="#010101"/>
<path d="M131.2 40.12L105.56 46.99V34.39L131.2 27.52V40.12Z" fill="#D0D2D3"/>
<path d="M131.2 27.5201L105.56 34.3901L94.5801 31.4501L120.22 24.5801L131.2 27.5201Z" fill="#E9EAEB"/>
<path d="M94.5801 31.4502V44.0502L105.56 46.9902V34.3902L94.5801 31.4502Z" fill="#B4BCC5"/>
<mask id="mask1_516_3811" style="mask-type:luminance" maskUnits="userSpaceOnUse" x="90" y="37" width="75" height="75">
<path d="M145.77 42.1099C151.48 43.6399 158.62 46.0999 160.36 49.9599C162.27 54.1899 164.32 73.8499 164.17 92.3399C164.17 92.8699 164.75 93.3899 164.75 93.9099C164.82 100.21 163.72 101.66 161.4 102.79C156.78 105.01 138.07 109.57 130.25 111.16C126.55 111.65 123.11 112.02 120.34 111.31C111.95 109.16 111.24 108.91 111.24 108.91C111.42 106.09 111.43 105.26 110.82 102.22C109.43 95.2199 103.56 90.5299 98.7199 91.3199C94.1099 92.0799 91.4299 96.0599 92.2699 105.55L90.1699 104.98V47.0399L127.15 37.1299C135.36 39.3299 141.98 41.1099 145.76 42.1199L145.77 42.1099Z" fill="white"/>
</mask>
<g mask="url(#mask1_516_3811)">
<path opacity="0.1" d="M88.4898 47.3499C88.4898 47.3499 102.03 50.9799 106.25 52.1099C111.96 53.6399 119.1 56.0999 120.84 59.9599C122.75 64.1899 124.8 83.8499 124.65 102.34C124.65 102.87 125.23 103.39 125.23 103.91C125.28 108.89 124.61 110.85 123.17 112L79.8398 108L83.4598 49.2799L88.4799 47.3599L88.4898 47.3499Z" fill="#010101"/>
</g>
<path d="M122.37 84.24V102.03L109.62 98.54" stroke="#231F32" stroke-width="0.14" stroke-miterlimit="10"/>
<path d="M95.9101 73.4501L109.84 77.1801C110.89 77.4601 111.81 78.0901 112.46 78.9601L113.91 80.9001C114.56 81.7701 115.48 82.4001 116.53 82.6801L122.36 84.2401C122.19 76.6401 121.35 69.2601 119.67 62.1701C119.32 60.7101 118.2 59.5601 116.75 59.1801L96.9901 53.8801C95.6601 53.5201 94.3501 54.5301 94.3501 55.9001V71.4201C94.3501 72.3701 94.9901 73.2001 95.9001 73.4401L95.9101 73.4501Z" fill="#191E39"/>
<path d="M122.37 102.03V106.37C122.37 108.31 121.39 109.58 119.35 109.24C117.31 108.9 113.06 107.49 113.06 107.49L111.86 99.1602L122.37 102.04V102.03Z" fill="#5E6F82"/>
<mask id="mask2_516_3811" style="mask-type:luminance" maskUnits="userSpaceOnUse" x="111" y="99" width="12" height="11">
<path d="M122.37 102.03V106.37C122.37 108.31 121.39 109.58 119.35 109.24C117.31 108.9 113.06 107.49 113.06 107.49L111.86 99.1602L122.37 102.04V102.03Z" fill="white"/>
</mask>
<g mask="url(#mask2_516_3811)">
<path d="M113.06 107.49L117.89 106.29L117.2 100.62L111.86 99.1501L113.06 107.49Z" fill="#445A6D"/>
<path d="M117.89 106.29L122.59 107.57L122.37 102.03L117.2 100.62L117.89 106.29Z" fill="#14192E"/>
<path d="M113.05 104.39L121.62 106.69V105.62L113.05 103.32V104.39Z" fill="#191E39"/>
<path d="M113.05 103.32L121.62 105.62L125.29 104.63L116.72 102.33L113.05 103.32Z" fill="#40407A"/>
<path d="M125.29 104.63V105.7L121.62 106.69V105.62L125.29 104.63Z" fill="#14192E"/>
</g>
<path d="M102.66 83.5202L104.04 83.8902V77.5602L102.66 77.1902V83.5202Z" fill="#B4BCC5"/>
<path d="M100.17 73.79L102.34 74.37V56.3L100.17 55.72V73.79Z" fill="#303A66"/>
<path d="M101.32 91.37V55.23" stroke="#231F32" stroke-width="0.14" stroke-miterlimit="10"/>
<path opacity="0.1" d="M121.25 82.98C121.09 76 120.32 69.22 118.78 62.71C118.46 61.37 117.43 60.32 116.1 59.96L97.95 55.1C96.73 54.77 95.53 55.69 95.53 56.96L121.26 82.98H121.25Z" fill="white"/>
<path d="M11.54 72.6899L15.18 73.6699V71.6399L11.54 70.6699V72.6899Z" fill="#EE905A"/>
<path opacity="0.1" d="M159.37 52.3501C149.14 55.7601 137.34 58.9301 124.66 61.8001C124.66 61.8001 145.32 68.2701 162.24 76.4301C162.01 68.5301 160.79 56.5201 159.36 52.3601L159.37 52.3501Z" fill="white"/>
<path d="M151.77 101.76L142.58 104.22V100.35L151.77 97.8899V101.76Z" fill="#14192E"/>
<path d="M152.34 101.88L143.16 104.35V100.48L152.34 98.0198V101.88Z" fill="white"/>
<g opacity="0.1">
<path d="M162.25 86.8201C162.63 86.7201 162.93 86.9601 162.93 87.3401V89.8901C162.93 90.2801 162.62 90.6801 162.25 90.7801L157.09 92.1601C156.71 92.2601 156.41 92.0201 156.41 91.6401V89.0901C156.41 88.7001 156.72 88.3001 157.09 88.2001L162.25 86.8201Z" fill="white"/>
</g>
<path d="M161.22 87.3401C161.52 87.2601 161.76 87.4501 161.76 87.7601V89.6101C161.76 89.9201 161.52 90.2401 161.22 90.3201L157.12 91.4201C156.82 91.5001 156.58 91.3101 156.58 91.0001V89.1501C156.58 88.8401 156.82 88.5201 157.12 88.4401L161.22 87.3401Z" fill="#9FA8B6"/>
<path d="M161.24 87.5301C161.42 87.4801 161.56 87.5901 161.56 87.7801V88.8801C161.56 89.0601 161.41 89.2501 161.24 89.3001L158.8 89.9501C158.62 90.0001 158.48 89.8901 158.48 89.7001V88.6001C158.48 88.4201 158.63 88.2301 158.8 88.1801L161.24 87.5301Z" fill="#EE905A"/>
<path opacity="0.1" d="M4.76001 60.7601L83.74 82.0101V81.0701C83.74 80.7401 83.52 80.4501 83.2 80.3701L5.67001 59.5001C5.21001 59.3801 4.76001 59.7201 4.76001 60.2001V60.7601Z" fill="#010101"/>
<path opacity="0.3" d="M5.31003 62.38L82.84 83.24C83.3 83.36 83.75 83.02 83.75 82.54V81.98L4.78003 60.74V61.68C4.78003 62.01 5.00003 62.3 5.32003 62.38H5.31003Z" fill="white"/>
<path opacity="0.1" d="M4.76001 54.43L83.74 75.68V74.74C83.74 74.41 83.52 74.12 83.2 74.04L5.67001 53.18C5.21001 53.06 4.76001 53.4 4.76001 53.88V54.44V54.43Z" fill="#010101"/>
<path opacity="0.3" d="M5.31003 56.0599L82.84 76.9199C83.3 77.0399 83.75 76.6999 83.75 76.2199V75.6599L4.78003 54.4099V55.3499C4.78003 55.6799 5.00003 55.9699 5.32003 56.0499L5.31003 56.0599Z" fill="white"/>
<path opacity="0.1" d="M4.76001 48.1099L83.74 69.3599V68.4199C83.74 68.0899 83.52 67.7999 83.2 67.7199L5.67001 46.8599C5.21001 46.7399 4.76001 47.0799 4.76001 47.5599V48.1199V48.1099Z" fill="#010101"/>
<path opacity="0.3" d="M5.31003 49.7398L82.84 70.5998C83.3 70.7198 83.75 70.3798 83.75 69.8998V69.3398L4.78003 48.0898V49.0298C4.78003 49.3598 5.00003 49.6498 5.32003 49.7298L5.31003 49.7398Z" fill="white"/>
<path opacity="0.1" d="M4.76001 41.7901L83.74 63.0401V62.1001C83.74 61.7701 83.52 61.4801 83.2 61.4001L5.67001 40.5301C5.21001 40.4101 4.76001 40.7501 4.76001 41.2301V41.7901Z" fill="#010101"/>
<path opacity="0.3" d="M5.31003 43.41L82.84 64.27C83.3 64.39 83.75 64.05 83.75 63.57V63.01L4.78003 41.77V42.71C4.78003 43.04 5.00003 43.33 5.32003 43.41H5.31003Z" fill="white"/>
<path opacity="0.1" d="M4.76001 35.47L83.74 56.72V55.78C83.74 55.45 83.52 55.16 83.2 55.08L5.67001 34.21C5.21001 34.09 4.76001 34.43 4.76001 34.91V35.47Z" fill="#010101"/>
<path opacity="0.3" d="M5.31003 37.09L82.84 57.95C83.3 58.07 83.75 57.7299 83.75 57.25V56.6899L4.78003 35.45V36.3899C4.78003 36.7199 5.00003 37.01 5.32003 37.09H5.31003Z" fill="white"/>
<path opacity="0.1" d="M4.76001 29.14L83.74 50.39V49.45C83.74 49.12 83.52 48.83 83.2 48.75L5.67001 27.89C5.21001 27.77 4.76001 28.11 4.76001 28.59V29.15V29.14Z" fill="#010101"/>
<path opacity="0.3" d="M5.31003 30.7699L82.84 51.6299C83.3 51.7499 83.75 51.4099 83.75 50.9299V50.3699L4.78003 29.1199V30.0599C4.78003 30.3899 5.00003 30.6799 5.32003 30.7599L5.31003 30.7699Z" fill="white"/>
<path opacity="0.1" d="M4.76001 22.8199L83.74 44.0699V43.1299C83.74 42.7999 83.52 42.5099 83.2 42.4299L5.67001 21.5699C5.21001 21.4499 4.76001 21.7899 4.76001 22.2699V22.8299V22.8199Z" fill="#010101"/>
<path opacity="0.3" d="M5.31003 24.4498L82.84 45.3098C83.3 45.4298 83.75 45.0898 83.75 44.6098V44.0498L4.78003 22.7998V23.7398C4.78003 24.0698 5.00003 24.3598 5.32003 24.4398L5.31003 24.4498Z" fill="white"/>
<path opacity="0.1" d="M4.76001 16.5001L83.74 37.7501V36.8101C83.74 36.4801 83.52 36.1901 83.2 36.1101L5.67001 15.2401C5.21001 15.1201 4.76001 15.4601 4.76001 15.9401V16.5001Z" fill="#010101"/>
<path opacity="0.3" d="M5.31003 18.12L82.84 38.98C83.3 39.1 83.75 38.76 83.75 38.28V37.72L4.78003 16.48V17.42C4.78003 17.75 5.00003 18.04 5.32003 18.12H5.31003Z" fill="white"/>
<g opacity="0.1">
<path d="M134.18 94.24C134.56 94.14 134.86 94.38 134.86 94.76V97.31C134.86 97.7 134.55 98.1 134.18 98.2L129.02 99.58C128.64 99.68 128.34 99.44 128.34 99.06V96.51C128.34 96.12 128.65 95.72 129.02 95.62L134.18 94.24Z" fill="white"/>
</g>
<path d="M133.15 94.75C133.45 94.67 133.69 94.86 133.69 95.17V97.02C133.69 97.33 133.45 97.65 133.15 97.73L129.05 98.83C128.75 98.91 128.51 98.72 128.51 98.41V96.56C128.51 96.25 128.75 95.93 129.05 95.85L133.15 94.75Z" fill="#9FA8B6"/>
<path d="M131.53 95.41C131.71 95.36 131.85 95.47 131.85 95.66V96.76C131.85 96.94 131.7 97.13 131.53 97.18L129.09 97.83C128.91 97.88 128.77 97.77 128.77 97.58V96.48C128.77 96.3 128.92 96.11 129.09 96.06L131.53 95.41Z" fill="#EE905A"/>
<path d="M119.93 68.1701L115.93 69.2401C115.43 69.3701 115.09 69.8201 115.09 70.3401V80.3301C115.09 80.9101 115.5 81.4001 116.06 81.5101L116.85 81.6701C117.06 81.7101 117.27 81.7001 117.48 81.6501L121.03 80.7201C121.74 80.5301 122.23 79.8901 122.23 79.1601V70.2101C122.23 69.5601 121.94 68.9401 121.44 68.5201C121.02 68.1701 120.45 68.0401 119.92 68.1801L119.93 68.1701Z" fill="#303A66"/>
<mask id="mask3_516_3811" style="mask-type:luminance" maskUnits="userSpaceOnUse" x="115" y="68" width="8" height="14">
<path d="M119.93 68.1701L115.93 69.2401C115.43 69.3701 115.09 69.8201 115.09 70.3401V80.3301C115.09 80.9101 115.5 81.4001 116.06 81.5101L116.85 81.6701C117.06 81.7101 117.27 81.7001 117.48 81.6501L121.03 80.7201C121.74 80.5301 122.23 79.8901 122.23 79.1601V70.2101C122.23 69.5601 121.94 68.9401 121.44 68.5201C121.02 68.1701 120.45 68.0401 119.92 68.1801L119.93 68.1701Z" fill="white"/>
</mask>
<g mask="url(#mask3_516_3811)">
<path opacity="0.1" d="M115.42 82.2001H116.74V70.7101L115.42 70.0801V82.2001Z" fill="#010101"/>
</g>
</g>
<defs>
<clipPath id="clip0_516_3811">
<rect width="167.15" height="117.63" fill="white"/>
</clipPath>
</defs>
</svg>
