<svg width="163" height="83" viewBox="0 0 163 83" fill="none" xmlns="http://www.w3.org/2000/svg">
<g clip-path="url(#clip0_516_2649)">
<g style="mix-blend-mode:multiply" opacity="0.1">
<path d="M29.63 42.9601C34.47 41.6601 42.39 41.6601 47.23 42.9601L142.64 68.5301C147.48 69.8301 147.48 71.9501 142.64 73.2501L114.06 80.9101C109.22 82.2101 101.25 82.4201 96.35 81.3801C51.54 75.0201 7.48001 59.8701 2.48001 55.6501C-2.58999 51.3701 0.920013 50.5401 5.76001 49.2401L29.63 42.9601Z" fill="#1D1D1B"/>
</g>
<g style="mix-blend-mode:multiply" opacity="0.4">
<path d="M34.8801 44.83C40.1601 43.42 48.7901 43.42 54.0701 44.83L143.26 68.73C148.54 70.14 148.54 72.46 143.26 73.87L119.95 80.11C114.67 81.52 109.05 81.85 105.98 81.64C102.91 81.43 99.1101 80.79 92.0701 78.35C81.1901 74.58 62.0401 69.14 54.2601 66.94C45.2301 64.39 37.8401 63.63 30.2401 61.66C17.9201 58.47 12.3501 55.96 10.6601 54.82C8.97007 53.68 8.33007 51.95 13.6001 50.53L34.8701 44.83H34.8801Z" fill="#14192E"/>
</g>
<path d="M146.789 69.523C151.617 68.2293 154.097 61.8311 152.329 55.2321C150.561 48.6332 145.214 44.3323 140.386 45.6259C135.558 46.9196 133.078 53.3178 134.846 59.9168C136.614 66.5157 141.961 70.8166 146.789 69.523Z" fill="#14192E"/>
<path d="M140.39 45.6297L133.261 47.5398L139.665 71.4368L146.793 69.5267L140.39 45.6297Z" fill="#14192E"/>
<path d="M139.847 71.3757C144.675 70.0821 147.155 63.6839 145.387 57.0849C143.619 50.4859 138.272 46.1851 133.444 47.4787C128.616 48.7724 126.136 55.1706 127.904 61.7695C129.672 68.3685 135.019 72.6694 139.847 71.3757Z" fill="#303A66"/>
<path d="M127.4 29.52L131.65 32.84C131.65 32.84 131.21 30.42 130.35 29.52C129.04 28.16 127.41 29.52 127.41 29.52H127.4Z" fill="#E9EAEB"/>
<path d="M45.6104 60.8748C50.4383 59.5811 52.9186 53.1829 51.1504 46.5839C49.3822 39.985 44.0351 35.6841 39.2072 36.9778C34.3793 38.2714 31.899 44.6696 33.6672 51.2686C35.4354 57.8675 40.7825 62.1684 45.6104 60.8748Z" fill="#14192E"/>
<path d="M39.1991 36.9744L32.0706 38.8845L38.4737 62.7815L45.6023 60.8714L39.1991 36.9744Z" fill="#14192E"/>
<path d="M112.175 78.739C117.003 77.4454 119.483 71.0472 117.715 64.4482C115.947 57.8492 110.6 53.5484 105.772 54.842C100.944 56.1356 98.4637 62.5339 100.232 69.1328C102 75.7318 107.347 80.0326 112.175 78.739Z" fill="#14192E"/>
<path d="M105.776 54.8458L98.6475 56.7559L105.051 80.6529L112.179 78.7428L105.776 54.8458Z" fill="#14192E"/>
<path d="M24.3698 48.1199L38.2298 45.5799L86.4798 60.2899L90.7298 68.2499L109.57 66.9199L108.01 53.4999L27.0098 30.9399L23.3298 40.6099L24.3698 48.1199Z" fill="#14192E"/>
<path d="M19.9799 28.38L21.2199 21.92C21.2199 21.92 21.7399 20.17 23.6299 19.55C25.1699 15.77 28.7599 10.76 31.7299 9.7C39.9999 6.76 56.6099 -0.13 65.8299 1.9C82.4899 5.59 94.4599 8.76 105.33 11.68C114.85 14.24 129.41 30.87 129.41 30.87C129.41 30.87 147.23 37.51 153.76 43.41C155.67 45.14 155.51 55.34 153.76 62.74C152.83 66.67 121.12 74.23 114.84 73.71L112.15 73.11C112.32 70.38 112 65.97 111.11 62.84C109.21 56.19 102.95 52.2 98.2699 52.97C93.8099 53.7 89.2499 58.59 90.7299 68.24L86.3999 66.31C75.2699 62.58 63.2099 59.29 49.9499 56.54L45.6099 55.84C45.6099 52.83 45.4399 48.59 44.4199 45.33C42.0399 37.69 35.0899 34.79 30.5299 36.01C26.2399 37.16 23.6499 42.37 24.3799 48.11C22.8999 46.75 23.6199 46.71 21.2399 43.93C20.3799 42.93 18.9199 37.39 18.9199 32.22C18.9199 30.61 19.9799 28.38 19.9799 28.38Z" fill="#FFED00"/>
<path d="M78.3999 21.45C95.0699 19.24 105.56 15.81 108.97 13.2C114.99 16.39 121.29 21.89 129.41 30.87C129.41 35.16 118.44 39.84 97.0099 40.34C89.9499 32.02 82.5699 23.19 78.3999 21.45Z" fill="#191E39"/>
<path d="M92.8499 42.6099C73.9899 38.3499 52.5899 31.2399 35.4599 24.1499C31.8699 22.6599 32.6699 16.8699 32.7599 14.8399C32.8499 12.9399 33.2599 11.4099 35.4599 11.8199C43.3799 13.2999 74.2699 21.0799 77.2799 23.4699C85.4899 29.9899 92.8499 42.6099 92.8499 42.6099Z" fill="#191E39"/>
<path d="M38.6683 62.7376C43.4961 61.4439 45.9765 55.0457 44.2083 48.4467C42.4401 41.8478 37.0929 37.5469 32.2651 38.8405C27.4372 40.1342 24.9568 46.5324 26.725 53.1314C28.4932 59.7303 33.8404 64.0312 38.6683 62.7376Z" fill="#303A66"/>
<path d="M37.858 59.7142C41.4643 58.7479 43.317 53.9687 41.9962 49.0394C40.6754 44.1102 36.6813 40.8976 33.0751 41.8639C29.4688 42.8302 27.6161 47.6095 28.9369 52.5387C30.2577 57.4679 34.2518 60.6805 37.858 59.7142Z" fill="#E9EAEB"/>
<path d="M31.5498 50.3902L29.8998 53.0002C29.4498 53.7102 30.0798 54.9602 30.8698 54.9002L33.7298 54.6701C34.0698 54.6401 34.4398 54.8902 34.6598 55.2902L36.4998 58.6602C37.0098 59.5802 38.0298 59.4502 38.0698 58.4502L38.1898 54.8202C38.1998 54.3902 38.4298 54.0602 38.7598 54.0002L41.5498 53.4802C42.3198 53.3401 42.3198 52.0002 41.5498 51.4502L38.7598 49.4302C38.4298 49.1902 38.1998 48.7401 38.1898 48.3001L38.0698 44.6001C38.0398 43.5901 37.0098 42.9002 36.4998 43.5502L34.6598 45.9401C34.4398 46.2201 34.0698 46.2702 33.7298 46.0602L30.8698 44.3002C30.0798 43.8202 29.4498 44.7302 29.8998 45.6802L31.5498 49.1701C31.7498 49.5901 31.7498 50.0601 31.5498 50.3701V50.3902Z" fill="#252C52"/>
<path d="M36.9 50.3999C37.19 51.4799 36.78 52.5199 35.99 52.7299C35.2 52.9399 34.33 52.2399 34.04 51.1599C33.75 50.0799 34.16 49.0399 34.95 48.8299C35.74 48.6199 36.61 49.3199 36.9 50.3999Z" fill="#E9EAEB"/>
<path d="M105.233 80.6021C110.061 79.3084 112.541 72.9102 110.773 66.3112C109.005 59.7123 103.658 55.4114 98.8298 56.7051C94.0019 57.9987 91.5215 64.3969 93.2897 70.9959C95.0579 77.5948 100.405 81.8957 105.233 80.6021Z" fill="#303A66"/>
<path d="M104.423 77.5787C108.029 76.6124 109.882 71.8332 108.561 66.9039C107.24 61.9747 103.246 58.7621 99.6398 59.7284C96.0335 60.6947 94.1808 65.474 95.5016 70.4032C96.8224 75.3324 100.817 78.545 104.423 77.5787Z" fill="#E9EAEB"/>
<path d="M98.1101 68.25L96.4601 70.86C96.0101 71.57 96.6401 72.82 97.4301 72.76L100.29 72.53C100.63 72.5 101 72.75 101.22 73.15L103.06 76.52C103.57 77.44 104.59 77.31 104.63 76.31L104.75 72.68C104.76 72.25 104.99 71.92 105.32 71.86L108.11 71.34C108.88 71.2 108.88 69.86 108.11 69.31L105.32 67.29C104.99 67.05 104.76 66.6 104.75 66.16L104.63 62.46C104.6 61.45 103.57 60.76 103.06 61.41L101.22 63.8C101 64.08 100.63 64.13 100.29 63.92L97.4301 62.16C96.6401 61.68 96.0101 62.59 96.4601 63.54L98.1101 67.03C98.3101 67.45 98.3101 67.92 98.1101 68.23V68.25Z" fill="#252C52"/>
<path d="M103.46 68.27C103.75 69.35 103.34 70.39 102.55 70.6C101.76 70.81 100.89 70.11 100.6 69.03C100.31 67.95 100.72 66.91 101.51 66.7C102.3 66.49 103.17 67.19 103.46 68.27Z" fill="#E9EAEB"/>
<path d="M128.15 30.8701C124.17 35.5201 112.84 37.6001 95.6398 38.7401C95.6398 38.7401 92.4398 34.3401 105.91 31.2601C120.27 27.9801 128.15 30.8701 128.15 30.8701Z" fill="#303A66"/>
<path d="M65.01 20.37L63.7 33.34L60.28 32.22L61.9 19.5L65.01 20.37Z" fill="#303A66"/>
<path d="M41.6498 25.7001L39.3298 24.7601L42.4898 14.1101L44.7098 14.6401L41.6498 25.7001Z" fill="#303A66"/>
<path d="M125.4 72.4799C124.27 72.3599 126.78 68.2399 127.33 67.6399C128.63 66.2199 136.3 64.2499 143.21 62.3799C149.41 60.7099 151.61 60.3399 152.25 60.9099C152.66 61.2799 153.99 63.4599 153.25 64.0399C151.53 65.3699 147.57 67.0899 141.85 68.7399C135.65 70.5299 126.72 72.6199 125.41 72.4799H125.4Z" fill="#14192E"/>
<g style="mix-blend-mode:multiply" opacity="0.1">
<path d="M91.7299 46.6899C64.5699 38.7099 35.8599 28.1199 22.1399 20.3799L20.6099 28.3799C20.6099 28.3799 25.3799 30.7799 30.4099 32.8199C32.3599 33.6099 39.5899 33.6899 42.6199 39.1699C47.5099 48.0099 47.8199 50.5699 49.8999 51.9699C51.7099 53.1899 58.7399 55.1699 69.3599 57.8799C75.1799 59.3599 89.7199 63.3799 89.7199 63.3799C90.5799 58.5599 91.7399 54.1999 93.4799 50.7799C94.2999 49.1699 93.4799 47.2099 91.7399 46.6999L91.7299 46.6899Z" fill="#14192E"/>
</g>
<g style="mix-blend-mode:multiply" opacity="0.1">
<path d="M113.4 59.85C114.7 62.31 115.49 64.92 115.67 67.73C115.74 68.77 116.71 69.52 117.73 69.33C120.21 68.88 122.34 68.07 123.87 66.66C124.76 65.85 124.72 64.43 123.79 63.67C121.02 61.39 117.93 59.73 114.63 58.46C113.77 58.13 112.95 59.05 113.38 59.86L113.4 59.85Z" fill="#14192E"/>
</g>
<g style="mix-blend-mode:multiply" opacity="0.1">
<path d="M25.06 37.98C26.6 35.56 26.78 33.6 24.4 32.16C22.02 30.72 20.75 29.11 20.67 31.82C20.53 36.75 22.17 40.71 23.14 42.6C23.32 42.95 23.85 42.86 23.9 42.47C24.03 41.49 24.2 39.32 25.05 37.98H25.06Z" fill="#14192E"/>
</g>
<path d="M21.22 21.92C21.62 20.56 22.32 19.91 23.63 19.55L22.88 24.3701C22.67 25.7201 22.73 27.1 23.05 28.42L23.39 29.8L19.99 28.3701L21.23 21.91L21.22 21.92Z" fill="#303A66"/>
<path d="M146.85 62.5501L136.92 65.2101V61.0301L146.85 58.3701V62.5501Z" fill="#14192E"/>
<path d="M147.48 62.69L137.54 65.35V61.17L147.48 58.51V62.69Z" fill="white"/>
<path d="M107.67 20.6701L100.17 22.6801L97.3198 20.0801L104.82 18.0701L107.67 20.6701Z" fill="#303A66"/>
<path d="M67.35 40.5001L62.21 38.6201L62.41 39.8501L67.63 41.8001L67.35 40.5001Z" fill="#14192E"/>
<path d="M67.12 40.2401L61.99 38.3501L62.18 39.5801L67.4 41.5401L67.12 40.2401Z" fill="#303A66"/>
<path d="M45.3598 32.3L40.2898 30.26L40.4398 31.49L45.5998 33.61L45.3598 32.3Z" fill="#14192E"/>
<path d="M45.1498 32.03L40.0698 29.99L40.2298 31.23L45.3898 33.34L45.1498 32.03Z" fill="#303A66"/>
<path d="M78.85 21.5999C78.85 21.5999 77.3 20.8099 76.1 20.3799C72.16 18.9599 37.4 9.4999 33.21 9.3999" stroke="#231F32" stroke-width="0.15" stroke-miterlimit="10"/>
<path d="M75.7498 17.51L98.4898 11.41L70.8398 4L48.0898 10.1L75.7498 17.51Z" fill="#14192E"/>
<path d="M129.38 53.9999L116.83 51.1499C116.83 51.1499 117.23 55.7799 118.89 56.2999C122.62 57.4499 130.02 59.3099 130.02 59.3099L129.37 53.9999H129.38Z" fill="#9FA8B6"/>
<path d="M121.15 53.2001L117.98 52.3401C117.98 52.3401 118.66 55.2601 119.19 55.4301C119.73 55.6001 121.78 56.2401 121.78 56.2401L121.15 53.2001Z" fill="#EE905A"/>
<path opacity="0.1" d="M91.18 41.7999C66.85 26.3699 45.43 19.0699 33.47 15.5799C33.56 13.7299 33.95 12.2399 36.09 12.6399C43.8 14.0799 73.88 21.6599 76.8 23.9799C84.79 30.3299 91.18 41.7999 91.18 41.7999Z" fill="white"/>
<g style="mix-blend-mode:multiply" opacity="0.2">
<path d="M89 42.7199C89 42.7199 88.9 42.3799 87.71 43.4099C86.41 44.5299 83.32 43.9499 82.17 43.4099C80.56 42.6499 79.22 41.2299 80.07 40.8499C82.19 39.8999 82.95 39.0399 83.65 39.0699C84.35 39.0999 89 42.7299 89 42.7299V42.7199Z" fill="#14192E"/>
</g>
<path d="M90.86 41.9499C90.86 41.9499 87.44 37.3899 85.79 37.3999C84.5 37.4099 81.49 37.6599 80.73 39.8199C79.98 41.9799 82.05 43.0699 84.71 43.6699C87.37 44.2699 89.21 43.6899 89.87 43.2299C90.53 42.7699 90.86 41.9499 90.86 41.9499Z" fill="#E9EAEB"/>
<mask id="mask0_516_2649" style="mask-type:luminance" maskUnits="userSpaceOnUse" x="80" y="37" width="11" height="7">
<path d="M90.86 41.9499C90.86 41.9499 87.44 37.3899 85.79 37.3999C84.5 37.4099 81.49 37.6599 80.73 39.8199C79.98 41.9799 82.05 43.0699 84.71 43.6699C87.37 44.2699 89.21 43.6899 89.87 43.2299C90.53 42.7699 90.86 41.9499 90.86 41.9499Z" fill="white"/>
</mask>
<g mask="url(#mask0_516_2649)">
<g style="mix-blend-mode:multiply" opacity="0.1">
<path d="M82.3401 37.6899C82.3401 37.6899 82.0501 40.0199 85.0201 40.8199C86.5601 41.2399 91.4701 42.0299 91.4701 42.0299L90.2001 44.7899L80.2801 45.3399L79.1301 40.0399L81.0201 36.9199L82.3301 37.6899H82.3401Z" fill="#14192E"/>
</g>
</g>
<mask id="mask1_516_2649" style="mask-type:luminance" maskUnits="userSpaceOnUse" x="18" y="1" width="138" height="73">
<path d="M19.9799 28.3801L21.2199 21.9201C21.2199 21.9201 21.7399 20.1701 23.6299 19.5501C25.1699 15.7701 29.7399 10.3201 31.7299 9.70012C40.1099 7.07012 56.6099 -0.129882 65.8299 1.90012C82.4899 5.59012 94.4599 8.76012 105.33 11.6801C114.85 14.2401 129.41 30.8701 129.41 30.8701C129.41 30.8701 147.23 37.5101 153.76 43.4101C155.67 45.1401 155.51 55.3401 153.76 62.7401C152.83 66.6701 121.12 74.2301 114.84 73.7101L112.15 73.1101C112.32 70.3801 112 65.9701 111.11 62.8401C109.21 56.1901 102.95 52.2001 98.2699 52.9701C93.8099 53.7001 89.2499 58.5901 90.7299 68.2401L86.3999 66.3101C75.2699 62.5801 63.2099 59.2901 49.9499 56.5401L45.6099 55.8401C45.6099 52.8301 45.4399 48.5901 44.4199 45.3301C42.0399 37.6901 35.0899 34.7901 30.5299 36.0101C26.2399 37.1601 23.6499 42.3701 24.3799 48.1101C22.8999 46.7501 23.6199 46.7101 21.2399 43.9301C20.3799 42.9301 18.9199 37.3901 18.9199 32.2201C18.9199 30.6101 19.9799 28.3801 19.9799 28.3801Z" fill="white"/>
</mask>
<g mask="url(#mask1_516_2649)">
<path opacity="0.1" d="M152.5 64.55C152.36 57.79 151.97 52.02 151.8 49.94C151.55 46.81 151.55 46.4 147.48 45.34C141.96 43.91 130.94 39.24 121.04 37.09C116.23 30.87 104.06 16.36 98.4999 14.72C91.1899 12.57 60.4899 5.14 50.8999 2.82L58.4099 0L108.25 8.77L162.61 45.94L160.84 63.07L152.5 64.55Z" fill="white"/>
</g>
<path d="M139.97 53.3301C139.68 54.4101 140.09 55.4501 140.88 55.6601C141.67 55.8701 142.54 55.1701 142.83 54.0901C143.12 53.0101 142.71 51.9701 141.92 51.7601C141.13 51.5501 140.26 52.2501 139.97 53.3301Z" fill="#303A66"/>
<path d="M63.5598 19.0698C62.9198 24.0498 61.9298 33.7698 61.9298 33.7698C61.9298 33.7698 60.2998 36.5198 60.6098 39.4198C61.1098 44.1098 61.7398 52.5198 61.3098 55.7298" stroke="#231F32" stroke-width="0.15" stroke-miterlimit="10"/>
<path d="M92.8499 42.6099C90.6799 44.9199 91.1099 55.4199 89.7099 63.3699L51.7999 53.1599C50.1999 52.7299 48.7099 51.3199 47.8499 49.4299L39.7499 33.5899C38.8499 31.5899 38.9499 28.0599 40.2799 25.9999L43.6599 13.9399" stroke="#231F32" stroke-width="0.15" stroke-miterlimit="10"/>
<path d="M20.6099 28.3799C20.6099 28.3799 26.4499 31.1299 27.0999 31.4199C27.7599 31.7099 28.1299 32.4599 28.3999 33.4799C28.6799 34.4999 29.1199 36.5899 29.1199 36.5899" stroke="#231F32" stroke-width="0.15" stroke-miterlimit="10"/>
<path d="M120.02 56.55C120.02 56.55 113.18 54.36 111.37 54.4C110.15 54.43 109.32 57.06 109.18 58.71" stroke="#231F32" stroke-width="0.15" stroke-miterlimit="10"/>
<path d="M97.0098 40.3398C97.0098 40.3398 98.7698 42.3698 99.6498 43.3498C100.84 44.6898 111.37 48.9698 113.68 50.1298C116 51.2898 129.39 53.9998 129.39 53.9998L150.7 48.1198C150.7 48.1198 152.86 45.8898 152.81 43.8098C152.78 42.8398 152.76 42.7298 152.01 42.0698" stroke="#231F32" stroke-width="0.15" stroke-miterlimit="10"/>
<path d="M150.69 48.1199V53.8099C150.69 53.8099 153.67 49.6199 153.67 46.8399C153.67 44.0599 152.8 42.9199 152.8 42.9199C152.89 44.7299 152.42 46.4899 150.69 48.1099V48.1199Z" fill="#9FA8B6"/>
<g style="mix-blend-mode:multiply" opacity="0.1">
<path d="M150.69 53.8101C144.76 56.5001 137.72 58.2001 130.03 59.3001L129.38 53.9901L150.69 48.1101V53.8001V53.8101Z" fill="#14192E"/>
</g>
<path d="M153 44.0901C153 44.0901 153.52 46.2301 153.4 46.8201C153.27 47.4101 153.1 48.2101 153.1 48.2101L152.89 45.5201L153 44.0901Z" fill="#EE905A"/>
</g>
<defs>
<clipPath id="clip0_516_2649">
<rect width="162.61" height="82.03" fill="white"/>
</clipPath>
</defs>
</svg>
