<svg width="95" height="83" viewBox="0 0 95 83" fill="none" xmlns="http://www.w3.org/2000/svg">
<g clip-path="url(#clip0_516_4917)">
<g style="mix-blend-mode:multiply" opacity="0.1">
<path d="M12.4299 57.41C15.7299 56.53 21.1299 56.53 24.4299 57.41L89.4899 74.84C92.7899 75.72 91.9899 78.01 91.0799 78.53C90.1699 79.05 88.4099 79.93 78.6799 81.43C73.1299 82.29 69.3899 82.15 66.0499 81.45C50.9099 78.61 14.5299 68.58 2.03991 63.91C-2.20009 62.33 0.979907 60.43 4.27991 59.54L12.4299 57.41Z" fill="#14192E"/>
</g>
<g style="mix-blend-mode:multiply" opacity="0.4">
<path d="M16.83 59.28C20.13 58.4 23.56 58.94 26.86 59.82L86.11 75.69C89.41 76.57 91.89 77.92 88.59 78.81C88.59 78.81 86.93 79.48 84.5 79.94C82.07 80.4 77.97 81.15 73.6 80.68C64.31 79.69 27.52 68.49 22.77 67.26C15.07 65.26 11.58 63.7 10.52 62.98C9.46001 62.26 9.06001 61.18 12.36 60.3L16.84 59.29L16.83 59.28Z" fill="#14192E"/>
</g>
<path d="M16.5298 40.17C16.9998 40.04 17.4698 39.99 17.9398 39.98C15.3498 42.07 14.2398 46.41 15.4298 50.86C16.7398 55.75 20.3998 59.13 24.0298 59.09C23.3998 59.6 22.6898 59.97 21.8998 60.19C17.8498 61.27 13.3698 57.67 11.8898 52.14C10.4098 46.61 12.4898 41.25 16.5298 40.17Z" fill="#B4BCC5"/>
<path d="M24.1198 48.8301C24.5198 50.3301 23.9598 51.7801 22.8598 52.0701C21.7698 52.3601 20.5498 51.3901 20.1498 49.8901C19.7498 48.3901 20.3098 46.9401 21.4098 46.6501C22.4998 46.3601 23.7198 47.3301 24.1198 48.8301Z" fill="#B4BCC5"/>
<path d="M21.4172 46.6435L19.2632 47.2207L20.7152 52.6395L22.8692 52.0624L21.4172 46.6435Z" fill="#B4BCC5"/>
<path d="M22.01 49.3902C22.41 50.8902 21.85 52.3402 20.75 52.6302C19.66 52.9202 18.44 51.9502 18.04 50.4502C17.64 48.9502 18.2 47.5002 19.3 47.2102C20.39 46.9202 21.61 47.8902 22.01 49.3902Z" fill="#5E6F82"/>
<path d="M13.8499 45.3401L19.4299 46.8401L16.6399 40.1401L19.0299 39.0801L21.8199 45.7801L24.6099 40.5701L26.9899 42.9101L24.2099 48.1201L29.7799 49.6101V53.0101L24.2099 51.5201L26.9899 58.2201L24.6099 59.2801L21.8199 52.5801L19.0299 57.7801L16.6399 55.4501L19.4299 50.2401L13.8499 48.7401V45.3401Z" fill="#7D8292"/>
<path d="M23.4298 48.7401C23.7398 49.9101 23.2998 51.0501 22.4498 51.2801C21.5898 51.5101 20.6398 50.7501 20.3298 49.5801C20.0198 48.4101 20.4598 47.2701 21.3098 47.0401C22.1698 46.8101 23.1198 47.5701 23.4298 48.7401Z" fill="#7D8292"/>
<path d="M13.8497 45.3401L12.2397 45.8101L17.8097 47.3101L19.4297 46.8401L13.8497 45.3401Z" fill="#7D8292"/>
<path d="M17.4097 58.2501L19.0297 57.7801L21.8197 52.5801L20.1997 53.0401L17.4097 58.2501Z" fill="#7D8292"/>
<path d="M12.2397 45.81L17.8097 47.31L15.0297 40.6L17.4097 39.54L20.1997 46.25L22.9897 41.04L25.3797 43.38L22.5897 48.59L28.1697 50.08V53.48L22.5897 51.98L25.3797 58.69L22.9897 59.75L20.1997 53.04L17.4097 58.25L15.0297 55.91L17.8097 50.7L12.2397 49.21V45.81Z" fill="#D0D2D3"/>
<path d="M21.8197 49.21C22.1297 50.38 21.6897 51.52 20.8397 51.75C19.9797 51.98 19.0297 51.22 18.7197 50.05C18.4097 48.88 18.8497 47.74 19.6997 47.51C20.5597 47.28 21.5097 48.04 21.8197 49.21Z" fill="#9FA8B6"/>
<path d="M9.88986 52.6701C11.7699 59.7001 17.4699 64.2801 22.6199 62.9101C27.7699 61.5301 30.4099 54.7101 28.5299 47.6801C26.6499 40.6501 20.9499 36.0601 15.7999 37.4401C10.6499 38.8201 8.00986 45.6401 9.88986 52.6701ZM16.5299 40.1701C20.5799 39.0901 25.0599 42.6901 26.5399 48.2201C28.0199 53.7501 25.9399 59.1101 21.8999 60.1901C17.8499 61.2701 13.3699 57.6701 11.8899 52.1401C10.4099 46.6101 12.4899 41.2501 16.5299 40.1701Z" fill="#303A66"/>
<path d="M23.2298 48.9402C23.9498 51.6202 22.9398 54.2202 20.9798 54.7402C19.0198 55.2702 16.8498 53.5202 16.1298 50.8402C15.4098 48.1602 16.4198 45.5602 18.3798 45.0402C20.3398 44.5102 22.5098 46.2602 23.2298 48.9402Z" fill="#7D8292"/>
<path d="M18.3683 45.0504L17.3638 45.3196L19.9623 55.0175L20.9669 54.7483L18.3683 45.0504Z" fill="#7D8292"/>
<path d="M22.2998 49.1902C23.0198 51.8702 22.0098 54.4702 20.0498 54.9902C18.0898 55.5202 15.9198 53.7702 15.1998 51.0902C14.4798 48.4102 15.4898 45.8102 17.4498 45.2902C19.4098 44.7602 21.5798 46.5102 22.2998 49.1902Z" fill="#5E6F82"/>
<path d="M22.6298 62.9101C27.7798 61.5301 30.4198 54.7101 28.5398 47.6801C26.6598 40.6501 20.9598 36.0601 15.8098 37.4401C14.9998 37.6601 14.2498 38.0101 13.5798 38.4701C15.8698 36.7401 19.6398 35.7201 22.6498 35.9101C27.1798 36.0201 31.6998 40.2801 33.3398 46.3901C34.9798 52.5001 33.1898 58.4501 29.3198 60.8101C27.6398 62.0401 23.7298 63.5301 20.1998 63.1301C21.0098 63.1901 21.8298 63.1301 22.6398 62.9101H22.6298Z" fill="#191E39"/>
<path d="M36.38 57.1699C35.6 57.1199 19.18 55.08 19.18 55.08L18.49 45.2L33.51 48.1899L36.38 57.1699Z" fill="#5E6F82"/>
<path d="M51.1299 60.3201L36.0099 64.3801L35.1599 62.6601L50.2699 58.6101L51.1299 60.3201Z" fill="#303A66"/>
<path d="M36.34 68.4201C36.88 68.2401 37.19 67.6901 37.07 67.1301C37.07 67.1301 33.87 52.3701 33.75 51.8701C33.63 51.3701 31.56 51.9401 31.86 53.4801C32.08 54.6401 34.9 67.6001 34.9 67.6001C35.04 68.2501 35.71 68.6301 36.34 68.4201Z" fill="#303A66"/>
<path d="M49.87 64.82C50.41 64.64 50.72 64.09 50.6 63.53C50.6 63.53 47.4 48.77 47.28 48.27C47.16 47.77 45.09 48.34 45.39 49.88C45.61 51.04 48.43 64 48.43 64C48.57 64.65 49.24 65.03 49.87 64.82Z" fill="#303A66"/>
<path d="M45.8799 31.2099C45.9099 31.3499 49.4799 52.2399 52.6299 54.0199C56.3499 56.1299 66.8999 59.3699 68.8299 59.8899C70.7599 60.4099 82.1199 44.4799 82.6099 41.2999C83.0899 38.1199 78.1799 24.7199 75.9099 20.1299" stroke="#252C52" stroke-width="0.23" stroke-miterlimit="10"/>
<path d="M83.8499 13.3101C84.0299 13.9801 83.7799 14.6301 83.2899 14.7601C82.7999 14.8901 82.2599 14.4601 82.0799 13.7901C81.8999 13.1201 82.1499 12.4701 82.6399 12.3401C83.1299 12.2101 83.6699 12.6401 83.8499 13.3101Z" fill="#40407A"/>
<path d="M82.6437 12.3458L52.7966 20.3433L53.4437 22.7581L83.2908 14.7606L82.6437 12.3458Z" fill="#40407A"/>
<path d="M54.0198 21.3C54.1998 21.97 53.9498 22.62 53.4598 22.75C52.9698 22.88 52.4298 22.45 52.2498 21.78C52.0698 21.11 52.3198 20.46 52.8098 20.33C53.2998 20.2 53.8398 20.63 54.0198 21.3Z" fill="#14192E"/>
<path d="M64.3499 64.4901C64.3499 64.4901 55.7699 66.2001 53.6699 65.5101C51.5699 64.8201 37.8599 60.5901 36.2499 59.3901C34.6399 58.1801 14.5399 36.7301 13.0399 34.6401C11.5399 32.5501 12.0199 25.2101 12.0199 24.4001C12.0199 23.5901 26.5199 20.5801 27.1699 20.9601C27.8199 21.3401 45.8799 31.2101 45.8799 31.2101C45.9099 31.3501 49.4899 52.2201 52.6299 54.0201C54.3499 55.0101 55.9099 55.8401 60.5199 57.3301C64.0299 52.6901 67.6599 46.9701 67.9299 45.2001C68.4099 42.0201 67.4599 27.3601 65.1899 22.7601L76.0899 20.0701C76.0899 20.0701 90.2999 43.2801 86.7999 48.6301L79.4599 60.4201L64.3399 64.4701L64.3499 64.4901Z" fill="#D2D3D4"/>
<mask id="mask0_516_4917" style="mask-type:luminance" maskUnits="userSpaceOnUse" x="11" y="20" width="77" height="46">
<path d="M64.3499 64.4901C64.3499 64.4901 55.7699 66.2001 53.6699 65.5101C51.5699 64.8201 37.8599 60.5901 36.2499 59.3901C34.6399 58.1801 14.5399 36.7301 13.0399 34.6401C11.5399 32.5501 12.0199 25.2101 12.0199 24.4001C12.0199 23.5901 26.5199 20.5801 27.1699 20.9601C27.8199 21.3401 45.8799 31.2101 45.8799 31.2101C45.9099 31.3501 49.4899 52.2201 52.6299 54.0201C54.3499 55.0101 55.9099 55.8401 60.5199 57.3301C64.0299 52.6901 67.6599 46.9701 67.9299 45.2001C68.4099 42.0201 67.4599 27.3601 65.1899 22.7601L76.0899 20.0701C76.0899 20.0701 90.2999 43.2801 86.7999 48.6301L79.4599 60.4201L64.3399 64.4701L64.3499 64.4901Z" fill="white"/>
</mask>
<g mask="url(#mask0_516_4917)">
<path d="M67.93 45.2101C67.45 48.3901 56.63 63.9001 54.69 63.3801C52.76 62.8601 42 59.7601 38.83 57.9301C35.69 56.1301 32.25 41.7501 31.71 38.1501C31.17 34.5501 37.29 33.3601 37.29 33.3601L46.55 32.3101C46.55 32.3101 68.41 42.0201 67.92 45.2001L67.93 45.2101Z" fill="#252C52"/>
<path d="M60.51 57.3399L55.45 63.1399L43.25 59.1299L56.18 55.6699L60.51 57.3399Z" fill="#191E39"/>
<path opacity="0.1" d="M65.7299 21.93C66.7499 23.85 69.6399 39.01 69.0499 45.8C68.7699 49.02 57.1899 64.02 54.6999 63.94C52.5199 63.87 40.4999 59.77 37.9599 58.63C33.9499 56.83 30.1799 39.68 29.3199 36.45C28.4599 33.22 16.6999 28.75 15.4099 27.95C14.1199 27.15 11.9599 26.49 11.9499 27.24C11.9399 27.99 10.1499 32.5 10.4699 33.36C10.7899 34.22 32.8099 61.86 32.8099 61.86C32.8099 61.86 43.4399 66.44 45.8799 67.04C48.3199 67.64 62.3499 67.08 62.8899 67.04C63.4299 67 66.8699 63.8 66.8699 63.8C66.8699 63.8 87.0099 48.7 86.9299 47.81C86.9299 47.81 88.1899 44.18 84.2799 45.19C78.8899 46.58 76.6499 41.89 75.2199 38.4C69.6499 24.8 76.2899 25.72 74.8399 23.09C73.3899 20.46 65.7499 21.92 65.7499 21.92L65.7299 21.93Z" fill="#010101"/>
<path d="M47.4399 35.5099C47.4399 35.5099 45.7799 35.7299 44.3299 36.4499C42.8799 37.1699 41.9499 39.0699 41.4799 43.0799C41.2299 45.2399 41.8799 51.4099 43.2799 56.8899C43.8299 59.0599 40.9499 59.3199 39.1199 56.1299C37.2899 52.9399 32.0499 41.6599 33.3399 38.1199C34.6299 34.5799 35.9999 32.9599 36.3199 32.7999C36.6399 32.6399 47.4399 35.4999 47.4399 35.4999V35.5099Z" fill="#191E39"/>
</g>
<path d="M85.9398 47.4899L76.3699 50.0499C74.0198 50.6799 71.9998 52.1799 70.7198 54.2399L64.3398 64.4799L79.4598 60.4299L86.7999 48.6399C87.1699 48.0399 86.6199 47.2999 85.9398 47.4799V47.4899Z" fill="#14192E"/>
<path d="M65.1899 22.77C67.4599 27.36 68.4099 42.02 67.9299 45.21C67.4499 48.39 56.6299 63.9 54.6899 63.38C52.7599 62.86 41.9999 59.76 38.8299 57.93C35.6899 56.13 32.3199 41.72 31.9399 39.48C31.5599 37.24 32.1299 34.87 34.6299 34.57" stroke="#252C52" stroke-width="0.23" stroke-miterlimit="10"/>
<path d="M73.5799 15.11L76.8199 21.54C76.8199 21.54 76.7899 22.32 75.6299 22.66C73.5399 23.25 70.4099 23.9 68.6299 23.7C66.3999 23.45 65.1899 22.77 65.1899 22.77C65.1899 22.77 63.1299 19.27 62.8199 18.7C61.4499 16.21 64.0799 13.07 68.0499 12.55C72.1699 12.01 73.5799 15.11 73.5799 15.11Z" fill="#D2D3D4"/>
<mask id="mask1_516_4917" style="mask-type:luminance" maskUnits="userSpaceOnUse" x="62" y="12" width="15" height="12">
<path d="M73.5799 15.11L76.8199 21.54C76.8199 21.54 76.7899 22.32 75.6299 22.66C73.5399 23.25 70.4099 23.9 68.6299 23.7C66.3999 23.45 65.1899 22.77 65.1899 22.77C65.1899 22.77 63.1299 19.27 62.8199 18.7C61.4499 16.21 64.0799 13.07 68.0499 12.55C72.1699 12.01 73.5799 15.11 73.5799 15.11Z" fill="white"/>
</mask>
<g mask="url(#mask1_516_4917)">
<path opacity="0.1" d="M73.8098 23.22C73.8098 23.22 73.2599 16.65 72.1199 17.13C68.0599 18.84 65.5698 15.97 66.7498 14.35C67.8098 12.91 64.9798 11.88 63.7998 13.54C62.6198 15.21 60.3898 17.81 60.5198 18.02C60.6498 18.23 66.1199 22.98 66.1199 22.98C66.1199 22.98 68.7898 24.77 69.2198 24.77C69.6498 24.77 73.0298 24.36 73.0298 24.36L73.8098 23.21V23.22Z" fill="#010101"/>
</g>
<path d="M65.1899 22.77C65.1899 22.77 67.5799 23.54 68.6299 23.7C69.6799 23.86 71.4999 23.78 73.8099 23.22C76.1199 22.66 76.6499 22.77 76.8299 21.54" stroke="#252C52" stroke-width="0.23" stroke-miterlimit="10"/>
<path d="M71.2998 18.6401C70.9798 19.8401 71.4298 21.0001 72.3098 21.2401C73.1898 21.4801 74.1598 20.6901 74.4798 19.4901C74.7998 18.2901 74.3498 17.1301 73.4698 16.8901C72.5898 16.6501 71.6198 17.4401 71.2998 18.6401Z" fill="#B4BCC5"/>
<path d="M71.5498 20.6701C72.4698 22.8101 74.0198 23.8201 75.0898 24.1301L77.3298 15.7801C76.9198 15.4301 74.5898 15.6401 72.6398 16.9501L71.5498 20.6701Z" fill="#B4BCC5"/>
<path d="M73.0899 19.1202C72.4699 21.4302 73.3399 23.6602 75.0299 24.1102C76.7199 24.5602 78.5899 23.0602 79.1999 20.7502C79.8199 18.4402 78.9499 16.2102 77.2599 15.7602C75.5699 15.3102 73.6999 16.8102 73.0899 19.1202Z" fill="#E7E8E9"/>
<path d="M73.9599 19.3501C73.5199 21.0001 74.1399 22.6001 75.3499 22.9201C76.5599 23.2401 77.8899 22.1701 78.3399 20.5201C78.7799 18.8701 78.1599 17.2701 76.9499 16.9501C75.7399 16.6301 74.4099 17.7001 73.9599 19.3501Z" fill="#303A66"/>
<path d="M81.6698 42.7201C81.8798 43.3701 82.4698 43.7701 83.0098 43.6001C83.5398 43.4301 83.8098 42.7701 83.5998 42.1101C83.3898 41.4601 82.7998 41.0601 82.2598 41.2301C81.7298 41.4001 81.4598 42.0601 81.6698 42.7201Z" fill="#303A66"/>
<path d="M14.53 26.2101C15.89 26.8801 31.17 34.4001 34.73 35.2601C44.67 37.6801 47.06 35.6801 47.44 35.5101C48.58 34.9701 47.92 29.7101 47.14 28.9301C45.49 27.2801 42.41 27.6001 37.27 25.3801C34.83 24.3301 26.31 19.0201 22.7 19.4901C20.03 19.8401 16.44 20.7501 14.17 21.4801C12.66 21.9701 13.16 25.5401 14.52 26.2101H14.53Z" fill="#303A66"/>
<mask id="mask2_516_4917" style="mask-type:luminance" maskUnits="userSpaceOnUse" x="13" y="19" width="36" height="18">
<path d="M14.53 26.2101C15.89 26.8801 31.17 34.4001 34.73 35.2601C44.67 37.6801 47.06 35.6801 47.44 35.5101C48.58 34.9701 47.92 29.7101 47.14 28.9301C45.49 27.2801 42.41 27.6001 37.27 25.3801C34.83 24.3301 26.31 19.0201 22.7 19.4901C20.03 19.8401 16.44 20.7501 14.17 21.4801C12.66 21.9701 13.16 25.5401 14.52 26.2101H14.53Z" fill="white"/>
</mask>
<g mask="url(#mask2_516_4917)">
<path d="M43.7 37.2601C43.7 37.2601 44.0599 32.0801 43.09 30.7101C42.12 29.3401 35.68 29.2201 33.18 27.9501C30.68 26.6801 23.46 23.7701 20.03 22.7701C17 21.8901 14.36 21.5601 14.09 22.6501C13.57 24.7101 14.5799 27.9401 14.5799 27.9401C14.5799 27.9401 30.29 36.8201 35.04 37.1801C39.79 37.5401 43.7 37.2401 43.7 37.2401V37.2601Z" fill="#252C52"/>
</g>
<path d="M3.02002 19.46V3.78L17.11 0L29.18 3.23V18.92L15.08 22.7L3.02002 19.46Z" fill="#D2D3D4"/>
<path d="M29.1801 18.92L15.0801 22.7V7.00998L29.1801 3.22998V18.92Z" fill="#E7E8E9"/>
<path opacity="0.1" d="M3.02002 3.78003V19.46L15.08 22.7V7.01003L3.02002 3.78003Z" fill="#010101"/>
<path d="M85.8399 66.1999C86.3799 66.0199 86.6899 65.4699 86.5699 64.9099C86.5699 64.9099 83.4699 50.4499 83.2899 49.8299C83.1199 49.2099 81.1299 50.0199 81.3699 51.3299L84.3899 65.3699C84.5299 66.0199 85.1999 66.3999 85.8299 66.1899L85.8399 66.1999Z" fill="#40407A"/>
<path d="M76.7698 56.3199C77.2398 56.1899 77.7098 56.1399 78.1798 56.1299C75.5898 58.2199 74.4798 62.5599 75.6698 67.0099C76.9798 71.8999 80.6398 75.2799 84.2698 75.2399C83.6398 75.7499 82.9298 76.1199 82.1398 76.3399C78.0898 77.4199 73.6098 73.8199 72.1298 68.2899C70.6498 62.7599 72.7298 57.3999 76.7698 56.3199Z" fill="#B4BCC5"/>
<path d="M84.3601 64.98C84.7601 66.48 84.2001 67.93 83.1001 68.22C82.0101 68.51 80.7901 67.54 80.3901 66.04C79.9901 64.54 80.5501 63.09 81.6501 62.8C82.7401 62.51 83.9601 63.48 84.3601 64.98Z" fill="#B4BCC5"/>
<path d="M81.6572 62.8015L79.5032 63.3787L80.9551 68.7975L83.1092 68.2203L81.6572 62.8015Z" fill="#B4BCC5"/>
<path d="M82.25 65.5401C82.65 67.0401 82.09 68.4901 80.99 68.7801C79.9 69.0701 78.68 68.1001 78.28 66.6001C77.88 65.1001 78.44 63.6501 79.54 63.3601C80.63 63.0701 81.85 64.0401 82.25 65.5401Z" fill="#5E6F82"/>
<path d="M74.0898 61.5L79.6698 62.99L76.8798 56.29L79.2698 55.23L82.0598 61.93L84.8498 56.73L87.2299 59.07L84.4398 64.27L90.0198 65.77V69.17L84.4398 67.67L87.2299 74.37L84.8498 75.43L82.0598 68.73L79.2698 73.94L76.8798 71.6L79.6698 66.39L74.0898 64.9V61.5Z" fill="#7D8292"/>
<path d="M83.6698 64.89C83.9798 66.06 83.5398 67.2 82.6898 67.43C81.8298 67.66 80.8798 66.9 80.5698 65.73C80.2598 64.56 80.6998 63.42 81.5498 63.19C82.4098 62.96 83.3598 63.72 83.6698 64.89Z" fill="#7D8292"/>
<path d="M74.0897 61.5L72.4797 61.96L78.0497 63.46L79.6697 62.99L74.0897 61.5Z" fill="#7D8292"/>
<path d="M77.6497 74.4L79.2697 73.94L82.0597 68.73L80.4397 69.2L77.6497 74.4Z" fill="#7D8292"/>
<path d="M72.4797 61.9599L78.0497 63.4599L75.2697 56.7599L77.6497 55.7L80.4397 62.4L83.2297 57.1899L85.6197 59.5299L82.8297 64.7399L88.4097 66.23V69.6299L82.8297 68.1399L85.6197 74.8399L83.2297 75.9L80.4397 69.1999L77.6497 74.4L75.2697 72.07L78.0497 66.86L72.4797 65.36V61.9599Z" fill="#D0D2D3"/>
<path d="M82.0597 65.3599C82.3697 66.5299 81.9297 67.6699 81.0797 67.8999C80.2197 68.1299 79.2697 67.3699 78.9597 66.1999C78.6497 65.0299 79.0897 63.8899 79.9397 63.6599C80.7997 63.4299 81.7497 64.1899 82.0597 65.3599Z" fill="#9FA8B6"/>
<path d="M70.1298 68.8299C72.0098 75.8599 77.7099 80.4399 82.8599 79.0699C88.0099 77.6899 90.6498 70.8699 88.7698 63.8399C86.8898 56.8099 81.1899 52.2299 76.0399 53.5999C70.8899 54.9799 68.2498 61.7999 70.1298 68.8299ZM76.7698 56.3199C80.8198 55.2399 85.2999 58.8399 86.7799 64.3699C88.2598 69.8999 86.1799 75.2599 82.1399 76.3399C78.0899 77.4199 73.6098 73.8199 72.1298 68.2899C70.6498 62.7599 72.7298 57.3999 76.7698 56.3199Z" fill="#303A66"/>
<path d="M83.4698 65.0999C84.1898 67.7799 83.1798 70.3799 81.2198 70.8999C79.2598 71.4299 77.0898 69.6799 76.3698 66.9999C75.6498 64.3199 76.6598 61.7199 78.6198 61.1999C80.5798 60.6699 82.7498 62.4199 83.4698 65.0999Z" fill="#7D8292"/>
<path d="M78.6156 61.1986L77.6111 61.4678L80.2096 71.1657L81.2142 70.8965L78.6156 61.1986Z" fill="#7D8292"/>
<path d="M82.5398 65.3499C83.2598 68.0299 82.2498 70.6299 80.2898 71.1499C78.3298 71.6799 76.1598 69.9299 75.4398 67.2499C74.7198 64.5699 75.7298 61.9699 77.6898 61.4499C79.6498 60.9199 81.8198 62.6699 82.5398 65.3499Z" fill="#5E6F82"/>
<path d="M82.8698 79.06C88.0198 77.68 90.6598 70.86 88.7798 63.83C86.8998 56.8 81.1998 52.22 76.0498 53.59C75.2398 53.81 74.4898 54.16 73.8198 54.62C76.1098 52.89 79.8798 51.87 82.8898 52.06C87.4198 52.17 91.9398 56.43 93.5798 62.54C95.2198 68.65 93.4298 74.6 89.5598 76.96C87.8798 78.19 83.9698 79.68 80.4398 79.28C81.2498 79.34 82.0698 79.28 82.8798 79.06H82.8698Z" fill="#191E39"/>
<path d="M78.9899 67.8701C79.5299 67.6901 79.8399 67.1401 79.7199 66.5801C79.7199 66.5801 76.5199 51.8201 76.3999 51.3201C76.2799 50.8201 74.2099 51.3901 74.5099 52.9301C74.7299 54.0901 77.5499 67.0501 77.5499 67.0501C77.6899 67.7001 78.3599 68.0801 78.9899 67.8701Z" fill="#40407A"/>
<g opacity="0.1">
<path d="M23.6899 3.45009L24.6399 3.19009L16.8199 1.09009L15.8699 1.35009L23.6899 3.45009Z" fill="#010101"/>
<path d="M20.9198 4.19009L21.8698 3.93009L14.0498 1.84009L13.0898 2.09009L20.9198 4.19009Z" fill="#010101"/>
<path d="M18.1498 4.93008L19.0998 4.68008L11.2798 2.58008L10.3198 2.83008L18.1498 4.93008Z" fill="#010101"/>
<path d="M15.3798 5.67007L16.3298 5.42007L8.4998 3.32007L7.5498 3.58007L15.3798 5.67007Z" fill="#010101"/>
</g>
</g>
<defs>
<clipPath id="clip0_516_4917">
<rect width="94.18" height="82.03" fill="white"/>
</clipPath>
</defs>
</svg>
