<svg width="212" height="118" viewBox="0 0 212 118" fill="none" xmlns="http://www.w3.org/2000/svg">
<g clip-path="url(#clip0_516_5706)">
<g style="mix-blend-mode:multiply" opacity="0.1">
<path d="M26.5501 63.4C30.8101 62.26 107.3 81.61 111.57 82.76L195.64 105.29C199.9 106.43 199.9 108.3 195.64 109.45L170.46 116.2C166.2 117.34 159.17 117.53 154.85 116.61C115.98 107.16 15.2301 79.46 2.62008 74.58C-2.82992 72.47 1.25008 70.08 5.51008 68.94L26.5401 63.4H26.5501Z" fill="#14192E"/>
</g>
<g style="mix-blend-mode:multiply" opacity="0.4">
<path d="M32.0301 65.21C36.2901 64.07 43.2701 64.24 47.5401 65.38L194.71 105.15C198.97 106.29 198.97 108.16 194.71 109.31L175.87 114.35C171.61 115.49 167.06 115.76 164.58 115.59C162.75 115.47 81.2701 93.45 37.7901 81.37C22.5601 77.14 10.6801 73.45 10.3301 73.21C8.96008 72.28 8.45008 70.89 12.7101 69.74L32.0301 65.2V65.21Z" fill="#14192E"/>
</g>
<path d="M150.3 93.94C151.79 99.52 149.7 104.92 145.61 106.02C141.53 107.11 137.01 103.48 135.51 97.9C134.02 92.32 136.11 86.92 140.2 85.82C144.28 84.73 148.8 88.36 150.3 93.94Z" fill="#14192E"/>
<path d="M140.208 85.8237L134.18 87.4387L139.592 107.636L145.62 106.021L140.208 85.8237Z" fill="#14192E"/>
<path d="M62.0002 70.3399C63.4902 75.9199 61.4002 81.3199 57.3102 82.4199C53.2302 83.5099 48.7102 79.8799 47.2102 74.2999C45.7202 68.7199 47.8102 63.3199 51.9002 62.2199C55.9802 61.1299 60.5002 64.7599 62.0002 70.3399Z" fill="#14192E"/>
<path d="M51.9058 62.2219L45.8784 63.8369L51.2903 84.0344L57.3177 82.4194L51.9058 62.2219Z" fill="#14192E"/>
<path d="M39.83 74.9499L56.28 74.6899L120.74 90.8999L128.04 101.44L144.63 97.7599L143.02 83.8799L34.46 54.6599L35.16 67.2199L39.83 74.9499Z" fill="#14192E"/>
<path d="M12.52 53.4199C12.61 47.4799 12 9.77993 13.95 9.13993C18.47 7.54993 47.59 -0.580074 49.91 0.0299263C52.23 0.649926 172.31 32.8399 191.73 38.0399C197.45 39.5699 205.78 41.6999 206.35 45.8999C206.85 49.5399 211.36 89.4999 211.39 90.0499C211.79 96.9399 209.92 101.92 207.39 103.14C202.76 105.37 184.01 109.94 176.18 111.52C172.47 112.01 169.03 112.38 166.25 111.67C157.84 109.51 147.04 106.52 147.04 106.52C147.22 103.7 147.23 98.5599 146.62 95.5099C145.22 88.4899 139.35 83.7899 134.5 84.5899C129.88 85.3499 126.51 91.4399 128.04 101.43L59.04 82.9399C59.04 82.9399 58.8 74.4599 57.94 71.0299C56.22 64.0999 50.42 59.8399 45.71 61.1099C41.27 62.2999 39.07 68.9999 39.83 74.9399C31.08 71.3699 15.95 66.4599 13.5 63.5899C12.61 62.5499 12.43 58.7999 12.51 53.4099L12.52 53.4199Z" fill="#D6D7D8"/>
<path opacity="0.1" d="M57.49 65.73L129 84.87V84.02C129 83.72 128.8 83.46 128.51 83.39L58.31 64.6C57.89 64.49 57.48 64.8 57.48 65.23V65.73H57.49Z" fill="#010101"/>
<path opacity="0.75" d="M57.99 67.2L128.19 85.99C128.61 86.1 129.02 85.79 129.02 85.36V84.86L57.51 65.72V66.57C57.51 66.87 57.71 67.13 58 67.2H57.99Z" fill="white"/>
<path opacity="0.1" d="M13.4602 53.8598L41.1502 61.2398V60.4598C41.1502 60.1198 40.9202 59.8298 40.5902 59.7398L14.4202 52.7598C13.9302 52.6298 13.4502 52.9998 13.4502 53.5098V53.8598H13.4602Z" fill="#010101"/>
<path opacity="0.75" d="M14.0502 55.3498L40.2502 62.3298C40.7102 62.4498 41.1702 62.0998 41.1702 61.6198V61.2198L13.4702 53.8398V54.5998C13.4702 54.9498 13.7102 55.2598 14.0502 55.3498Z" fill="white"/>
<mask id="mask0_516_5706" style="mask-type:luminance" maskUnits="userSpaceOnUse" x="12" y="-1" width="200" height="114">
<path d="M12.5202 53.4199C12.6102 48.2499 12.0002 9.77993 13.9502 9.13993C18.4702 7.54993 47.5902 -0.580074 49.9102 0.0299263C52.2302 0.649926 172.31 32.8399 191.73 38.0399C197.45 39.5699 205.78 41.6999 206.35 45.8999C206.85 49.5399 211.36 89.4999 211.39 90.0499C211.79 96.9399 209.92 101.92 207.39 103.14C202.76 105.37 184.01 109.94 176.18 111.52C172.47 112.01 169.03 112.38 166.25 111.67C157.84 109.51 147.04 106.52 147.04 106.52C147.22 103.7 147.23 98.5599 146.62 95.5099C145.22 88.4899 139.35 83.7899 134.5 84.5899C129.88 85.3499 126.51 91.4399 128.04 101.43L59.0402 82.9399C59.0402 82.9399 58.8002 74.4599 57.9402 71.0299C56.2202 64.0999 50.4202 59.8399 45.7102 61.1099C41.2702 62.2999 39.0702 68.9999 39.8302 74.9399C31.0802 71.3699 15.9502 66.4599 13.5002 63.5899C12.6102 62.5499 12.4202 58.7999 12.5102 53.4099L12.5202 53.4199Z" fill="white"/>
</mask>
<g mask="url(#mask0_516_5706)">
<path opacity="0.1" d="M172.71 112.6C174.48 109.38 174.74 104.36 174.43 100.72C174.38 100.18 169.89 60.2099 169.39 56.5699C168.81 52.3699 160.48 50.2399 154.77 48.7099C135.35 43.5099 14.1502 10.9999 11.8302 10.3899L3.67017 60.3999L16.3202 76.8199L165.78 115.76L172.71 112.6Z" fill="#010101"/>
</g>
<path d="M208.96 53.0698L205.28 54.0598C204.82 54.1798 204.5 54.5998 204.5 55.0698V64.2598C204.5 64.7898 204.88 65.2498 205.4 65.3498L206.13 65.4898C206.32 65.5298 206.52 65.5198 206.71 65.4698L209.98 64.6098C210.63 64.4398 211.09 63.8498 211.09 63.1698V54.9298C211.09 54.3298 210.82 53.7598 210.36 53.3698C209.97 53.0398 209.45 52.9298 208.96 53.0598V53.0698Z" fill="#303A66"/>
<mask id="mask1_516_5706" style="mask-type:luminance" maskUnits="userSpaceOnUse" x="204" y="53" width="8" height="13">
<path d="M208.96 53.0698L205.28 54.0598C204.82 54.1798 204.5 54.5998 204.5 55.0698V64.2598C204.5 64.7898 204.88 65.2498 205.4 65.3498L206.13 65.4898C206.32 65.5298 206.52 65.5198 206.71 65.4698L209.98 64.6098C210.63 64.4398 211.09 63.8498 211.09 63.1698V54.9298C211.09 54.3298 210.82 53.7598 210.36 53.3698C209.97 53.0398 209.45 52.9298 208.96 53.0598V53.0698Z" fill="white"/>
</mask>
<g mask="url(#mask1_516_5706)">
<path opacity="0.1" d="M204.82 65.9798H206.03V55.4098L204.82 54.8198V65.9798Z" fill="#010101"/>
</g>
<path d="M171.96 90.06L22.5501 50.03C21.3201 49.7 20.4101 48.64 20.2801 47.37L16.8801 14.97L163.92 54.38C166.51 55.07 168.41 57.3 168.68 59.96L171.95 90.05L171.96 90.06Z" fill="#191E39"/>
<path d="M204.67 46.37L172.77 55.05C172.06 55.24 171.59 55.93 171.68 56.66L175.91 93.96C176.01 94.87 176.9 95.47 177.79 95.24L209.74 86.62C210.45 86.43 210.92 85.74 210.84 85L206.56 47.64C206.46 46.73 205.56 46.13 204.68 46.37H204.67Z" fill="#191E39"/>
<path d="M168.89 61.3298L172.29 92.9298C172.44 94.3598 171.1 95.4798 169.72 95.0798L167.26 94.3698L167.37 62.0798L168.88 61.3398L168.89 61.3298Z" fill="#191E39"/>
<path d="M144.43 95.5198C145.92 101.1 143.83 106.5 139.74 107.6C135.66 108.69 131.14 105.06 129.64 99.4798C128.15 93.8998 130.24 88.4998 134.33 87.3998C138.41 86.3098 142.93 89.9398 144.43 95.5198Z" fill="#303A66"/>
<path d="M138.966 104.666C141.862 103.89 143.351 100.052 142.29 96.0937C141.23 92.1354 138.022 89.5557 135.125 90.3319C132.228 91.1081 130.74 94.9462 131.8 98.9045C132.861 102.863 136.069 105.442 138.966 104.666Z" fill="#E9EAEB"/>
<path d="M140.26 96.6297C140.9 98.9997 140 101.3 138.27 101.76C136.53 102.23 134.61 100.68 133.98 98.3097C133.34 95.9397 134.24 93.6397 135.97 93.1797C137.71 92.7097 139.63 94.2597 140.26 96.6297Z" fill="#445A6D"/>
<path d="M138.25 97.1699C138.49 98.0799 138.15 98.9599 137.48 99.1399C136.81 99.3199 136.08 98.7299 135.83 97.8099C135.59 96.8999 135.93 96.0199 136.6 95.8399C137.27 95.6599 138 96.2499 138.25 97.1699Z" fill="#5E6F82"/>
<path d="M136.5 92.6098L137.55 92.8898C137.96 92.9998 138.29 92.7298 138.29 92.2998V92.1298C138.29 91.6998 137.96 91.2498 137.55 91.1398L136.5 90.8598C136.09 90.7498 135.76 91.0198 135.76 91.4498V91.6198C135.76 92.0498 136.09 92.4998 136.5 92.6098Z" fill="#191E39"/>
<path d="M136.5 103.8L137.55 104.08C137.96 104.19 138.29 103.92 138.29 103.49V103.32C138.29 102.89 137.96 102.44 137.55 102.33L136.5 102.05C136.09 101.94 135.76 102.21 135.76 102.64V102.81C135.76 103.24 136.09 103.69 136.5 103.8Z" fill="#191E39"/>
<path d="M140.86 97.6999V99.2899C140.86 99.7099 141.18 100.14 141.57 100.24C141.96 100.34 142.28 100.09 142.28 99.6699V98.0799C142.28 97.6599 141.96 97.2299 141.57 97.1299C141.18 97.0299 140.86 97.2799 140.86 97.6999Z" fill="#191E39"/>
<path d="M131.77 95.2597V96.8497C131.77 97.2697 132.09 97.6997 132.48 97.7997C132.87 97.8997 133.19 97.6497 133.19 97.2297V95.6397C133.19 95.2197 132.87 94.7897 132.48 94.6897C132.09 94.5897 131.77 94.8397 131.77 95.2597Z" fill="#191E39"/>
<path d="M140.14 101.14L139.32 101.93C139.05 102.19 139.05 102.73 139.32 103.13L139.35 103.18C139.62 103.58 140.06 103.7 140.32 103.44L141.14 102.65C141.41 102.39 141.41 101.85 141.14 101.45L141.11 101.4C140.84 101 140.4 100.88 140.14 101.14Z" fill="#191E39"/>
<path d="M133.72 91.4998L132.9 92.2898C132.63 92.5498 132.63 93.0898 132.9 93.4898L132.93 93.5398C133.2 93.9398 133.64 94.0598 133.9 93.7998L134.72 93.0098C134.99 92.7498 134.99 92.2098 134.72 91.8098L134.69 91.7598C134.42 91.3598 133.98 91.2398 133.72 91.4998Z" fill="#191E39"/>
<path d="M134.72 100.7L133.9 99.4798C133.63 99.0798 133.19 98.9598 132.93 99.2198L132.9 99.2498C132.63 99.5098 132.63 100.05 132.9 100.45L133.72 101.67C133.99 102.07 134.43 102.19 134.69 101.93L134.72 101.9C134.99 101.64 134.99 101.1 134.72 100.7Z" fill="#191E39"/>
<path d="M141.15 94.4998L140.33 93.2798C140.06 92.8798 139.62 92.7598 139.36 93.0198L139.33 93.0498C139.06 93.3098 139.06 93.8498 139.33 94.2498L140.15 95.4698C140.42 95.8698 140.86 95.9898 141.12 95.7298L141.15 95.6998C141.42 95.4398 141.42 94.8998 141.15 94.4998Z" fill="#191E39"/>
<path d="M210.26 91.43L177.76 100.18C177.23 100.32 176.87 100.8 176.87 101.35V101.75C176.87 103.43 178.47 104.64 180.09 104.2L209.28 96.32C210.5 95.99 211.35 94.9 211.38 93.64L211.41 92.33C211.42 91.72 210.85 91.27 210.26 91.43Z" fill="#9FA8B6"/>
<path opacity="0.1" d="M183.27 109.44C182.7 109.3 183.45 107.91 183.69 107.42C185.74 103.31 197.92 100.69 201.57 99.71C204.85 98.83 206.38 100.15 206.72 101.02C206.85 101.36 207.24 102.73 206.83 103.1C205.87 103.95 199.91 105.48 196.87 106.36C193.58 107.32 183.92 109.6 183.26 109.44H183.27Z" fill="#010101"/>
<path opacity="0.1" d="M204.01 97.75L186.34 102.52L184.65 98.32L204.5 92.98L204.01 97.75Z" fill="#010101"/>
<path d="M195.47 97.22C195.37 97.81 195.68 98.36 196.16 98.45C196.64 98.53 197.12 98.12 197.22 97.52C197.32 96.93 197.01 96.38 196.53 96.29C196.05 96.21 195.57 96.62 195.47 97.22Z" fill="#E9EAEB"/>
<path d="M178.3 101.95C178.25 102.55 178.61 103.07 179.1 103.11C179.59 103.15 180.03 102.69 180.07 102.09C180.12 101.49 179.76 100.97 179.27 100.93C178.78 100.89 178.34 101.35 178.3 101.95Z" fill="#EE905A"/>
<path opacity="0.1" d="M180.59 101.33C180.54 101.93 180.9 102.45 181.39 102.49C181.88 102.53 182.32 102.07 182.36 101.47C182.41 100.87 182.05 100.35 181.56 100.31C181.07 100.27 180.63 100.73 180.59 101.33Z" fill="#010101"/>
<path opacity="0.1" d="M182.87 100.71C182.82 101.31 183.18 101.83 183.67 101.87C184.16 101.91 184.6 101.45 184.64 100.85C184.69 100.25 184.33 99.7299 183.84 99.6899C183.35 99.6499 182.91 100.11 182.87 100.71Z" fill="#010101"/>
<path opacity="0.1" d="M204.54 94.9199C204.49 95.5199 204.85 96.0399 205.34 96.0799C205.83 96.1199 206.27 95.6599 206.31 95.0599C206.36 94.4599 206 93.9399 205.51 93.8999C205.02 93.8599 204.58 94.3199 204.54 94.9199Z" fill="#010101"/>
<path opacity="0.1" d="M206.82 94.2998C206.77 94.8998 207.13 95.4198 207.62 95.4598C208.11 95.4998 208.55 95.0398 208.59 94.4398C208.64 93.8398 208.28 93.3198 207.79 93.2798C207.3 93.2398 206.86 93.6998 206.82 94.2998Z" fill="#010101"/>
<path d="M209.11 93.6799C209.06 94.2799 209.42 94.7999 209.91 94.8399C210.4 94.8799 210.84 94.4199 210.88 93.8199C210.93 93.2199 210.57 92.6999 210.08 92.6599C209.59 92.6199 209.15 93.0799 209.11 93.6799Z" fill="#EE905A"/>
<g opacity="0.1">
<path d="M151.69 31.6099L153.29 31.1899L116.8 21.4099L115.2 21.8399L151.69 31.6099Z" fill="#010101"/>
<path d="M147.11 32.8399L148.72 32.4099L112.22 22.6299L110.62 23.0599L147.11 32.8399Z" fill="#010101"/>
<path d="M142.54 34.0699L144.14 33.6399L107.65 23.8599L106.05 24.2899L142.54 34.0699Z" fill="#010101"/>
<path d="M137.96 35.2898L139.57 34.8598L103.07 25.0798L101.47 25.5098L137.96 35.2898Z" fill="#010101"/>
<path d="M133.39 36.5198L134.99 36.0898L98.5001 26.3098L96.9001 26.7398L133.39 36.5198Z" fill="#010101"/>
</g>
<g opacity="0.1">
<path d="M100.38 17.8699L101.98 17.4399L65.4901 7.65991L63.8801 8.08991L100.38 17.8699Z" fill="#010101"/>
<path d="M95.8001 19.0999L97.4001 18.6699L60.9101 8.88989L59.3101 9.31989L95.8001 19.0999Z" fill="#010101"/>
<path d="M91.23 20.3199L92.83 19.8899L56.34 10.1099L54.73 10.5399L91.23 20.3199Z" fill="#010101"/>
<path d="M86.6502 21.5498L88.2602 21.1198L51.7602 11.3398L50.1602 11.7698L86.6502 21.5498Z" fill="#010101"/>
<path d="M82.0801 22.7698L83.6801 22.3398L47.1901 12.5698L45.5901 12.9998L82.0801 22.7698Z" fill="#010101"/>
</g>
<path d="M168.89 61.33L18.3601 21.03L18.5601 23.01L169.12 63.75L168.89 61.33Z" fill="#303A66"/>
<path d="M152.9 81.8199L21.24 46.9299L21.3 47.4599C21.4 48.3399 22.02 49.0699 22.88 49.2999L153.13 84.2399L152.9 81.8199Z" fill="#303A66"/>
<path d="M73.2603 84.2201L82.8402 86.7901V39.4301L73.2603 36.8601V84.2201Z" fill="#303A66"/>
<path d="M74.8401 82.7901L81.2601 84.5101V40.8501L74.8401 39.1301V82.7901Z" fill="#191E39"/>
<path d="M63.6902 81.65L73.2602 84.22V36.86L63.6902 34.29V81.65Z" fill="#303A66"/>
<path d="M65.2703 80.2301L71.6803 81.9501V38.2901L65.2703 36.5701V80.2301Z" fill="#191E39"/>
<path d="M69.8601 71.5501L71.1401 71.8901V65.9901L69.8601 65.6501V71.5501Z" fill="#303A66"/>
<path d="M75.3901 73.0401L76.6701 73.3901V67.4901L75.3901 67.1501V73.0401Z" fill="#303A66"/>
<path d="M157.8 106.87L167.38 109.44V62.08L157.8 59.51V106.87Z" fill="#303A66"/>
<path d="M159.38 105.44L165.8 107.16V63.5L159.38 61.79V105.44Z" fill="#191E39"/>
<path d="M148.23 104.31L157.8 106.87V59.5099L148.23 56.95V104.31Z" fill="#303A66"/>
<path d="M149.81 102.88L156.22 104.6V60.94L149.81 59.22V102.88Z" fill="#191E39"/>
<path d="M154.34 94.2201L155.62 94.5601V88.6701L154.34 88.3201V94.2201Z" fill="#303A66"/>
<path d="M159.87 95.7201L161.15 96.0601V90.1701L159.87 89.8201V95.7201Z" fill="#303A66"/>
<path d="M133.93 48.2697L131.04 47.4897V76.6297L133.93 77.4097V48.2697Z" fill="#303A66"/>
<path d="M21.2402 17.6498L17.9202 16.8298L21.2502 46.9898C21.3602 48.0098 22.3502 48.7098 23.3502 48.4698L23.9502 48.3298L21.2502 17.6598L21.2402 17.6498Z" fill="#303A66"/>
<path d="M95.1903 37.6299L92.3003 36.8599V65.9999L95.1903 66.7699V37.6299Z" fill="#303A66"/>
<path d="M55.2101 26.8799L52.3201 26.1099V55.2499L55.2101 56.0199V26.8799Z" fill="#303A66"/>
<path d="M96.9502 41.4898L129.65 50.2498V46.0798L96.9502 37.3198V41.4898Z" fill="#303A66"/>
<path d="M13.9399 9.12988C16.2599 9.74988 137.47 42.2499 156.88 47.4499C162.6 48.9799 170.93 51.1099 171.5 55.3099C172 58.9499 176.49 98.9099 176.54 99.4599C176.86 103.1 176.59 108.12 174.82 111.34" stroke="#231F32" stroke-width="0.12" stroke-miterlimit="10"/>
<path d="M127.74 98.8199L58.8401 80.3499" stroke="#231F32" stroke-width="0.12" stroke-miterlimit="10"/>
<path d="M167.38 109.44L147.14 104.01" stroke="#231F32" stroke-width="0.12" stroke-miterlimit="10"/>
<path d="M41.94 64.0699L12.49 56.1799" stroke="#231F32" stroke-width="0.12" stroke-miterlimit="10"/>
<path d="M63.6899 69.8998L56.8999 68.0798" stroke="#231F32" stroke-width="0.12" stroke-miterlimit="10"/>
<path d="M129.99 87.6698L83.02 75.0798" stroke="#231F32" stroke-width="0.12" stroke-miterlimit="10"/>
<path d="M168.89 62.4499L17.5801 21.9099" stroke="#231F32" stroke-width="0.12" stroke-miterlimit="10"/>
<path d="M132.48 45.97V79.46" stroke="#231F32" stroke-width="0.12" stroke-miterlimit="10"/>
<path d="M93.74 35.5698V89.7098" stroke="#231F32" stroke-width="0.12" stroke-miterlimit="10"/>
<path d="M53.77 25.0398V58.3898" stroke="#231F32" stroke-width="0.12" stroke-miterlimit="10"/>
<path d="M125.63 85.2999L128.21 85.9899C128.62 86.0999 129.02 85.7899 129.02 85.3699V84.8499L125.63 83.9399V85.2899V85.2999Z" fill="#EE905A"/>
<path d="M84.4102 74.2599L87.8002 75.1699V73.8199L84.4102 72.9099V74.2599Z" fill="#EE905A"/>
<path d="M14.0302 55.3398L16.8402 56.0898V54.7398L13.4502 53.8298V54.5798C13.4502 54.9298 13.6902 55.2398 14.0302 55.3298V55.3398Z" fill="#EE905A"/>
<path d="M92.2901 21.58L98.4301 19.94C99.3101 19.7 100.74 19.7 101.62 19.94L107.76 21.58C108.64 21.82 108.64 22.2 107.76 22.44L101.62 24.08C100.74 24.32 99.3101 24.32 98.4301 24.08L92.2901 22.44C91.4101 22.2 91.4101 21.82 92.2901 21.58Z" fill="#B4BCC5"/>
<path d="M91.6402 22.01L108.43 22.01V21.43L91.6402 21.43V22.01Z" fill="#B4BCC5"/>
<path d="M92.2901 20.9999L98.4301 19.3599C99.3101 19.1199 100.74 19.1199 101.62 19.3599L107.76 20.9999C108.64 21.2399 108.64 21.6199 107.76 21.8599L101.62 23.4999C100.74 23.7399 99.3101 23.7399 98.4301 23.4999L92.2901 21.8599C91.4101 21.6199 91.4101 21.2399 92.2901 20.9999Z" fill="#D0D2D3"/>
<path d="M144.15 34.9699L150.29 33.3299C151.17 33.0899 152.6 33.0899 153.48 33.3299L159.62 34.9699C160.5 35.2099 160.5 35.5899 159.62 35.8299L153.48 37.4699C152.6 37.7099 151.17 37.7099 150.29 37.4699L144.15 35.8299C143.27 35.5899 143.27 35.2099 144.15 34.9699Z" fill="#B4BCC5"/>
<path d="M143.49 35.3999H160.28V34.8199H143.49V35.3999Z" fill="#B4BCC5"/>
<path d="M144.15 34.3898L150.29 32.7498C151.17 32.5098 152.6 32.5098 153.48 32.7498L159.62 34.3898C160.5 34.6298 160.5 35.0098 159.62 35.2498L153.48 36.8898C152.6 37.1298 151.17 37.1298 150.29 36.8898L144.15 35.2498C143.27 35.0098 143.27 34.6298 144.15 34.3898Z" fill="#D0D2D3"/>
<g opacity="0.1">
<path d="M27.2002 62.86L34.4602 64.81V63.97L27.2002 62.03V62.86Z" fill="#010101"/>
<path d="M27.2002 64.1501L34.4602 66.1001V65.2601L27.2002 63.3101V64.1501Z" fill="#010101"/>
<path d="M27.2002 65.4401L34.4602 67.3801V66.5501L27.2002 64.6001V65.4401Z" fill="#010101"/>
<path d="M27.2002 66.7301L34.4602 68.6701V67.8401L27.2002 65.8901V66.7301Z" fill="#010101"/>
<path d="M27.2002 68.0199L34.4602 69.9599V69.1299L27.2002 67.1799V68.0199Z" fill="#010101"/>
</g>
<path d="M173.22 62.15L172.58 56.48L205.48 47.53L206.13 53.2L173.22 62.15Z" fill="#303A66"/>
<path d="M209.32 81.1099L209.85 85.6699L176.9 94.5499L176.38 89.9899L209.32 81.1099Z" fill="#303A66"/>
<path opacity="0.1" d="M204.04 47.5099L173.63 55.7899C172.95 55.9699 172.51 56.6299 172.59 57.3299L208.86 85.8799C209.54 85.6999 209.99 85.0399 209.91 84.3399L205.83 48.7299C205.73 47.8599 204.88 47.2899 204.04 47.5199V47.5099Z" fill="white"/>
<path opacity="0.1" d="M170.84 90.3999L19.5901 17.1699L163 55.6099C165.53 56.2899 167.38 58.4499 167.65 61.0599L170.84 90.4099V90.3999Z" fill="white"/>
<path d="M168.54 63.9099L164.86 64.8999C164.4 65.0199 164.08 65.4399 164.08 65.9099V75.0999C164.08 75.6299 164.46 76.0899 164.98 76.1899L165.71 76.3299C165.9 76.3699 166.1 76.3599 166.29 76.3099L169.56 75.4499C170.21 75.2799 170.67 74.6899 170.67 74.0099V65.7699C170.67 65.1699 170.4 64.5999 169.94 64.2099C169.55 63.8799 169.03 63.7699 168.54 63.8999V63.9099Z" fill="#303A66"/>
<mask id="mask2_516_5706" style="mask-type:luminance" maskUnits="userSpaceOnUse" x="164" y="63" width="7" height="14">
<path d="M168.54 63.9099L164.86 64.8999C164.4 65.0199 164.08 65.4399 164.08 65.9099V75.0999C164.08 75.6299 164.46 76.0899 164.98 76.1899L165.71 76.3299C165.9 76.3699 166.1 76.3599 166.29 76.3099L169.56 75.4499C170.21 75.2799 170.67 74.6899 170.67 74.0099V65.7699C170.67 65.1699 170.4 64.5999 169.94 64.2099C169.55 63.8799 169.03 63.7699 168.54 63.8999V63.9099Z" fill="white"/>
</mask>
<g mask="url(#mask2_516_5706)">
<path opacity="0.1" d="M164.4 76.8299H165.61V66.2599L164.4 65.6699V76.8299Z" fill="#010101"/>
</g>
<path d="M41.0001 7.94012L47.1401 6.30012C48.0201 6.06012 49.4501 6.06012 50.3301 6.30012L56.4701 7.94012C57.3501 8.18012 57.3501 8.56012 56.4701 8.80012L50.3301 10.4401C49.4501 10.6801 48.0201 10.6801 47.1401 10.4401L41.0001 8.80012C40.1201 8.56012 40.1201 8.18012 41.0001 7.94012Z" fill="#B4BCC5"/>
<path d="M40.3301 8.37012L57.1201 8.37012V7.79012L40.3301 7.79012V8.37012Z" fill="#B4BCC5"/>
<path d="M41.0001 7.36004L47.1401 5.72004C48.0201 5.48004 49.4501 5.48004 50.3301 5.72004L56.4701 7.36004C57.3501 7.60004 57.3501 7.98004 56.4701 8.22004L50.3301 9.86004C49.4501 10.1 48.0201 10.1 47.1401 9.86004L41.0001 8.22004C40.1201 7.98004 40.1201 7.60004 41.0001 7.36004Z" fill="#D0D2D3"/>
<path d="M56.1401 71.91C57.6301 77.49 55.5401 82.89 51.4501 83.99C47.3701 85.08 42.8501 81.45 41.3501 75.87C39.8601 70.29 41.9501 64.89 46.0401 63.79C50.1201 62.7 54.6401 66.33 56.1401 71.91Z" fill="#303A66"/>
<path d="M50.6735 81.062C53.5702 80.2858 55.0587 76.4478 53.998 72.4894C52.9374 68.5311 49.7293 65.9515 46.8326 66.7277C43.9359 67.5038 42.4475 71.3419 43.5081 75.3002C44.5687 79.2585 47.7768 81.8382 50.6735 81.062Z" fill="#E9EAEB"/>
<path d="M51.97 73.0299C52.61 75.3999 51.71 77.6999 49.98 78.1599C48.24 78.6299 46.32 77.0799 45.69 74.7099C45.05 72.3399 45.95 70.0399 47.68 69.5799C49.42 69.1099 51.34 70.6599 51.97 73.0299Z" fill="#445A6D"/>
<path d="M49.96 73.5701C50.2 74.4801 49.86 75.3601 49.19 75.5401C48.52 75.7201 47.79 75.1301 47.54 74.2101C47.3 73.3001 47.64 72.4201 48.31 72.2401C48.98 72.0601 49.71 72.6501 49.96 73.5701Z" fill="#5E6F82"/>
<path d="M48.2 68.9999L49.25 69.2799C49.66 69.3899 49.99 69.1199 49.99 68.6899V68.5199C49.99 68.0899 49.66 67.6399 49.25 67.5299L48.2 67.2499C47.79 67.1399 47.46 67.4099 47.46 67.8399V68.0099C47.46 68.4399 47.79 68.8899 48.2 68.9999Z" fill="#191E39"/>
<path d="M48.2 80.1999L49.25 80.4799C49.66 80.5899 49.99 80.3199 49.99 79.8899V79.7199C49.99 79.2899 49.66 78.8399 49.25 78.7299L48.2 78.4499C47.79 78.3399 47.46 78.6099 47.46 79.0399V79.2099C47.46 79.6399 47.79 80.0899 48.2 80.1999Z" fill="#191E39"/>
<path d="M52.5601 74.09V75.68C52.5601 76.1 52.8801 76.53 53.2701 76.63C53.6601 76.73 53.9801 76.48 53.9801 76.06V74.47C53.9801 74.05 53.6601 73.62 53.2701 73.52C52.8801 73.42 52.5601 73.67 52.5601 74.09Z" fill="#191E39"/>
<path d="M43.48 71.6599V73.2499C43.48 73.6699 43.8 74.0999 44.19 74.1999C44.58 74.2999 44.9 74.0499 44.9 73.6299V72.0399C44.9 71.6199 44.58 71.1899 44.19 71.0899C43.8 70.9899 43.48 71.2399 43.48 71.6599Z" fill="#191E39"/>
<path d="M51.8499 77.5401L51.0299 78.3301C50.7599 78.5901 50.7599 79.1301 51.0299 79.5301L51.0599 79.5801C51.3299 79.9801 51.7699 80.1001 52.0299 79.8401L52.8499 79.0501C53.1199 78.7901 53.1199 78.2501 52.8499 77.8501L52.8199 77.8001C52.5499 77.4001 52.1099 77.2801 51.8499 77.5401Z" fill="#191E39"/>
<path d="M45.42 67.8999L44.6 68.6899C44.33 68.9499 44.33 69.4899 44.6 69.8899L44.63 69.9399C44.9 70.3399 45.34 70.4599 45.6 70.1999L46.42 69.4099C46.69 69.1499 46.69 68.6099 46.42 68.2099L46.39 68.1599C46.12 67.7599 45.68 67.6399 45.42 67.8999Z" fill="#191E39"/>
<path d="M46.43 77.0899L45.61 75.8699C45.34 75.4699 44.9 75.3499 44.64 75.6099L44.61 75.6399C44.34 75.8999 44.34 76.4399 44.61 76.8399L45.43 78.0599C45.7 78.4599 46.14 78.5799 46.4 78.3199L46.43 78.2899C46.7 78.0299 46.7 77.4899 46.43 77.0899Z" fill="#191E39"/>
<path d="M52.8499 70.8899L52.0299 69.6699C51.7599 69.2699 51.3199 69.1499 51.0599 69.4099L51.0299 69.4399C50.7599 69.6999 50.7599 70.2399 51.0299 70.6399L51.8499 71.8599C52.1199 72.2599 52.5599 72.3799 52.8199 72.1199L52.8499 72.0899C53.1199 71.8299 53.1199 71.2899 52.8499 70.8899Z" fill="#191E39"/>
<path d="M200.36 103.91L191.79 106.21V102.6L200.36 100.3V103.91Z" fill="#14192E"/>
<path d="M200.9 104.03L192.33 106.33V102.72L200.9 100.42V104.03Z" fill="white"/>
</g>
<defs>
<clipPath id="clip0_516_5706">
<rect width="211.44" height="117.18" fill="white"/>
</clipPath>
</defs>
</svg>
