<svg width="1057" height="884" viewBox="0 0 1057 884" fill="none" xmlns="http://www.w3.org/2000/svg">
<path d="M93.474 2.77971C82.1371 4.89242 79.3584 6.22676 71.2447 13.5656C62.0196 22.0164 56.4623 25.1299 46.9037 27.2426C32.677 30.4673 27.7866 35.9158 26.8974 49.3704C26.3417 58.9332 28.6757 68.3847 32.4547 71.943C33.8996 73.2773 37.0117 75.2788 39.4569 76.3908C43.5693 78.1699 49.4601 78.3923 112.369 78.7259C158.05 78.9483 183.058 78.7259 187.392 77.9475C196.618 76.1684 201.286 73.3885 204.509 67.7176C206.954 63.4922 207.288 61.4907 207.288 52.8175C207.288 36.4718 202.842 30.8008 187.281 27.2426C177.389 24.9075 171.387 21.6829 161.94 13.3432C153.826 6.22676 149.158 4.22525 135.043 2.22374C124.373 0.778207 103.366 1.00059 93.474 2.77971Z" fill="#27519B"/>
<path d="M251.857 2.33514C241.965 3.78067 237.742 6.33816 234.518 12.7875C231.74 18.236 231.74 18.792 231.406 51.2609L230.962 84.1746L157.494 84.8418C117.148 85.2866 70.2444 85.6202 53.3502 85.6202C18.8949 85.6202 13.8933 86.3985 7.11337 92.6255C3.77898 95.7389 3.11211 97.1845 2.11179 103.967C0.555744 114.976 0.444598 139.772 2.00064 145.221C5.44618 157.341 12.1149 162.234 30.4541 165.903C38.2343 167.46 622.085 168.238 855.825 167.015C1003.43 166.237 1039.44 165.681 1042.88 164.569C1048.78 162.456 1053.22 157.007 1054.67 150.113C1055.33 147 1055.89 135.769 1055.89 125.206C1055.89 102.967 1054.67 96.9621 1048.89 91.4023C1041.55 84.2858 1045.11 84.5082 929.738 84.5082H824.927L824.371 53.04C823.815 17.9024 822.926 12.4539 816.924 7.33891C809.811 1.44558 825.26 1.66797 531.834 1.55677C381.454 1.44558 255.525 1.77916 251.857 2.33514Z" fill="#27519B"/>
<path d="M918.623 2.77994C905.063 5.22623 901.618 6.67177 893.838 13.677C885.057 21.3495 878.833 24.7965 868.719 27.354C855.937 30.5787 850.935 35.3601 849.157 46.2572C846.712 61.4909 851.935 73.0552 863.05 76.8358C869.163 78.9485 1008.54 79.1709 1015.32 77.0582C1020.66 75.3902 1026.21 69.9417 1027.99 64.6043C1029.66 59.3782 1029.55 44.0333 1027.66 39.6967C1026.88 37.6952 1024.77 34.8041 1022.99 33.2474C1019.88 30.4675 1010.76 26.6869 1007.1 26.6869C1003.09 26.6869 993.758 21.0159 986.311 14.233C977.753 6.44937 973.196 4.33667 960.303 2.22397C950.522 0.778435 928.182 1.00082 918.623 2.77994Z" fill="#27519B"/>
<path d="M25.008 180.136C11.1147 181.693 5.44626 185.584 2.33417 195.926C0.778122 201.263 0.555829 225.948 0.222391 448.672C9.84289e-05 605.901 0.333537 700.306 1.00041 708.646C2.77875 728.883 6.33543 733.776 21.6736 736.111C34.0108 738.001 1035.1 737.112 1040.55 735.221C1046.33 733.22 1050.89 729.105 1053.22 723.657C1055.22 719.098 1055.33 709.646 1055.67 463.683C1055.89 302.006 1055.56 205.933 1054.89 201.485C1052.67 186.808 1047.22 181.915 1031.21 180.136C1020.54 178.913 35.5669 178.913 25.008 180.136ZM601.079 257.194C601.412 258.973 580.072 322.91 552.285 403.527C545.617 422.763 540.17 438.664 540.17 438.887C540.17 439.109 562.622 439.22 590.075 439.22C633.978 439.22 640.202 439.443 641.758 440.999C642.758 441.889 643.536 443.001 643.536 443.334C643.536 444.446 637.757 451.229 582.295 515.945C492.266 621.135 462.257 655.494 460.368 655.939C459.478 656.162 458.033 655.494 457.255 654.382C456.144 652.826 456.922 649.601 461.812 635.146C468.926 614.13 506.16 507.716 511.717 492.149C513.94 486.144 515.718 480.807 515.718 480.251C515.718 479.695 492.822 479.139 464.925 479.028L414.02 478.694L413.686 476.248C413.242 473.357 416.02 469.91 519.053 346.372C600.189 248.966 595.41 254.414 598.3 254.859C599.634 255.081 600.856 256.082 601.079 257.194ZM168.275 358.493C173.61 360.717 180.168 366.832 182.391 371.947C184.169 375.839 184.503 379.62 184.503 402.192V428.101H209.066C224.515 428.101 235.297 428.545 237.964 429.435C243.744 431.103 250.968 437.552 253.524 443.001C256.192 449.005 256.192 459.458 253.524 465.462C251.079 470.911 243.299 477.805 237.964 479.25C235.741 479.806 222.848 480.362 209.288 480.362H184.503V506.16C184.503 535.515 183.947 537.739 175.944 544.967C170.276 550.082 164.83 551.861 156.716 551.305C148.158 550.638 140.711 546.19 136.154 538.851L132.82 533.402L132.486 506.938L132.153 480.474L105.7 480.14L79.2473 479.806L73.8012 476.47C70.4668 474.358 67.1324 471.022 65.0206 467.686C62.1308 462.905 61.6862 461.126 61.6862 454.232C61.6862 447.337 62.1308 445.558 65.0206 440.777C67.1324 437.441 70.4668 434.105 73.8012 431.993L79.2473 428.657L105.811 428.323L132.264 427.989V403.304C132.375 376.84 132.931 373.504 138.266 366.499C144.379 358.493 158.939 354.601 168.275 358.493ZM967.527 430.769C977.308 435.328 982.532 443.446 982.532 454.454C982.532 465.573 975.085 476.026 964.86 479.028C961.859 480.029 939.074 480.362 884.612 480.362H808.588L803.031 477.694C796.362 474.58 793.361 471.467 790.36 464.795C786.248 455.677 788.249 443.446 795.029 435.996C796.362 434.55 800.03 432.215 803.031 430.769L808.588 428.101H885.279H961.97L967.527 430.769Z" fill="#C20E1A"/>
<path d="M20.0064 751.567C12.0039 754.013 5.77971 759.462 2.88991 766.356C1.33386 769.914 1.11157 777.475 1.11157 817.283C1.11157 862.539 1.22272 864.207 3.44564 868.989C6.002 874.437 10.6701 878.885 16.672 881.665C20.2287 883.333 65.4652 883.444 528.5 883.444H1036.44L1041.88 880.775C1047.78 877.773 1053 871.546 1054.89 865.208C1055.56 862.651 1055.89 844.748 1055.67 814.281L1055.33 767.468L1052 762.575C1048.11 757.127 1042.88 753.346 1037.11 751.678C1032.33 750.344 24.3411 750.233 20.0064 751.567ZM758.35 755.014C760.462 756.793 762.463 758.35 762.907 758.35C763.241 758.35 764.241 756.793 765.242 755.014C766.909 751.9 770.243 750.344 770.243 752.79C770.243 755.347 766.909 761.797 764.241 764.465C760.573 768.135 757.795 768.024 753.015 763.798L749.125 760.351L747.236 763.798C745.124 767.468 742.457 768.357 742.457 765.577C742.457 762.686 746.68 755.236 749.348 753.457C752.793 751.011 754.016 751.233 758.35 755.014ZM115.148 778.031C114.814 779.143 113.814 782.924 112.813 786.371L111.035 792.82H85.0269H59.1299L57.9073 796.378C57.3515 798.38 54.2394 809.833 51.1274 821.731C48.0153 833.629 45.2366 844.303 44.9032 845.304C44.3474 847.083 45.2366 847.306 51.6831 847.306C55.6843 847.306 60.019 846.75 61.3528 846.083C66.1321 843.525 69.6888 829.626 66.4655 826.401C65.6875 825.623 62.4643 825.067 59.3522 825.067C56.1289 825.067 53.2391 824.622 52.9057 824.177C52.0165 822.732 55.5732 810.278 57.2404 808.499C58.5741 807.164 61.2417 807.053 73.0231 807.943C89.1393 809.166 94.4744 811.056 98.6979 817.394C101.032 820.73 101.254 822.064 100.81 830.071C100.254 840.634 96.9196 849.085 90.4731 856.201C82.5817 864.875 81.9148 865.097 43.0137 865.097C16.0052 865.097 8.66951 864.763 8.22493 863.651C7.78034 862.428 29.3427 779.254 30.7876 776.919C31.0099 776.475 50.2382 776.141 73.4677 776.141C113.258 776.141 115.703 776.252 115.148 778.031ZM212.289 778.254C214.068 781.701 243.41 860.872 243.41 862.428C243.41 864.652 240.409 865.097 222.848 865.097C210.622 865.097 205.621 864.763 204.843 863.651C204.176 862.984 199.285 850.642 193.839 836.52C188.393 822.287 183.614 810.723 183.28 810.945C182.836 811.056 175.278 819.173 166.386 828.959L150.27 846.75L169.276 847.306C185.17 847.751 188.393 848.195 188.726 849.53C188.837 850.53 188.059 854.2 186.948 857.869L184.947 864.541L154.493 864.875C137.043 864.986 123.595 864.652 123.039 864.096C122.483 863.54 122.483 862.317 123.039 861.205C123.595 860.204 141.267 840.634 162.274 817.728L200.397 776.141H205.732C209.844 776.141 211.4 776.586 212.289 778.254ZM335.995 780.144C335.773 782.145 335.106 785.593 334.328 787.928L332.883 792.264L321.213 792.82L309.542 793.376L300.206 828.403C295.093 847.639 290.425 863.763 289.647 864.207C288.98 864.652 281.978 865.097 274.198 865.097C262.639 865.097 259.86 864.763 259.415 863.429C258.971 862.539 262.75 846.527 267.751 827.958C272.753 809.388 276.754 793.932 276.754 793.487C276.754 793.154 271.975 792.82 266.084 792.82H255.303L256.081 788.595C256.414 786.371 257.303 782.59 257.859 780.255L259.082 776.141L297.65 776.363L336.217 776.697L335.995 780.144ZM431.025 778.031C431.692 779.143 438.916 798.491 447.252 820.953C459.367 853.533 462.257 862.317 461.146 863.54C459.367 865.653 425.468 865.875 423.689 863.651C423.134 862.984 418.243 851.086 412.908 837.298C407.573 823.51 402.905 811.946 402.46 811.501C402.016 810.945 394.347 818.729 385.455 828.736L369.228 846.75L388.011 847.083C401.682 847.306 407.017 847.751 407.351 848.751C407.684 849.418 407.017 853.31 405.906 857.313L404.016 864.541H372.896C345.998 864.541 341.775 864.319 341.441 862.873C341.33 861.872 358.113 842.636 380.231 818.617L419.243 776.141H424.578C428.691 776.141 430.358 776.586 431.025 778.031ZM570.402 778.365C574.626 781.701 576.071 786.26 575.515 794.822C574.626 806.608 567.512 818.506 558.732 822.732C554.508 824.844 551.841 825.067 535.947 825.067C515.496 825.067 516.608 825.734 519.164 815.282C521.053 807.832 521.72 807.276 529.056 807.276C537.17 807.276 538.726 806.72 540.726 802.717C544.616 795.378 542.06 792.82 530.834 792.82H523.61L522.498 796.934C521.831 799.269 517.83 814.392 513.495 830.626C509.272 846.861 505.271 861.205 504.604 862.539C503.603 864.986 503.048 865.097 488.599 865.097C480.04 865.097 473.372 864.652 472.927 863.985C472.482 863.207 492.6 784.369 495.156 777.475C495.49 776.475 503.826 776.141 531.612 776.141C565.734 776.141 567.846 776.252 570.402 778.365ZM676.88 778.587C676.88 780.033 676.213 783.591 675.435 786.704L673.991 792.264L653.651 792.82L633.311 793.376L630.755 796.601C627.087 801.271 617.973 832.183 617.973 840.189C617.973 847.528 617.417 847.306 637.979 847.306C650.428 847.306 656.985 847.751 657.541 848.529C658.541 850.197 655.763 862.539 654.095 863.985C653.095 864.763 643.092 865.097 624.308 864.875C597.633 864.541 595.744 864.43 592.743 862.206C575.515 849.641 588.741 793.932 612.416 779.699L618.417 776.141H647.649H676.88V778.587ZM740.234 778.476C740.234 779.699 737.455 791.041 734.121 803.606C730.786 816.282 728.119 826.735 728.341 826.957C728.563 827.179 736.343 815.838 745.569 801.716L762.352 776.141H777.468C788.582 776.141 792.695 776.475 793.028 777.586C793.361 778.365 788.471 798.158 782.247 821.731L770.799 864.541L755.461 864.875C743.012 865.097 740.122 864.875 739.567 863.54C739.011 862.206 744.457 839.633 751.348 814.614C752.571 810.389 753.238 807.276 752.904 807.609C752.571 807.943 744.346 820.953 734.676 836.409L717.115 864.541L702.444 864.875C694.219 864.986 687.217 864.763 686.661 864.207C685.883 863.429 705.334 786.26 708.557 777.475C708.89 776.475 713.225 776.141 724.673 776.141C739.678 776.141 740.234 776.252 740.234 778.476ZM858.049 778.254C858.049 780.7 837.487 858.759 835.819 862.539C834.819 864.986 834.263 865.097 819.703 865.097C808.366 865.097 804.476 864.763 804.032 863.651C803.587 862.428 825.149 779.254 826.594 776.919C826.816 776.475 834.041 776.141 842.599 776.141C857.048 776.141 858.049 776.252 858.049 778.254ZM916.4 777.253C917.623 779.143 915.289 781.256 896.727 795.266C887.058 802.494 879.166 808.943 879.166 809.499C879.166 810.167 883.723 821.731 889.169 835.408C894.727 848.974 899.062 861.094 898.95 862.317C898.617 864.43 897.728 864.541 882.945 864.875C871.275 865.097 866.94 864.763 866.162 863.763C865.495 862.984 861.383 853.088 856.937 841.746C848.935 821.175 848.935 821.175 850.268 815.615C851.046 812.502 852.269 809.388 852.936 808.499C853.603 807.609 863.384 799.937 874.609 791.486L895.06 776.141H905.397C911.399 776.141 916.067 776.586 916.4 777.253ZM1029.32 818.395C1037.88 841.301 1044.66 861.094 1044.55 862.317C1044.22 864.43 1043.22 864.541 1026.43 864.763C1016.65 864.986 1008.1 864.763 1007.32 864.207C1006.65 863.763 1001.54 851.642 995.981 837.409C990.312 823.065 985.644 811.056 985.422 810.945C985.2 810.723 977.642 818.617 968.528 828.625L952.078 846.75L970.64 847.083C985.756 847.306 989.423 847.639 989.868 848.974C990.646 850.864 988.312 861.65 986.645 863.651C985.867 864.763 978.309 865.097 955.857 865.097C920.29 865.097 920.624 865.208 929.516 855.423C932.739 851.865 949.855 833.184 967.416 813.947C985.089 794.711 1000.32 778.254 1001.32 777.475C1002.32 776.586 1005.32 776.141 1008.43 776.363L1013.76 776.697L1029.32 818.395ZM667.877 808.276C669.211 809.166 669.1 810.389 667.322 816.949L665.099 824.511L644.87 824.844C624.975 825.067 624.642 825.067 624.642 822.843C624.642 819.507 626.976 810.278 628.309 808.61C629.532 807.053 665.321 806.72 667.877 808.276Z" fill="#27519B"/>
</svg>
