<svg width="25" height="37" viewBox="0 0 25 37" fill="none" xmlns="http://www.w3.org/2000/svg">
<g clip-path="url(#clip0_672_710)">
<path d="M12.19 29.62L24.12 36.34L24.39 36.38V0H0V36.38L0.27 36.34L12.19 29.62Z" fill="#DB0D15"/>
<path d="M13.5299 12.19L14.5499 14.43C14.7599 14.9 15.2099 15.22 15.7199 15.28L18.1699 15.56C19.4199 15.7 19.9299 17.25 18.9999 18.11L17.1899 19.78C16.8099 20.13 16.6399 20.65 16.7399 21.16L17.2299 23.57C17.4799 24.81 16.1599 25.76 15.0599 25.14L12.9199 23.93C12.4699 23.68 11.9199 23.68 11.4699 23.93L9.32993 25.14C8.22993 25.76 6.90993 24.8 7.15993 23.57L7.64993 21.16C7.74993 20.65 7.57993 20.13 7.19993 19.78L5.38993 18.11C4.45993 17.26 4.95993 15.71 6.21993 15.56L8.66993 15.28C9.17993 15.22 9.62993 14.9 9.83993 14.43L10.8599 12.19C11.3799 11.04 13.0099 11.04 13.5399 12.19H13.5299Z" fill="#FFED00"/>
<path d="M18.9997 18.11L17.1897 19.78C16.8097 20.13 16.6397 20.65 16.7397 21.16L17.2297 23.57C17.4797 24.81 16.1597 25.76 15.0597 25.14L12.9197 23.93C12.4697 23.68 11.9197 23.68 11.4697 23.93L9.32973 25.14C8.22973 25.76 6.90973 24.8 7.15973 23.57L7.21973 23.27C11.1897 21.44 14.6497 18.52 18.0097 15.55L18.1697 15.57C19.4197 15.71 19.9297 17.26 18.9997 18.12V18.11Z" fill="#FBD700"/>
</g>
<defs>
<clipPath id="clip0_672_710">
<rect width="24.39" height="36.38" fill="white"/>
</clipPath>
</defs>
</svg>
