<?xml version="1.0" encoding="iso-8859-1"?>
<!-- Generator: Adobe Illustrator 16.0.0, SVG Export Plug-In . SVG Version: 6.00 Build 0)  -->
<!DOCTYPE svg PUBLIC "-//W3C//DTD SVG 1.1//EN" "http://www.w3.org/Graphics/SVG/1.1/DTD/svg11.dtd">
<svg version="1.1" id="Capa_1" xmlns="http://www.w3.org/2000/svg" xmlns:xlink="http://www.w3.org/1999/xlink" x="0px" y="0px"
	 width="612px" height="612px" viewBox="0 0 612 612" style="enable-background:new 0 0 612 612;" xml:space="preserve">
<g>
	<g id="Rectangle_33_copy_5">
		<g>
			<path d="M482.538,264.807H459v58.847h-58.846v23.537H459v58.846h23.538v-58.846h58.847v-23.537h-58.847V264.807z
				 M576.692,147.115h-47.077v-47.077c0-19.501-15.806-35.308-35.308-35.308h-70.615c-19.502,0-35.308,15.806-35.308,35.308v47.077
				h-164.77v-47.077c0-19.501-15.806-35.308-35.308-35.308h-70.615c-19.501,0-35.308,15.806-35.308,35.308v47.077H35.308
				C15.806,147.115,0,162.921,0,182.422v329.539c0,19.502,15.806,35.309,35.308,35.309h541.385
				c19.502,0,35.308-15.807,35.308-35.309V182.422C612,162.921,596.194,147.115,576.692,147.115z M411.923,123.577
				c0-19.502,15.807-35.308,35.308-35.308h23.539c19.501,0,35.308,15.806,35.308,35.308v23.538h-94.154V123.577z M105.923,123.577
				c0-19.502,15.806-35.308,35.308-35.308h23.538c19.502,0,35.308,15.806,35.308,35.308v23.538h-94.154V123.577z M588.462,485.904
				c0,20.891-16.489,37.826-36.838,37.826H60.376c-20.337,0-36.837-16.936-36.837-37.826V208.479c0-20.89,16.5-37.826,36.837-37.826
				h491.248c20.349,0,36.838,16.936,36.838,37.826V485.904z M82.385,347.191h141.23v-23.537H82.385V347.191z"/>
		</g>
	</g>
</g>
<g>
</g>
<g>
</g>
<g>
</g>
<g>
</g>
<g>
</g>
<g>
</g>
<g>
</g>
<g>
</g>
<g>
</g>
<g>
</g>
<g>
</g>
<g>
</g>
<g>
</g>
<g>
</g>
<g>
</g>
</svg>
