<svg width="133" height="112" viewBox="0 0 133 112" fill="none" xmlns="http://www.w3.org/2000/svg">
<g clip-path="url(#clip0_634_615)">
<path d="M121.238 0.352277C122.665 0.619951 123.014 0.789007 124.035 1.71882C125.196 2.7895 125.895 3.18398 127.098 3.45165C128.888 3.86021 129.504 4.55051 129.616 6.25517C129.685 7.46675 129.392 8.66422 128.916 9.11505C128.734 9.2841 128.343 9.53768 128.035 9.67857C127.518 9.90398 126.777 9.93215 118.861 9.97442C113.113 10.0026 109.966 9.97442 109.421 9.8758C108.26 9.65039 107.673 9.29819 107.267 8.5797C106.959 8.04436 106.917 7.79077 106.917 6.69191C106.917 4.62096 107.477 3.90246 109.435 3.45165C110.68 3.1558 111.435 2.74725 112.623 1.69064C113.644 0.789007 114.232 0.535422 116.008 0.281837C117.35 0.0986928 119.994 0.126868 121.238 0.352277Z" fill="black" fill-opacity="0.2"/>
<path d="M101.309 0.295896C102.554 0.47904 103.085 0.803066 103.491 1.62018C103.841 2.31049 103.841 2.38093 103.883 6.49464L103.939 10.6647L113.183 10.7492C118.26 10.8056 124.161 10.8478 126.287 10.8478C130.622 10.8478 131.252 10.9465 132.105 11.7354C132.525 12.1299 132.608 12.313 132.734 13.1723C132.93 14.5671 132.944 17.7087 132.748 18.3991C132.315 19.9346 131.476 20.5546 129.168 21.0194C128.189 21.2167 54.7244 21.3153 25.3134 21.1603C6.74059 21.0617 2.20953 20.9913 1.77669 20.8504C1.0343 20.5827 0.475621 19.8923 0.293171 19.0189C0.210125 18.6245 0.139665 17.2015 0.139665 15.8632C0.139665 13.0456 0.293175 12.2848 1.02046 11.5804C1.94404 10.6788 1.49609 10.707 16.0131 10.707H29.2012L29.2712 6.72004C29.3412 2.26822 29.453 1.57791 30.2082 0.929858C31.1032 0.183192 29.1593 0.211368 66.0805 0.197279C85.0025 0.183192 100.848 0.225455 101.309 0.295896Z" fill="black" fill-opacity="0.2"/>
<path d="M17.4117 0.352277C19.1179 0.662214 19.5514 0.84536 20.5303 1.7329C21.6352 2.70498 22.4184 3.14171 23.691 3.46573C25.2993 3.87429 25.9287 4.48008 26.1524 5.86071C26.4601 7.79077 25.8029 9.25593 24.4043 9.73492C23.6351 10.0026 6.09761 10.0308 5.24449 9.7631C4.57257 9.55177 3.87423 8.86146 3.65026 8.18523C3.44013 7.5231 3.45396 5.57895 3.69178 5.02951C3.78992 4.77593 4.05542 4.40964 4.2794 4.21241C4.67072 3.8602 5.81827 3.38121 6.2788 3.38121C6.78337 3.38121 7.9576 2.66272 8.89464 1.80334C9.97147 0.817182 10.5449 0.54951 12.1672 0.281837C13.3979 0.0986926 16.2089 0.126868 17.4117 0.352277Z" fill="black" fill-opacity="0.2"/>
<path d="M129.853 22.8228C131.601 23.02 132.315 23.513 132.706 24.8233C132.902 25.4995 132.93 28.627 132.972 56.8454C133 76.7658 132.958 88.7266 132.874 89.7833C132.65 92.3473 132.203 92.9672 130.273 93.263C128.721 93.5025 2.75563 93.3898 2.06987 93.1503C1.34259 92.8967 0.768826 92.3754 0.475648 91.6851C0.223992 91.1075 0.21014 89.91 0.167359 58.7473C0.139677 38.2633 0.181214 26.0912 0.265519 25.5276C0.544856 23.6681 1.23061 23.0481 3.24512 22.8228C4.5877 22.6678 128.525 22.6678 129.853 22.8228ZM57.3676 32.5858C57.3257 32.8112 60.0108 40.9118 63.5072 51.1257C64.3462 53.5628 65.0316 55.5774 65.0316 55.6057C65.0316 55.6338 62.2065 55.6479 58.7522 55.6479C53.2279 55.6479 52.4448 55.6761 52.249 55.8733C52.1232 55.986 52.0253 56.1269 52.0253 56.1691C52.0253 56.31 52.7524 57.1694 59.7311 65.3687C71.0593 78.6959 74.8352 83.0491 75.0729 83.1055C75.1849 83.1337 75.3667 83.0491 75.4646 82.9082C75.6044 82.7111 75.5065 82.3025 74.8912 80.4711C73.9961 77.8084 69.311 64.3261 68.6118 62.3538C68.3321 61.593 68.1083 60.9168 68.1083 60.8464C68.1083 60.7759 70.9893 60.7055 74.4995 60.6914L80.9048 60.6491L80.9468 60.3392C81.0027 59.9729 80.6531 59.5362 67.6887 43.8843C57.4795 31.5433 58.0809 32.2335 57.7172 32.2899C57.5494 32.318 57.3956 32.4449 57.3676 32.5858ZM111.826 45.42C111.155 45.7018 110.33 46.4765 110.05 47.1246C109.826 47.6177 109.784 48.0967 109.784 50.9565V54.2391H106.694C104.75 54.2391 103.393 54.2954 103.058 54.4081C102.33 54.6195 101.421 55.4365 101.1 56.1269C100.764 56.8876 100.764 58.212 101.1 58.9727C101.407 59.663 102.386 60.5365 103.058 60.7196C103.337 60.79 104.96 60.8604 106.666 60.8604H109.784V64.129C109.784 67.8481 109.854 68.1299 110.861 69.0457C111.575 69.6937 112.26 69.9191 113.281 69.8487C114.358 69.7642 115.295 69.2006 115.868 68.2708L116.288 67.5804L116.33 64.2275L116.371 60.8746L119.7 60.8323L123.028 60.79L123.714 60.3673C124.133 60.0997 124.553 59.6771 124.819 59.2544C125.182 58.6487 125.238 58.4233 125.238 57.5498C125.238 56.6763 125.182 56.4509 124.819 55.8451C124.553 55.4225 124.133 54.9998 123.714 54.7322L123.028 54.3096L119.686 54.2673L116.358 54.2249V51.0974C116.344 47.7445 116.274 47.3219 115.602 46.4344C114.833 45.42 113.001 44.9269 111.826 45.42ZM11.2582 54.5772C10.0275 55.1548 9.37016 56.1833 9.37016 57.578C9.37016 58.9867 10.3072 60.3111 11.5938 60.6914C11.9714 60.8182 14.8384 60.8604 21.6912 60.8604H31.2572L31.9564 60.5224C32.7955 60.1279 33.1731 59.7335 33.5507 58.8881C34.0682 57.7329 33.8164 56.1833 32.9633 55.2394C32.7955 55.0562 32.334 54.7604 31.9564 54.5772L31.2572 54.2391H21.6073H11.9574L11.2582 54.5772Z" fill="#E9EAEB"/>
<path d="M130.483 95.2213C131.49 95.5312 132.273 96.2215 132.636 97.095C132.832 97.5458 132.86 98.5037 132.86 103.547C132.86 109.281 132.846 109.492 132.566 110.098C132.245 110.789 131.657 111.352 130.902 111.704C130.455 111.916 124.763 111.93 66.5 111.93H2.58701L1.9025 111.592C1.16012 111.211 0.503294 110.422 0.26548 109.619C0.181175 109.295 0.139648 107.027 0.167331 103.167L0.210123 97.2359L0.629124 96.6159C1.11859 95.9257 1.77668 95.4467 2.5027 95.2353C3.10416 95.0663 129.937 95.0523 130.483 95.2213ZM37.5785 95.658C37.3127 95.8834 37.0609 96.0806 37.0051 96.0806C36.963 96.0806 36.8372 95.8834 36.7113 95.658C36.5015 95.2635 36.082 95.0663 36.082 95.3762C36.082 95.7002 36.5015 96.5174 36.8372 96.8554C37.2987 97.3204 37.6483 97.3063 38.2497 96.7709L38.7392 96.3342L38.9769 96.7709C39.2427 97.2359 39.5782 97.3485 39.5782 96.9963C39.5782 96.63 39.0469 95.6861 38.7112 95.4607C38.2777 95.1508 38.1238 95.1789 37.5785 95.658ZM118.511 98.5742C118.553 98.7151 118.679 99.1941 118.805 99.6308L119.029 100.448H122.301H125.56L125.714 100.899C125.784 101.152 126.175 102.603 126.567 104.111C126.958 105.618 127.308 106.971 127.35 107.097C127.42 107.323 127.308 107.351 126.497 107.351C125.993 107.351 125.448 107.281 125.28 107.196C124.679 106.872 124.231 105.111 124.637 104.702C124.735 104.604 125.14 104.533 125.532 104.533C125.937 104.533 126.301 104.477 126.343 104.421C126.455 104.238 126.007 102.66 125.798 102.434C125.63 102.265 125.294 102.251 123.812 102.364C121.784 102.519 121.112 102.758 120.581 103.561C120.287 103.984 120.259 104.153 120.315 105.167C120.385 106.506 120.805 107.576 121.616 108.478C122.609 109.577 122.693 109.605 127.588 109.605C130.986 109.605 131.909 109.563 131.965 109.422C132.021 109.267 129.308 98.7291 129.126 98.4333C129.098 98.377 126.679 98.3347 123.756 98.3347C118.749 98.3347 118.441 98.3488 118.511 98.5742ZM106.288 98.6024C106.064 99.0392 102.372 109.07 102.372 109.267C102.372 109.549 102.75 109.605 104.959 109.605C106.498 109.605 107.127 109.563 107.225 109.422C107.309 109.337 107.924 107.774 108.61 105.985C109.295 104.181 109.896 102.716 109.938 102.744C109.994 102.758 110.945 103.787 112.064 105.027L114.092 107.281L111.7 107.351C109.7 107.407 109.295 107.464 109.253 107.633C109.239 107.76 109.337 108.225 109.477 108.689L109.728 109.535L113.56 109.577C115.756 109.591 117.448 109.549 117.518 109.478C117.588 109.408 117.588 109.253 117.518 109.112C117.448 108.985 115.225 106.506 112.581 103.604L107.784 98.3347H107.113C106.596 98.3347 106.4 98.3911 106.288 98.6024ZM90.7225 98.8419C90.7504 99.0954 90.8343 99.5323 90.9322 99.8281L91.114 100.377L92.5824 100.448L94.051 100.518L95.2257 104.956C95.8691 107.393 96.4564 109.436 96.5543 109.492C96.6383 109.549 97.5193 109.605 98.4982 109.605C99.9527 109.605 100.302 109.563 100.358 109.394C100.414 109.281 99.9387 107.252 99.3095 104.9C98.6801 102.547 98.1766 100.589 98.1766 100.532C98.1766 100.49 98.778 100.448 99.5192 100.448H100.876L100.778 99.9126C100.736 99.6308 100.624 99.1518 100.554 98.8559L100.4 98.3347L95.5473 98.3628L90.6945 98.4052L90.7225 98.8419ZM78.765 98.5742C78.6811 98.7151 77.7721 101.166 76.7232 104.012C75.1988 108.14 74.8352 109.253 74.975 109.408C75.1988 109.676 79.4643 109.704 79.6881 109.422C79.758 109.337 80.3734 107.83 81.0447 106.083C81.716 104.336 82.3033 102.871 82.3593 102.815C82.4152 102.744 83.3802 103.73 84.499 104.998L86.5408 107.281L84.1774 107.323C82.4572 107.351 81.7859 107.407 81.7439 107.534C81.702 107.619 81.7859 108.112 81.9257 108.619L82.1635 109.535H86.0793C89.4638 109.535 89.9952 109.507 90.0372 109.323C90.0512 109.197 87.9394 106.759 85.1563 103.716L80.2475 98.3347H79.5763C79.0587 98.3347 78.849 98.3911 78.765 98.5742ZM61.2275 98.6165C60.696 99.0391 60.5142 99.6168 60.5842 100.702C60.696 102.195 61.5912 103.702 62.696 104.238C63.2275 104.505 63.563 104.533 65.5629 104.533C68.1362 104.533 67.9963 104.618 67.6747 103.294C67.437 102.35 67.3531 102.279 66.43 102.279C65.409 102.279 65.2133 102.209 64.9616 101.702C64.4721 100.772 64.7938 100.448 66.2063 100.448H67.1153L67.2552 100.969C67.3391 101.265 67.8426 103.181 68.388 105.238C68.9194 107.295 69.4228 109.112 69.5068 109.281C69.6327 109.591 69.7025 109.605 71.5206 109.605C72.5976 109.605 73.4366 109.549 73.4926 109.464C73.5486 109.366 71.0172 99.3772 70.6956 98.5037C70.6536 98.377 69.6047 98.3347 66.1084 98.3347C61.8149 98.3347 61.5492 98.3488 61.2275 98.6165ZM47.8296 98.6446C47.8296 98.8278 47.9136 99.2786 48.0115 99.673L48.1932 100.377L50.7525 100.448L53.3118 100.518L53.6335 100.927C54.095 101.519 55.2418 105.435 55.2418 106.449C55.2418 107.379 55.3117 107.351 52.7245 107.351C51.158 107.351 50.333 107.407 50.263 107.506C50.1372 107.717 50.4868 109.281 50.6966 109.464C50.8225 109.563 52.0811 109.605 54.4447 109.577C57.8011 109.535 58.0388 109.521 58.4164 109.239C60.5842 107.647 58.92 100.589 55.941 98.7855L55.1859 98.3347H51.5077H47.8296V98.6446ZM39.858 98.6306C39.858 98.7855 40.2076 100.222 40.6271 101.814C41.0468 103.42 41.3824 104.745 41.3544 104.773C41.3265 104.801 40.3476 103.364 39.1867 101.575L37.0749 98.3347H35.1729C33.7744 98.3347 33.2569 98.377 33.215 98.5178C33.1731 98.6165 33.7884 101.124 34.5716 104.111L36.012 109.535L37.942 109.577C39.5084 109.605 39.872 109.577 39.9419 109.408C40.0118 109.239 39.3266 106.379 38.4595 103.209C38.3056 102.674 38.2217 102.279 38.2637 102.322C38.3056 102.364 39.3405 104.012 40.5573 105.97L42.767 109.535L44.613 109.577C45.6479 109.591 46.529 109.563 46.5989 109.492C46.6968 109.394 44.2493 99.6168 43.8438 98.5037C43.8019 98.377 43.2564 98.3347 41.816 98.3347C39.9279 98.3347 39.858 98.3488 39.858 98.6306ZM25.0336 98.6024C25.0336 98.9123 27.6208 108.802 27.8307 109.281C27.9565 109.591 28.0265 109.605 29.8585 109.605C31.2851 109.605 31.7745 109.563 31.8304 109.422C31.8864 109.267 29.1733 98.7291 28.9915 98.4333C28.9635 98.377 28.0544 98.3347 26.9776 98.3347C25.1595 98.3347 25.0336 98.3488 25.0336 98.6024ZM17.6914 98.4756C17.5375 98.7151 17.8312 98.9828 20.1668 100.758C21.3834 101.674 22.3764 102.491 22.3764 102.561C22.3764 102.646 21.803 104.111 21.1178 105.844C20.4184 107.562 19.873 109.098 19.8871 109.253C19.929 109.521 20.0408 109.535 21.9009 109.577C23.3694 109.605 23.9148 109.563 24.0127 109.436C24.0966 109.337 24.614 108.084 25.1735 106.647C26.1803 104.04 26.1803 104.04 26.0126 103.336C25.9147 102.942 25.7608 102.547 25.6769 102.434C25.593 102.322 24.3623 101.35 22.9498 100.279L20.3765 98.3347H19.0759C18.3206 98.3347 17.7333 98.3911 17.6914 98.4756ZM3.48291 103.688C2.40582 106.59 1.55269 109.098 1.56654 109.253C1.60806 109.521 1.73389 109.535 3.84653 109.563C5.07713 109.591 6.15296 109.563 6.25111 109.492C6.33541 109.436 6.97839 107.9 7.67787 106.097C8.39119 104.28 8.97855 102.758 9.00649 102.744C9.03442 102.716 9.98543 103.716 11.1322 104.984L13.2021 107.281L10.8665 107.323C8.96446 107.351 8.50305 107.393 8.44706 107.562C8.34917 107.802 8.64284 109.168 8.8526 109.422C8.95049 109.563 9.9015 109.605 12.7266 109.605C17.2019 109.605 17.1599 109.619 16.041 108.379C15.6355 107.929 13.4818 105.562 11.2721 103.125C9.04839 100.687 7.1319 98.6024 7.00608 98.5037C6.88025 98.3911 6.50277 98.3347 6.11144 98.3628L5.44078 98.4052L3.48291 103.688ZM48.9625 102.406C48.7946 102.519 48.8086 102.674 49.0323 103.505L49.312 104.463L51.8574 104.505C54.3607 104.533 54.4026 104.533 54.4026 104.252C54.4026 103.829 54.109 102.66 53.9412 102.448C53.7873 102.251 49.2841 102.209 48.9625 102.406Z" fill="black" fill-opacity="0.3"/>
</g>
<defs>
<clipPath id="clip0_634_615">
<rect width="133" height="112" fill="white" transform="matrix(-1 0 0 1 133 0)"/>
</clipPath>
</defs>
</svg>
