<svg width="397" height="57" viewBox="0 0 397 57" fill="none" xmlns="http://www.w3.org/2000/svg">
<path d="M395.1 2.21997H1.75V21.06H395.1V2.21997Z" fill="#FFE100"/>
<path d="M395.1 17.9199H1.75V53.5099H395.1V17.9199Z" fill="#DB0D15"/>
<path fill-rule="evenodd" clip-rule="evenodd" d="M288.8 26.1098C281.97 26.1598 278.64 26.0698 277.9 25.9898C277.56 25.9598 275.64 28.1298 272.93 30.5998C270.82 32.3298 269.83 33.2398 267.8 35.1898C266.13 36.7798 264.65 38.4098 262.95 39.8698L268.5 26.0698L257.26 25.9998L248.77 46.1298C254.56 46.1098 258.23 46.0998 260.4 46.1398C260.61 46.1398 261.85 44.7198 264.48 41.9098C268.51 37.8998 269.93 36.3998 274.79 32.0798L269.1 46.1598L280.35 46.0298L288.8 26.1098Z" fill="#164194"/>
<path fill-rule="evenodd" clip-rule="evenodd" d="M288.8 26.1098C281.97 26.1598 278.64 26.0698 277.9 25.9898C277.56 25.9598 275.64 28.1298 272.93 30.5998C270.82 32.3298 269.83 33.2398 267.8 35.1898C266.13 36.7798 264.65 38.4098 262.95 39.8698L268.5 26.0698L257.26 25.9998L248.77 46.1298C254.56 46.1098 258.23 46.0998 260.4 46.1398C260.61 46.1398 261.85 44.7198 264.48 41.9098C268.51 37.8998 269.93 36.3998 274.79 32.0798L269.1 46.1598L280.35 46.0298L288.8 26.1098ZM281.79 25.1898C283.51 25.2098 285.81 25.2098 288.78 25.1898C288.91 25.1898 289.03 25.2098 289.16 25.2598C289.63 25.4598 289.84 25.9898 289.65 26.4598L281.22 46.3598C281.09 46.6898 280.76 46.9298 280.38 46.9398L269.18 47.0698C269.05 47.0798 268.91 47.0598 268.78 47.0098C268.31 46.8198 268.08 46.2898 268.27 45.8198L272.46 35.4398C270.24 37.4798 268.81 38.9098 266.7 41.0098C266.23 41.4798 265.72 41.9898 265.16 42.5398C264.13 43.6398 263.76 44.0398 263.43 44.3998C261.79 46.1798 260.96 47.0698 260.4 47.0598C259.31 47.0398 257.86 47.0298 255.96 47.0298C254.05 47.0298 251.69 47.0398 248.81 47.0498C248.69 47.0498 248.56 47.0298 248.44 46.9798C247.97 46.7798 247.76 46.2498 247.95 45.7798L256.43 25.6698C256.56 25.3298 256.9 25.0898 257.29 25.0898L268.48 25.1598C268.61 25.1498 268.74 25.1698 268.87 25.2198C269.34 25.4098 269.57 25.9398 269.38 26.4098L265.4 36.2898L265.42 36.2698C266 35.6798 266.59 35.0898 267.2 34.5098C268.24 33.5198 269 32.7898 269.76 32.1198C270.51 31.4398 271.29 30.7798 272.35 29.9098C273.52 28.8398 274.52 27.8498 275.32 27.0598C276.58 25.8098 277.41 24.9898 278.03 25.0598C278.4 25.1298 279.61 25.1698 281.79 25.1898Z" fill="white"/>
<path fill-rule="evenodd" clip-rule="evenodd" d="M33.6299 46.1799C41.0199 46.0199 50.2299 46.2799 57.6299 46.2899C64.3199 46.2999 68.5499 40.3799 66.2299 35.9399C63.7599 33.9399 57.6299 34.0499 51.6399 34.3799C51.2299 35.6699 51.1299 36.2399 51.0099 36.9299C50.9599 37.2199 53.2999 36.8899 55.6299 37.1499C56.5999 40.6699 54.4999 42.5499 51.8999 42.7499C50.4199 42.8699 48.3399 42.7599 46.5599 42.6399C47.5899 39.2599 49.9699 32.4899 51.3599 29.4199C60.9499 29.3899 65.6899 29.1999 71.6799 29.2599C72.6699 29.2699 72.5999 27.6999 73.0099 26.2299L42.6999 26.1699C40.5399 30.1099 36.1899 40.2799 33.6299 46.1799Z" fill="#164194"/>
<path fill-rule="evenodd" clip-rule="evenodd" d="M33.6299 46.18C41.0199 46.02 50.2299 46.28 57.6299 46.29C64.3199 46.3 68.5499 40.38 66.2299 35.94C63.7599 33.94 57.6299 34.05 51.6399 34.38C51.2299 35.67 51.1299 36.24 51.0099 36.93C50.9599 37.22 53.2999 36.89 55.6299 37.15C56.5999 40.67 54.4999 42.55 51.8999 42.75C50.4199 42.87 48.3399 42.76 46.5599 42.64C47.5899 39.26 49.9699 32.49 51.3599 29.42C60.9499 29.39 65.6899 29.2 71.6799 29.26C72.6699 29.27 72.5999 27.7 73.0099 26.23L42.6999 26.17C40.5399 30.11 36.1899 40.28 33.6299 46.18ZM49.1299 47.12C43.8599 47.05 38.3799 46.98 33.6499 47.09C33.5199 47.09 33.3899 47.07 33.2699 47.02C32.8099 46.82 32.5899 46.28 32.7899 45.82C33.0699 45.18 33.3599 44.5 33.6799 43.78C36.2699 37.79 39.9599 29.29 41.8899 25.74C42.0499 25.46 42.3499 25.26 42.6899 25.26L72.9499 25.32C73.0499 25.31 73.1499 25.32 73.2599 25.35C73.7499 25.49 74.0299 25.99 73.8999 26.48C73.7999 26.84 73.7299 27.22 73.6599 27.58C73.3899 29.02 73.1599 30.2 71.6799 30.18C68.4699 30.15 65.6199 30.19 62.1699 30.24C59.3399 30.28 56.1199 30.33 51.9599 30.34C51.3699 31.7 50.6399 33.6 49.9199 35.58C49.1199 37.78 48.3399 40.05 47.7799 41.8C48.3199 41.83 48.8599 41.86 49.3699 41.87C50.2599 41.9 51.1099 41.89 51.8299 41.84C52.1399 41.82 52.4299 41.77 52.6999 41.69C53.3999 41.5 53.9999 41.14 54.3999 40.61C54.7899 40.09 54.9999 39.38 54.9299 38.47C54.9199 38.32 54.8999 38.17 54.8699 38.01C53.9699 37.95 53.0999 37.96 52.4199 37.98C51.7899 37.99 51.2999 38 50.9999 37.95C50.2999 37.83 49.9699 37.47 50.0899 36.79C50.1499 36.44 50.2099 36.11 50.3099 35.69C50.4099 35.28 50.5399 34.8 50.7499 34.13C50.8599 33.77 51.1799 33.51 51.5799 33.49C54.6099 33.32 57.6799 33.21 60.3099 33.4C63.0699 33.59 65.3999 34.12 66.7999 35.26C66.8899 35.34 66.9699 35.43 67.0299 35.55C67.5399 36.52 67.7799 37.56 67.7799 38.6C67.7799 40.07 67.2999 41.53 66.4299 42.83C65.5799 44.1 64.3499 45.21 62.8399 46C61.3499 46.78 59.5799 47.25 57.6199 47.24C54.9699 47.2 52.0799 47.16 49.1299 47.12Z" fill="white"/>
<path fill-rule="evenodd" clip-rule="evenodd" d="M181.09 45.9399L191.95 46.0899C194.46 40.7999 197.53 33.1199 199.8 29.0299C202.15 28.8699 203.78 28.8099 207.13 29.0199C208.7 29.1099 208.73 30.5099 208.66 30.7199C207.64 33.7099 206.56 33.5699 203.51 33.5799C200.74 33.6399 200.05 33.5099 199.69 33.4799C199.51 33.4699 199.42 34.0499 198.09 36.9899C201.96 37.0299 205.93 37.1499 211.83 36.7499C215.51 36.4999 219.16 33.8699 219.64 29.9999C220 27.1299 215.99 25.7299 214.77 25.7499C205.96 25.4499 196.3 25.4599 189.71 25.5699L181.09 45.9399Z" fill="#164194"/>
<path fill-rule="evenodd" clip-rule="evenodd" d="M199.8 29.02C202.15 28.86 203.78 28.8 207.13 29.01C208.7 29.1 208.73 30.5 208.66 30.71C207.64 33.7 206.56 33.56 203.51 33.57C200.74 33.63 200.05 33.5 199.69 33.47C199.51 33.46 199.42 34.04 198.09 36.98C201.96 37.02 205.93 37.14 211.83 36.74C215.51 36.49 219.16 33.86 219.64 29.99C220 27.12 215.99 25.72 214.77 25.74C205.96 25.44 196.3 25.45 189.71 25.56L181.1 45.93L191.96 46.08C194.46 40.8 197.53 33.12 199.8 29.02ZM191.94 47L181.09 46.85C180.97 46.85 180.85 46.83 180.73 46.78C180.26 46.58 180.05 46.05 180.24 45.58L188.84 25.23C188.97 24.89 189.3 24.66 189.68 24.65C193.31 24.59 197.88 24.57 202.72 24.6C206.68 24.63 210.82 24.7 214.77 24.83C214.91 24.83 215.05 24.84 215.19 24.85C216 24.95 217.29 25.36 218.38 26.08C219.56 26.86 220.53 28.02 220.56 29.58C220.56 29.76 220.55 29.94 220.53 30.1C220.27 32.2 219.19 33.96 217.69 35.27C216.08 36.66 213.98 37.51 211.87 37.66C206.71 38.01 203 37.96 199.54 37.92C199.06 37.91 198.58 37.91 198.13 37.9C197.99 37.91 197.84 37.88 197.7 37.82C197.24 37.61 197.03 37.07 197.24 36.61C197.85 35.26 198.19 34.45 198.4 33.94C198.46 33.79 198.52 33.65 198.57 33.53C197.7 35.42 196.77 37.52 195.85 39.62C194.79 42.04 193.73 44.44 192.77 46.47C192.63 46.79 192.31 47 191.94 47ZM200.37 29.91C199.87 30.83 199.34 31.92 198.79 33.11C199.03 32.66 199.25 32.54 199.77 32.58L199.96 32.6C200.36 32.64 201.17 32.73 203.5 32.67C203.51 32.67 203.51 32.67 203.52 32.67H203.9C206.16 32.67 207.02 32.66 207.77 30.51C207.77 30.44 207.75 30.35 207.7 30.25C207.65 30.15 207.56 30.05 207.4 30C207.32 29.97 207.22 29.95 207.1 29.94C207.09 29.94 207.09 29.94 207.08 29.94C205.41 29.83 204.18 29.8 203.1 29.81C202.18 29.8 201.33 29.84 200.37 29.91Z" fill="white"/>
<path fill-rule="evenodd" clip-rule="evenodd" d="M132.37 46.1499L155.39 46.1199L156.51 42.9799L141.83 42.7899L155.13 33.3699C157.41 36.1199 161.58 42.7399 163.39 46.0799L177.36 46.1199C174.92 41.7799 172 36.9099 169.81 33.2099C165.7 26.2799 165.85 23.3099 157.72 28.7999C156.08 29.9299 136.66 42.7499 132.37 46.1499Z" fill="#164194"/>
<path fill-rule="evenodd" clip-rule="evenodd" d="M132.37 46.1498L155.39 46.1198L156.51 42.9798L141.83 42.7898L155.13 33.3698C157.41 36.1198 161.58 42.7398 163.39 46.0798L177.36 46.1198C174.92 41.7798 172 36.9098 169.81 33.2098C165.7 26.2798 165.85 23.3098 157.72 28.7998C156.08 29.9298 136.66 42.7498 132.37 46.1498ZM155.39 47.0398L132.43 47.0698C132.14 47.0898 131.85 46.9698 131.65 46.7298C131.33 46.3298 131.4 45.7598 131.8 45.4398C135.48 42.5198 150.12 32.7898 155.41 29.2698C156.26 28.7098 156.84 28.3198 157.21 28.0698C163.39 23.8998 165.34 24.1898 167.54 27.4498C168.04 28.1898 168.54 29.0998 169.13 30.1598C169.56 30.9498 170.05 31.8198 170.61 32.7598C170.96 33.3598 171.34 33.9898 171.73 34.6398C173.74 38.0298 176.14 42.0598 178.18 45.6898C178.25 45.8198 178.3 45.9798 178.3 46.1398C178.3 46.6498 177.89 47.0598 177.38 47.0598L163.43 47.0198C163.1 47.0298 162.77 46.8498 162.6 46.5398C161.63 44.7598 159.98 42.0198 158.31 39.4398C157.13 37.6198 155.93 35.8798 154.97 34.6298L144.67 41.9198L156.46 42.0698C156.58 42.0598 156.71 42.0798 156.83 42.1198C157.31 42.2898 157.56 42.8198 157.39 43.2898L156.27 46.4298C156.13 46.7798 155.79 47.0398 155.39 47.0398Z" fill="white"/>
<path fill-rule="evenodd" clip-rule="evenodd" d="M246.27 42.7899C238.67 42.4799 232.94 42.7999 231.96 42.3399C230.06 41.4499 231.04 37.6599 233.2 33.7499C234.64 31.5499 235.09 30.0599 236.67 29.8099C238.35 29.5399 240.35 29.7599 243.15 29.6999C248.2 29.7499 250.22 29.6999 251.52 29.6699C251.72 29.6599 252.04 28.5099 253.04 26.1599C246.13 26.1799 238.26 25.9899 232.1 26.2499C228.98 26.3799 227.13 27.9099 225.19 29.6999C220.35 34.1599 213.3 46.1299 227.08 46.1499L245.16 46.1799L246.27 42.7899Z" fill="#164194"/>
<path fill-rule="evenodd" clip-rule="evenodd" d="M233.2 33.7399C234.64 31.5399 235.08 30.0499 236.67 29.7999C238.35 29.5299 240.35 29.7499 243.15 29.6899C248.2 29.7399 250.22 29.6899 251.52 29.6599C251.72 29.6499 252.04 28.4999 253.04 26.1499C246.13 26.1699 238.26 25.9799 232.1 26.2399C228.98 26.3699 227.13 27.8999 225.19 29.6899C220.35 34.1499 213.3 46.1199 227.08 46.1399L245.16 46.1699L246.28 42.7999C238.68 42.4899 232.95 42.8099 231.97 42.3499C230.06 41.4499 231.04 37.6499 233.2 33.7399ZM237.64 41.7099C240.02 41.7199 242.99 41.7399 246.3 41.8699C246.38 41.8699 246.47 41.8899 246.55 41.9199C247.03 42.0799 247.29 42.5999 247.13 43.0799L246.02 46.4199C245.91 46.7999 245.56 47.0799 245.14 47.0799L227.06 47.0499C224.32 47.0499 222.32 46.5799 220.92 45.7999C219.26 44.8699 218.42 43.5199 218.17 41.9499C217.93 40.4799 218.24 38.8399 218.87 37.1999C220.07 34.0799 222.5 30.8999 224.55 29.0199C225.56 28.0899 226.56 27.2199 227.74 26.5499C228.95 25.8599 230.33 25.3999 232.05 25.3299C236.27 25.1499 241.3 25.1799 246.27 25.2199C248.54 25.2399 250.8 25.2499 252.97 25.2399C253.11 25.2299 253.25 25.2499 253.38 25.3099C253.85 25.5099 254.06 26.0499 253.87 26.5099C253.47 27.4599 253.19 28.1799 252.97 28.7299C252.49 29.9599 252.26 30.5599 251.53 30.5899C250.89 30.6099 250.06 30.6299 248.73 30.6399C247.43 30.6499 245.66 30.6499 243.14 30.6199C242.06 30.6399 241.11 30.6299 240.24 30.6099C238.89 30.5799 237.76 30.5599 236.8 30.7199C236.01 30.8499 235.56 31.6199 234.85 32.7999C234.59 33.2399 234.3 33.7299 233.96 34.2399C233.66 34.7799 233.4 35.2899 233.17 35.7799C232.46 37.2999 231.98 38.7199 231.87 39.8299C231.78 40.6699 231.9 41.2799 232.28 41.4899C232.31 41.5099 232.32 41.5099 232.32 41.5099C232.72 41.6799 234.7 41.6899 237.64 41.7099Z" fill="white"/>
<path fill-rule="evenodd" clip-rule="evenodd" d="M114.61 29.45C114.63 29.55 114.69 29.49 115.9 29.54L122.05 29.77L115.33 45.93L126.62 46.04L133.78 29.8C136.35 29.72 137.32 29.8 139.32 29.72C144.01 29.64 142.95 30.33 143.36 27.17C143.36 26.63 143.45 26.32 143.38 26.17C143.34 26.08 142.65 26.13 140.73 26.15H118.78C114.85 26.09 114.89 26.03 114.85 26.28C114.78 26.77 114.74 27.92 114.61 29.45Z" fill="#164194"/>
<path fill-rule="evenodd" clip-rule="evenodd" d="M114.99 30.4299C113.95 30.4199 113.85 30.4199 113.71 29.6399C113.69 29.5599 113.69 29.4699 113.69 29.3799C113.75 28.6899 113.78 28.1499 113.81 27.6999C113.85 26.9999 113.89 26.4799 113.94 26.1299C113.94 26.1299 113.94 26.1299 113.94 26.1199C114.04 25.4799 114.09 25.2099 115.23 25.1699C115.53 25.1599 116.04 25.1699 116.91 25.1899C117.39 25.1999 117.99 25.2099 118.71 25.2199C118.73 25.2199 118.75 25.2199 118.78 25.2199H140.73C141.25 25.2099 141.69 25.2099 142.05 25.1999C143.4 25.1699 143.95 25.1599 144.22 25.7899C144.36 26.0999 144.34 26.3299 144.3 26.6799C144.29 26.8299 144.27 27.0199 144.27 27.1599C144.27 27.1999 144.27 27.2399 144.26 27.2799C144.19 27.7899 144.17 28.2299 144.15 28.5699C144.09 29.4999 144.07 29.9699 143.43 30.3699C142.97 30.6599 142.42 30.6499 141.34 30.6399C140.84 30.6299 140.19 30.6199 139.36 30.6399H139.35C138.36 30.6799 137.6 30.6799 136.78 30.6799C136.1 30.6799 135.37 30.6799 134.38 30.6999L127.45 46.4099C127.31 46.7299 126.98 46.9599 126.6 46.9599L115.37 46.8599C115.24 46.8699 115.1 46.8499 114.96 46.7899C114.49 46.5999 114.27 46.0599 114.46 45.5899L120.67 30.6499L115.84 30.4699C115.44 30.4299 115.17 30.4299 114.99 30.4299ZM114.61 29.4499C114.63 29.5499 114.69 29.4899 115.9 29.5399L122.05 29.7699L115.33 45.9299L126.62 46.0399L133.78 29.7999C136.35 29.7199 137.32 29.7999 139.32 29.7199C144.01 29.6399 142.95 30.3299 143.36 27.1699C143.36 26.6299 143.45 26.3199 143.38 26.1699C143.34 26.0799 142.65 26.1299 140.73 26.1499H118.78C114.85 26.0899 114.89 26.0299 114.85 26.2799C114.78 26.7699 114.74 27.9199 114.61 29.4499Z" fill="white"/>
<path fill-rule="evenodd" clip-rule="evenodd" d="M302.99 26.1699L291.89 26.1599L283.26 46.1299L294.48 46.1099L302.99 26.1699Z" fill="#164194"/>
<path fill-rule="evenodd" clip-rule="evenodd" d="M302.99 26.17L291.89 26.16L283.26 46.13L294.48 46.11L302.99 26.17ZM291.9 25.25L302.94 25.26C303.08 25.25 303.22 25.27 303.35 25.33C303.82 25.53 304.03 26.07 303.83 26.53L295.32 46.48C295.18 46.81 294.86 47.04 294.48 47.04L283.26 47.06C283.14 47.06 283.02 47.04 282.9 46.98C282.44 46.78 282.22 46.24 282.42 45.78L291.04 25.84C291.18 25.49 291.51 25.25 291.9 25.25Z" fill="white"/>
<path fill-rule="evenodd" clip-rule="evenodd" d="M311.09 33.7598C314.53 31.8898 318.41 29.4898 321.35 27.9898C322.35 27.4098 323.45 26.8698 324.52 26.0898C321.02 25.9598 318.87 25.8198 317.16 25.8398C316.93 25.8398 314.83 27.0798 311.32 28.8398C306.05 31.2698 302.01 32.9898 301.55 34.7298C301.33 35.5798 302.92 38.4098 306.92 46.0898L319.01 46.0698C314.9 40.0398 313.39 38.0998 311.09 33.7598Z" fill="#164194"/>
<path fill-rule="evenodd" clip-rule="evenodd" d="M324.51 26.0999C321.01 25.9699 318.86 25.8299 317.15 25.8499C316.92 25.8499 314.82 27.0899 311.31 28.8499C306.04 31.2799 302 32.9999 301.54 34.7399C301.32 35.5899 302.91 38.4199 306.91 46.0999L319 46.0799C314.89 40.0499 313.38 38.0999 311.08 33.7699C314.52 31.8999 318.4 29.4999 321.34 27.9999C322.34 27.4099 323.44 26.8699 324.51 26.0999ZM316.16 31.9399C314.89 32.6699 313.61 33.4199 312.32 34.1299C313.92 37.0499 315.23 38.9499 317.54 42.3199C318.24 43.3399 319.03 44.4799 319.76 45.5599C319.86 45.7099 319.92 45.8799 319.92 46.0799C319.92 46.5899 319.51 46.9999 319.01 46.9999L307 47.0099C306.64 47.0399 306.28 46.8599 306.11 46.5199C304.78 43.9599 304.64 43.6999 304.5 43.4299C301.57 37.8299 300.39 35.5799 300.67 34.5099C301.2 32.4899 304.81 30.8299 309.68 28.5999L310.94 28.0199C312.62 27.1799 313.99 26.4399 314.97 25.9199C316.13 25.2999 316.8 24.9399 317.14 24.9399C318.33 24.9199 319.69 24.9799 321.52 25.0599C322.41 25.0999 323.41 25.1399 324.49 25.1799C324.78 25.1699 325.07 25.3099 325.25 25.5599C325.55 25.9699 325.46 26.5399 325.05 26.8399C324.26 27.4099 323.46 27.8599 322.69 28.2899C322.41 28.4499 322.12 28.6099 321.88 28.7499C321.85 28.7699 321.81 28.7999 321.77 28.8099C320.09 29.6699 318.15 30.7899 316.16 31.9399Z" fill="white"/>
<path fill-rule="evenodd" clip-rule="evenodd" d="M23.7299 46.1098C23.0699 43.9598 20.8499 39.7998 20.8399 38.1698C20.8299 36.2698 22.6599 32.9198 23.6199 30.2698C19.9799 30.2898 20.6999 29.9898 19.3299 33.0898C18.7399 34.4098 18.2999 35.3798 17.9899 36.1298C17.0599 38.3998 17.0099 37.7598 17.6199 39.3298C17.9399 40.1498 18.4899 41.2398 19.3199 43.2298C20.8299 46.7598 19.7799 46.1198 23.7299 46.1098Z" fill="#164194"/>
<path fill-rule="evenodd" clip-rule="evenodd" d="M23.7299 46.11C23.0699 43.96 20.8499 39.7999 20.8399 38.1699C20.8299 36.2699 22.6599 32.92 23.6199 30.27C19.9799 30.29 20.6999 29.99 19.3299 33.09C18.7399 34.41 18.2999 35.38 17.9899 36.13C17.0599 38.4 17.0099 37.76 17.6199 39.33C17.9399 40.15 18.4899 41.2399 19.3199 43.2299C20.8299 46.7599 19.7799 46.12 23.7299 46.11ZM23.3499 42.6699C23.8499 43.8299 24.3399 44.96 24.6099 45.84C24.6399 45.93 24.6499 46.02 24.6499 46.11C24.6499 46.62 24.2399 47.0299 23.7299 47.0299C23.1399 47.0299 22.6299 47.05 22.2299 47.06C21.1699 47.1 20.6499 47.12 20.1199 46.77C19.5799 46.42 19.3999 45.9499 19.0399 45.0099C18.8999 44.6299 18.7199 44.16 18.4899 43.63C18.4799 43.62 18.4799 43.6 18.4699 43.59C18.0399 42.55 17.6799 41.75 17.3899 41.11C17.1399 40.55 16.9399 40.12 16.7699 39.66C16.7599 39.63 16.6799 39.43 16.6099 39.25C16.3699 38.66 16.2699 38.39 16.3199 37.93C16.3599 37.59 16.4799 37.32 16.6999 36.82C16.8199 36.55 16.9799 36.1899 17.1499 35.7799C17.3799 35.2199 17.6399 34.64 17.9699 33.91C18.0499 33.73 18.1599 33.4899 18.4999 32.7099C18.7199 32.2199 18.8499 31.88 18.9699 31.6C19.3699 30.62 19.5799 30.11 20.1599 29.73C20.7599 29.34 21.4099 29.34 22.7699 29.34C23.0099 29.34 23.2799 29.34 23.5799 29.34C23.6999 29.33 23.8199 29.3499 23.9399 29.3899C24.4199 29.5599 24.6599 30.09 24.4899 30.56C24.1699 31.46 23.7699 32.3699 23.3799 33.2799C22.5699 35.1599 21.7599 37.05 21.7599 38.15C21.7599 38.98 22.5799 40.8799 23.3499 42.6699Z" fill="white"/>
<path fill-rule="evenodd" clip-rule="evenodd" d="M270.54 23.2299C275.78 20.6099 276.72 26.1699 279.49 20.7799C275.44 22.8799 275.06 19.1899 272.85 20.8899L270.54 23.2299Z" fill="#164194"/>
<path fill-rule="evenodd" clip-rule="evenodd" d="M279.49 20.7799C275.44 22.8799 275.06 19.1899 272.85 20.8899L270.54 23.2299C275.78 20.6099 276.72 26.1699 279.49 20.7799ZM275.3 23.7999C274.29 23.4599 273 23.0399 270.99 24.0299C270.64 24.2299 270.19 24.1799 269.9 23.8899C269.54 23.5399 269.53 22.9499 269.89 22.5899L272.2 20.2499C272.23 20.2199 272.26 20.1899 272.29 20.1699C273.76 19.0399 274.62 19.4999 275.66 20.0499C276.39 20.4399 277.28 20.8999 279.07 19.9699C279.32 19.8399 279.63 19.8299 279.91 19.9699C280.36 20.1999 280.54 20.7499 280.31 21.1999C278.43 24.8399 277.17 24.4199 275.3 23.7999Z" fill="white"/>
<path fill-rule="evenodd" clip-rule="evenodd" d="M29.5399 46.04C28.8799 43.89 26.6599 39.73 26.6499 38.1C26.6399 36.2 28.4699 32.85 29.4299 30.2C25.7899 30.22 26.5099 29.92 25.1399 33.02C24.5499 34.34 24.1099 35.31 23.7999 36.06C22.8699 38.33 22.8199 37.69 23.4299 39.26C23.7499 40.08 24.2999 41.17 25.1299 43.16C26.6299 46.69 25.5899 46.05 29.5399 46.04Z" fill="#164194"/>
<path fill-rule="evenodd" clip-rule="evenodd" d="M29.54 46.0399C28.88 43.8899 26.66 39.7299 26.65 38.0999C26.64 36.1999 28.47 32.8499 29.43 30.1999C25.79 30.2199 26.51 29.9199 25.14 33.0199C24.55 34.3399 24.11 35.3099 23.8 36.0599C22.87 38.3299 22.82 37.6899 23.43 39.2599C23.75 40.0799 24.3 41.1699 25.13 43.1599C26.63 46.6899 25.59 46.0499 29.54 46.0399ZM29.16 42.5999C29.66 43.7599 30.15 44.8899 30.42 45.7699C30.45 45.8599 30.46 45.9499 30.46 46.0399C30.46 46.5499 30.05 46.9599 29.54 46.9599C28.95 46.9599 28.44 46.9799 28.04 46.9899C26.98 47.0299 26.46 47.0499 25.93 46.6999C25.39 46.3499 25.21 45.8799 24.85 44.9399C24.71 44.5599 24.53 44.0899 24.3 43.5599C24.29 43.5499 24.29 43.5299 24.28 43.5199C23.85 42.4799 23.49 41.6799 23.2 41.0399C22.95 40.4799 22.75 40.0499 22.58 39.5899C22.57 39.5599 22.49 39.3599 22.42 39.1799C22.18 38.5899 22.08 38.3199 22.13 37.8599C22.17 37.5199 22.29 37.2499 22.51 36.7499C22.63 36.4799 22.79 36.1199 22.96 35.7099C23.19 35.1499 23.45 34.5699 23.78 33.8399C23.86 33.6599 23.97 33.4199 24.31 32.6399C24.53 32.1499 24.66 31.8099 24.78 31.5299C25.18 30.5499 25.39 30.0399 25.97 29.6599C26.57 29.2699 27.22 29.2699 28.58 29.2699C28.82 29.2699 29.09 29.2699 29.39 29.2699C29.51 29.2599 29.63 29.2799 29.75 29.3199C30.23 29.4899 30.47 30.0199 30.3 30.4899C29.98 31.3899 29.58 32.2999 29.19 33.2099C28.38 35.0899 27.57 36.9799 27.57 38.0799C27.57 38.9099 28.39 40.8099 29.16 42.5999Z" fill="white"/>
<path fill-rule="evenodd" clip-rule="evenodd" d="M376.2 46.3798C376.86 44.2298 379.08 40.0698 379.09 38.4398C379.1 36.5398 377.27 33.1898 376.31 30.5398C379.95 30.5598 379.23 30.2598 380.6 33.3598C381.19 34.6798 381.63 35.6498 381.94 36.3998C382.87 38.6698 382.91 38.0298 382.31 39.5998C381.99 40.4198 381.44 41.5098 380.61 43.4998C379.1 47.0298 380.14 46.3898 376.2 46.3798Z" fill="#164194"/>
<path fill-rule="evenodd" clip-rule="evenodd" d="M375.32 46.11C375.59 45.23 376.08 44.11 376.58 42.94C377.35 41.15 378.17 39.25 378.17 38.44C378.18 37.34 377.36 35.45 376.56 33.57C376.17 32.66 375.78 31.74 375.45 30.85C375.28 30.37 375.52 29.85 376 29.68C376.12 29.64 376.24 29.62 376.36 29.63C376.66 29.63 376.93 29.63 377.17 29.63C378.53 29.63 379.18 29.62 379.78 30.02C380.35 30.4 380.56 30.91 380.97 31.89C381.08 32.17 381.22 32.51 381.44 33C381.78 33.78 381.89 34.01 381.97 34.2C382.29 34.92 382.56 35.51 382.79 36.07C382.96 36.48 383.11 36.83 383.24 37.11C383.46 37.61 383.58 37.88 383.63 38.22C383.68 38.68 383.58 38.95 383.34 39.54C383.27 39.72 383.19 39.92 383.18 39.95C383 40.41 382.81 40.84 382.56 41.4C382.27 42.04 381.91 42.84 381.48 43.88C381.47 43.89 381.47 43.91 381.46 43.92C381.23 44.45 381.05 44.92 380.91 45.3C380.55 46.24 380.37 46.71 379.84 47.06C379.31 47.4 378.79 47.39 377.73 47.35C377.32 47.34 376.82 47.32 376.23 47.32C375.72 47.32 375.32 46.91 375.32 46.4C375.28 46.29 375.3 46.2 375.32 46.11ZM376.2 46.38C376.86 44.23 379.08 40.07 379.09 38.44C379.1 36.54 377.27 33.19 376.31 30.54C379.96 30.56 379.23 30.26 380.6 33.36C381.19 34.68 381.63 35.65 381.94 36.4C382.87 38.67 382.91 38.03 382.31 39.6C381.99 40.42 381.44 41.51 380.61 43.5C379.1 47.03 380.14 46.39 376.2 46.38Z" fill="white"/>
<path fill-rule="evenodd" clip-rule="evenodd" d="M370.39 46.31C371.05 44.16 373.27 40 373.28 38.37C373.29 36.47 371.46 33.12 370.5 30.47C374.14 30.49 373.42 30.19 374.79 33.29C375.38 34.61 375.82 35.58 376.13 36.33C377.06 38.6 377.11 37.96 376.5 39.53C376.18 40.35 375.63 41.44 374.8 43.43C373.29 46.96 374.33 46.32 370.39 46.31Z" fill="#164194"/>
<path fill-rule="evenodd" clip-rule="evenodd" d="M369.51 46.0399C369.78 45.1599 370.27 44.0399 370.77 42.8699C371.54 41.0799 372.36 39.1799 372.36 38.3699C372.36 37.2699 371.55 35.3799 370.75 33.4999C370.36 32.5899 369.97 31.6699 369.64 30.7799C369.47 30.2999 369.71 29.7799 370.19 29.6099C370.31 29.5699 370.43 29.5499 370.55 29.5599C370.85 29.5599 371.12 29.5599 371.36 29.5599C372.72 29.5599 373.37 29.5499 373.97 29.9499C374.54 30.3299 374.75 30.8399 375.15 31.8199C375.27 32.0999 375.41 32.4399 375.62 32.9299C375.96 33.7099 376.07 33.9399 376.15 34.1299C376.47 34.8499 376.74 35.4399 376.97 35.9999C377.14 36.4099 377.29 36.7599 377.42 37.0399C377.64 37.5399 377.76 37.8099 377.8 38.1499C377.85 38.6099 377.75 38.8799 377.51 39.4699C377.44 39.6499 377.36 39.8499 377.35 39.8799C377.17 40.3399 376.98 40.7699 376.73 41.3299C376.44 41.9699 376.08 42.7699 375.65 43.8099C375.64 43.8199 375.64 43.8399 375.63 43.8499C375.4 44.3799 375.22 44.8499 375.08 45.2299C374.72 46.1699 374.54 46.6399 374.01 46.9899C373.48 47.3299 372.96 47.3199 371.9 47.2799C371.49 47.2699 370.99 47.2499 370.4 47.2499C369.89 47.2499 369.48 46.8399 369.48 46.3299C369.47 46.2199 369.49 46.1299 369.51 46.0399ZM370.39 46.3099C371.05 44.1599 373.27 39.9999 373.28 38.3699C373.29 36.4699 371.46 33.1199 370.5 30.4699C374.14 30.4899 373.42 30.1899 374.79 33.2899C375.38 34.6099 375.82 35.5799 376.13 36.3299C377.06 38.5999 377.11 37.9599 376.5 39.5299C376.18 40.3499 375.63 41.4399 374.8 43.4299C373.29 46.9599 374.33 46.3199 370.39 46.3099Z" fill="white"/>
<path fill-rule="evenodd" clip-rule="evenodd" d="M321.25 45.7998L344.27 45.7698L345.39 42.6298L330.71 42.4398L344.01 33.0198C346.29 35.7698 350.45 42.3898 352.27 45.7298L366.24 45.7698C363.8 41.4298 360.88 36.5598 358.69 32.8598C354.58 25.9298 354.73 22.9598 346.6 28.4498C344.96 29.5798 325.54 42.3998 321.25 45.7998Z" fill="#164194"/>
<path fill-rule="evenodd" clip-rule="evenodd" d="M321.25 45.7999L344.27 45.7699L345.39 42.6299L330.71 42.4399L344.01 33.0199C346.29 35.7699 350.45 42.3899 352.27 45.7299L366.24 45.7699C363.8 41.4299 360.88 36.5599 358.69 32.8599C354.58 25.9299 354.73 22.9599 346.6 28.4499C344.96 29.5799 325.54 42.3999 321.25 45.7999ZM344.27 46.6899L321.31 46.7199C321.02 46.7399 320.73 46.6199 320.53 46.3799C320.21 45.9799 320.28 45.4099 320.68 45.0899C324.36 42.1699 339 32.4399 344.29 28.9199C345.13 28.3599 345.72 27.9699 346.09 27.7199C352.27 23.5499 354.22 23.8399 356.42 27.0999C356.92 27.8399 357.42 28.7499 358.01 29.8099C358.44 30.5999 358.93 31.4699 359.48 32.4099C359.84 33.0099 360.21 33.6399 360.59 34.2899C362.6 37.6799 365 41.7099 367.04 45.3399C367.11 45.4699 367.16 45.6299 367.16 45.7899C367.16 46.2999 366.75 46.7099 366.24 46.7099L352.29 46.6699C351.96 46.6799 351.63 46.4999 351.46 46.1899C350.49 44.4099 348.84 41.6699 347.17 39.0899C345.99 37.2699 344.79 35.5299 343.83 34.2799L333.54 41.5699L345.33 41.7199C345.45 41.7099 345.58 41.7299 345.7 41.7699C346.18 41.9399 346.43 42.4699 346.26 42.9399L345.14 46.0799C345.01 46.4299 344.67 46.6899 344.27 46.6899Z" fill="white"/>
<path fill-rule="evenodd" clip-rule="evenodd" d="M67.77 45.7998L90.79 45.7698L91.91 42.6298L77.23 42.4398L90.53 33.0198C92.81 35.7698 96.98 42.3898 98.79 45.7298L112.76 45.7698C110.32 41.4298 107.4 36.5598 105.21 32.8598C101.1 25.9298 101.25 22.9598 93.12 28.4498C91.48 29.5798 72.06 42.3998 67.77 45.7998Z" fill="#164194"/>
<path fill-rule="evenodd" clip-rule="evenodd" d="M67.7699 45.7999L90.7899 45.7699L91.9099 42.6299L77.2299 42.4399L90.5299 33.0199C92.8099 35.7699 96.9799 42.3899 98.7899 45.7299L112.76 45.7699C110.32 41.4299 107.4 36.5599 105.21 32.8599C101.1 25.9299 101.25 22.9599 93.1199 28.4499C91.4799 29.5799 72.0599 42.3999 67.7699 45.7999ZM90.7899 46.6899L67.8299 46.7199C67.5399 46.7399 67.2499 46.6199 67.0499 46.3799C66.7299 45.9799 66.7999 45.4099 67.1999 45.0899C70.8799 42.1699 85.5199 32.4399 90.8099 28.9199C91.6599 28.3599 92.2399 27.9699 92.6099 27.7199C98.7899 23.5499 100.74 23.8399 102.94 27.0999C103.44 27.8399 103.94 28.7499 104.53 29.8099C104.96 30.5999 105.45 31.4699 106.01 32.4099C106.36 33.0099 106.74 33.6399 107.13 34.2899C109.14 37.6799 111.54 41.7099 113.58 45.3399C113.65 45.4699 113.7 45.6299 113.7 45.7899C113.7 46.2999 113.29 46.7099 112.78 46.7099L98.8299 46.6699C98.4999 46.6799 98.1699 46.4999 97.9999 46.1899C97.0299 44.4099 95.3799 41.6699 93.7099 39.0899C92.5299 37.2699 91.3299 35.5299 90.3699 34.2799L80.0699 41.5699L91.8599 41.7199C91.9799 41.7099 92.1099 41.7299 92.2299 41.7699C92.7099 41.9399 92.9599 42.4699 92.7899 42.9399L91.6699 46.0799C91.5299 46.4299 91.1899 46.6899 90.7899 46.6899Z" fill="white"/>
<path fill-rule="evenodd" clip-rule="evenodd" d="M235.96 34.8398L249.37 35.0198L248.14 37.7498H234.47L235.96 34.8398Z" fill="#164194"/>
<path fill-rule="evenodd" clip-rule="evenodd" d="M235.97 33.9199L249.38 34.0999C249.89 34.1099 250.29 34.5199 250.29 35.0299C250.29 35.1599 250.26 35.2799 250.21 35.3999L248.98 38.1299C248.83 38.4699 248.49 38.6699 248.14 38.6699H234.47C233.96 38.6699 233.55 38.2599 233.55 37.7499C233.55 37.5699 233.6 37.3999 233.69 37.2599L235.14 34.4299C235.31 34.0999 235.63 33.9199 235.97 33.9199ZM235.96 34.8399L249.37 35.0199L248.14 37.7499H234.47L235.96 34.8399Z" fill="white"/>
<path d="M23.25 12.49C23.34 12.49 23.42 12.52 23.48 12.59L24.12 13.28C23.8 13.68 23.41 13.99 22.94 14.2C22.47 14.41 21.91 14.51 21.26 14.51C20.67 14.51 20.15 14.41 19.68 14.21C19.21 14.01 18.81 13.73 18.49 13.38C18.17 13.03 17.91 12.6 17.73 12.11C17.55 11.62 17.47 11.09 17.47 10.51C17.47 10.12 17.51 9.75001 17.6 9.40001C17.68 9.05001 17.81 8.73001 17.97 8.43001C18.13 8.13001 18.33 7.87001 18.56 7.63001C18.79 7.39001 19.05 7.19001 19.33 7.02001C19.61 6.85001 19.93 6.73001 20.27 6.64001C20.61 6.55001 20.97 6.51001 21.36 6.51001C21.65 6.51001 21.92 6.54001 22.18 6.59001C22.44 6.64001 22.68 6.71001 22.9 6.80001C23.12 6.89001 23.33 7.00001 23.52 7.13001C23.71 7.26001 23.88 7.40001 24.03 7.55001L23.48 8.30001C23.45 8.35001 23.41 8.39001 23.36 8.42001C23.31 8.46001 23.24 8.47001 23.15 8.47001C23.06 8.47001 22.98 8.44001 22.89 8.38001C22.8 8.32001 22.69 8.25001 22.57 8.17001C22.45 8.09001 22.28 8.03001 22.09 7.96001C21.9 7.90001 21.65 7.87001 21.36 7.87001C21.03 7.87001 20.73 7.93001 20.46 8.05001C20.19 8.17001 19.95 8.34001 19.76 8.57001C19.56 8.79001 19.41 9.07001 19.3 9.40001C19.19 9.73001 19.14 10.1 19.14 10.52C19.14 10.94 19.2 11.32 19.32 11.65C19.44 11.98 19.6 12.26 19.8 12.48C20 12.71 20.24 12.88 20.51 13C20.78 13.12 21.07 13.18 21.38 13.18C21.56 13.18 21.73 13.17 21.88 13.15C22.03 13.13 22.17 13.1 22.3 13.06C22.43 13.02 22.55 12.96 22.66 12.89C22.77 12.82 22.89 12.74 23 12.63C23.04 12.6 23.08 12.57 23.12 12.55C23.16 12.5 23.2 12.49 23.25 12.49Z" fill="#164194"/>
<path d="M30.2901 6.59009V7.86009H26.93V9.87009H29.5401V11.1001H26.93V13.1601H30.2901V14.4301H25.3V6.59009H30.2901Z" fill="#164194"/>
<path d="M37.3199 6.59009V7.90009H35.0299V14.4301H33.3999V7.89009H31.1099V6.59009H37.3199Z" fill="#164194"/>
<path d="M40.1901 6.59009V9.78009H41.3701C41.8901 9.78009 42.3401 9.84009 42.7101 9.95009C43.0801 10.0601 43.3801 10.2201 43.6101 10.4201C43.8401 10.6201 44.0101 10.8501 44.1201 11.1101C44.2301 11.3701 44.2801 11.6501 44.2801 11.9401C44.2801 12.3101 44.2101 12.6501 44.0801 12.9601C43.9501 13.2701 43.7601 13.5201 43.5101 13.7401C43.2601 13.9601 42.9601 14.1201 42.5901 14.2401C42.2301 14.3601 41.8201 14.4201 41.3601 14.4201H38.5601V6.59009H40.1901ZM40.1901 11.0201V13.1701H41.3701C41.6301 13.1701 41.8401 13.1401 42.0101 13.0801C42.1801 13.0201 42.3101 12.9401 42.4101 12.8501C42.5101 12.7601 42.5801 12.6401 42.6201 12.5101C42.6601 12.3801 42.6801 12.2401 42.6801 12.1001C42.6801 11.9401 42.6601 11.7901 42.6201 11.6601C42.5801 11.5301 42.5101 11.4101 42.4101 11.3201C42.3101 11.2201 42.1801 11.1501 42.0101 11.1001C41.8401 11.0501 41.6301 11.0201 41.3701 11.0201H40.1901Z" fill="#164194"/>
<path d="M53.7299 12.49C53.8199 12.49 53.8999 12.52 53.9599 12.59L54.5999 13.28C54.2799 13.68 53.8899 13.99 53.4199 14.2C52.9499 14.41 52.39 14.51 51.74 14.51C51.15 14.51 50.63 14.41 50.16 14.21C49.69 14.01 49.29 13.73 48.97 13.38C48.65 13.03 48.3899 12.6 48.2099 12.11C48.0299 11.62 47.95 11.09 47.95 10.51C47.95 10.12 47.99 9.75001 48.08 9.40001C48.16 9.05001 48.29 8.73001 48.45 8.43001C48.61 8.13001 48.81 7.87001 49.04 7.63001C49.27 7.39001 49.53 7.19001 49.81 7.02001C50.09 6.85001 50.41 6.73001 50.75 6.64001C51.09 6.55001 51.45 6.51001 51.84 6.51001C52.13 6.51001 52.4 6.54001 52.66 6.59001C52.92 6.64001 53.16 6.71001 53.38 6.80001C53.6 6.89001 53.81 7.00001 54 7.13001C54.19 7.26001 54.3599 7.40001 54.5099 7.55001L53.9599 8.30001C53.9299 8.35001 53.89 8.39001 53.84 8.42001C53.79 8.46001 53.72 8.47001 53.63 8.47001C53.54 8.47001 53.4599 8.44001 53.3699 8.38001C53.2799 8.32001 53.1699 8.25001 53.0499 8.17001C52.9299 8.09001 52.76 8.03001 52.57 7.96001C52.38 7.90001 52.13 7.87001 51.84 7.87001C51.51 7.87001 51.2099 7.93001 50.9399 8.05001C50.6699 8.17001 50.43 8.34001 50.24 8.57001C50.04 8.79001 49.8899 9.07001 49.7799 9.40001C49.6699 9.73001 49.6199 10.1 49.6199 10.52C49.6199 10.94 49.6799 11.32 49.7999 11.65C49.9199 11.98 50.0799 12.26 50.2799 12.48C50.4799 12.71 50.72 12.88 50.99 13C51.26 13.12 51.55 13.18 51.86 13.18C52.04 13.18 52.21 13.17 52.36 13.15C52.51 13.13 52.6499 13.1 52.7799 13.06C52.9099 13.02 53.0299 12.96 53.1399 12.89C53.2499 12.82 53.3699 12.74 53.4799 12.63C53.5199 12.6 53.5599 12.57 53.5999 12.55C53.6299 12.5 53.6799 12.49 53.7299 12.49Z" fill="#164194"/>
<path d="M62.23 14.4201H60.6V7.81009H57.41V14.4201H55.78V6.59009H62.23V14.4201Z" fill="#164194"/>
<path d="M69.1299 6.59009V7.86009H65.7699V9.87009H68.3799V11.1001H65.7699V13.1601H69.1299V14.4301H64.1399V6.59009H69.1299Z" fill="#164194"/>
<path d="M70.6099 14.4201V6.59009H72.2399V13.2001H75.4299V6.59009H77.0599V13.2001H78.1499V15.8201C78.1499 15.9601 78.0999 16.0701 78.0099 16.1501C77.9199 16.2301 77.7899 16.2701 77.6399 16.2701H76.6599V14.4201H70.6099Z" fill="#164194"/>
<path d="M84.3 7.08009C84.34 7.02009 84.38 6.96009 84.43 6.90009C84.48 6.84009 84.54 6.79009 84.6 6.74009C84.66 6.69009 84.72 6.66009 84.79 6.63009C84.86 6.60009 84.93 6.59009 85.01 6.59009H86.23V14.4201H84.6V9.75009C84.6 9.56009 84.61 9.35009 84.62 9.14009C84.63 8.93009 84.65 8.70009 84.68 8.46009C84.6 8.67009 84.52 8.87009 84.43 9.05009C84.34 9.23009 84.25 9.39009 84.17 9.53009L81.45 13.9201C81.41 13.9801 81.37 14.0401 81.32 14.1001C81.27 14.1601 81.22 14.2101 81.16 14.2601C81.1 14.3101 81.04 14.3501 80.97 14.3801C80.9 14.4101 80.82 14.4201 80.75 14.4201H79.53V6.59009H81.16V11.2601C81.16 11.4501 81.15 11.6601 81.14 11.8701C81.13 12.0801 81.11 12.3101 81.08 12.5501C81.16 12.3401 81.24 12.1401 81.33 11.9601C81.42 11.7801 81.51 11.6201 81.59 11.4801L84.3 7.08009Z" fill="#164194"/>
<path d="M94.98 14.4201H93.73C93.59 14.4201 93.48 14.3901 93.39 14.3201C93.3 14.2501 93.24 14.1701 93.19 14.0601L92.66 12.5601H89.53L89 14.0601C88.97 14.1501 88.91 14.2301 88.81 14.3101C88.72 14.3801 88.6 14.4201 88.47 14.4201H87.21L90.27 6.59009H91.93L94.98 14.4201ZM89.93 11.4501H92.27L91.42 9.05009C91.37 8.92009 91.32 8.78009 91.26 8.60009C91.2 8.43009 91.15 8.24009 91.09 8.05009C91.04 8.25009 90.99 8.44009 90.93 8.61009C90.87 8.78009 90.82 8.93009 90.77 9.06009L89.93 11.4501Z" fill="#164194"/>
<path d="M102.66 6.59008V14.4201H101.03V7.81008H99.0799C99.0299 8.78008 98.9499 9.62008 98.8599 10.3301C98.7699 11.0401 98.6499 11.6401 98.5199 12.1401C98.3899 12.6401 98.2399 13.0401 98.0699 13.3401C97.8999 13.6501 97.7199 13.8901 97.5199 14.0601C97.3199 14.2301 97.1099 14.3501 96.8799 14.4101C96.6499 14.4701 96.4099 14.5001 96.1599 14.5001C95.8799 14.5001 95.6699 14.4701 95.5399 14.4201C95.4099 14.3701 95.3499 14.3001 95.3499 14.2001V13.2001H95.7799C95.8999 13.2001 96.0099 13.1801 96.1399 13.1401C96.2599 13.1001 96.3899 13.0101 96.5099 12.8701C96.6299 12.7301 96.7499 12.5201 96.8599 12.2401C96.9699 11.9601 97.0799 11.5701 97.1699 11.0801C97.2599 10.5901 97.3399 9.98008 97.4099 9.24008C97.4799 8.51008 97.5199 7.62008 97.5499 6.58008H102.66V6.59008Z" fill="#164194"/>
<path d="M109.35 7.08009C109.39 7.02009 109.43 6.96009 109.48 6.90009C109.53 6.84009 109.59 6.79009 109.65 6.74009C109.71 6.69009 109.77 6.66009 109.84 6.63009C109.91 6.60009 109.98 6.59009 110.06 6.59009H111.28V14.4201H109.65V9.75009C109.65 9.56009 109.66 9.35009 109.67 9.14009C109.68 8.93009 109.7 8.70009 109.73 8.46009C109.65 8.67009 109.57 8.87009 109.48 9.05009C109.39 9.23009 109.3 9.39009 109.22 9.53009L106.5 13.9201C106.46 13.9801 106.42 14.0401 106.37 14.1001C106.32 14.1601 106.27 14.2101 106.21 14.2601C106.15 14.3101 106.09 14.3501 106.02 14.3801C105.95 14.4101 105.87 14.4201 105.8 14.4201H104.58V6.59009H106.21V11.2601C106.21 11.4501 106.2 11.6601 106.19 11.8701C106.18 12.0801 106.16 12.3101 106.13 12.5501C106.21 12.3401 106.29 12.1401 106.38 11.9601C106.47 11.7801 106.56 11.6201 106.64 11.4801L109.35 7.08009Z" fill="#164194"/>
<path d="M118.08 8.56999C118.08 8.92999 118 9.25999 117.84 9.55999C117.68 9.85999 117.43 10.11 117.1 10.3C117.27 10.39 117.43 10.49 117.58 10.6C117.73 10.72 117.85 10.84 117.95 10.98C118.05 11.12 118.13 11.27 118.19 11.43C118.25 11.59 118.28 11.76 118.28 11.94C118.28 12.3 118.21 12.63 118.08 12.94C117.95 13.25 117.75 13.52 117.5 13.75C117.25 13.98 116.93 14.16 116.56 14.29C116.19 14.42 115.77 14.49 115.29 14.49C115.02 14.49 114.75 14.46 114.48 14.41C114.21 14.36 113.96 14.29 113.71 14.2C113.47 14.11 113.24 14 113.02 13.88C112.81 13.75 112.62 13.61 112.45 13.46L112.93 12.69C112.97 12.63 113.02 12.58 113.08 12.55C113.14 12.51 113.21 12.49 113.29 12.49C113.39 12.49 113.5 12.53 113.61 12.6C113.73 12.67 113.86 12.75 114.02 12.84C114.18 12.93 114.36 13.01 114.57 13.08C114.78 13.15 115.04 13.19 115.33 13.19C115.78 13.19 116.12 13.1 116.37 12.91C116.62 12.72 116.74 12.42 116.74 12.01C116.74 11.84 116.7 11.7 116.63 11.56C116.56 11.43 116.46 11.32 116.34 11.23C116.22 11.14 116.06 11.07 115.88 11.02C115.7 10.97 115.5 10.95 115.29 10.96H114.17L114.16 9.66999H115.16C115.61 9.66999 115.95 9.58999 116.19 9.41999C116.43 9.24999 116.55 9.00999 116.55 8.69999C116.55 8.41999 116.44 8.19999 116.22 8.03999C116 7.87999 115.67 7.79999 115.24 7.79999C114.99 7.79999 114.78 7.82999 114.59 7.87999C114.41 7.92999 114.25 7.98999 114.11 8.05999C113.98 8.12999 113.86 8.18999 113.76 8.23999C113.66 8.28999 113.57 8.31999 113.49 8.31999C113.41 8.31999 113.34 8.29999 113.28 8.25999C113.23 8.21999 113.17 8.15999 113.12 8.07999L112.72 7.31999C113.03 7.05999 113.39 6.85999 113.82 6.70999C114.25 6.55999 114.72 6.48999 115.23 6.48999C115.66 6.48999 116.05 6.53999 116.4 6.63999C116.75 6.73999 117.04 6.87999 117.29 7.05999C117.54 7.23999 117.72 7.45999 117.85 7.70999C118.01 7.97999 118.08 8.25999 118.08 8.56999Z" fill="#164194"/>
<path d="M124.54 7.08009C124.58 7.02009 124.62 6.96009 124.67 6.90009C124.72 6.84009 124.78 6.79009 124.84 6.74009C124.9 6.69009 124.96 6.66009 125.03 6.63009C125.1 6.60009 125.17 6.59009 125.25 6.59009H126.47V14.4201H124.84V9.75009C124.84 9.56009 124.85 9.35009 124.86 9.14009C124.87 8.93009 124.89 8.70009 124.92 8.46009C124.84 8.67009 124.76 8.87009 124.67 9.05009C124.58 9.23009 124.49 9.39009 124.41 9.53009L121.69 13.9201C121.65 13.9801 121.61 14.0401 121.56 14.1001C121.51 14.1601 121.46 14.2101 121.4 14.2601C121.34 14.3101 121.28 14.3501 121.21 14.3801C121.14 14.4101 121.06 14.4201 120.99 14.4201H119.77V6.59009H121.4V11.2601C121.4 11.4501 121.39 11.6601 121.38 11.8701C121.37 12.0801 121.35 12.3101 121.32 12.5501C121.4 12.3401 121.48 12.1401 121.57 11.9601C121.66 11.7801 121.75 11.6201 121.83 11.4801L124.54 7.08009Z" fill="#164194"/>
<path d="M130.01 11.7301V14.4201H128.39V6.59009H131.04C131.58 6.59009 132.04 6.65009 132.43 6.78009C132.82 6.91009 133.14 7.08009 133.39 7.31009C133.64 7.54009 133.83 7.80009 133.95 8.11009C134.07 8.42009 134.13 8.76009 134.13 9.12009C134.13 9.51009 134.07 9.86009 133.94 10.1801C133.81 10.5001 133.62 10.7801 133.37 11.0101C133.11 11.2401 132.79 11.4201 132.4 11.5501C132.01 11.6801 131.56 11.7401 131.03 11.7401H130.01V11.7301ZM130.01 10.4801H131.04C131.55 10.4801 131.92 10.3601 132.16 10.1101C132.4 9.87009 132.51 9.53009 132.51 9.11009C132.51 8.92009 132.48 8.74009 132.42 8.58009C132.36 8.42009 132.27 8.28009 132.15 8.17009C132.03 8.06009 131.88 7.97009 131.69 7.91009C131.51 7.85009 131.29 7.82009 131.04 7.82009H130.01V10.4801Z" fill="#164194"/>
<path d="M143 10.5C143 11.07 142.9 11.6 142.71 12.09C142.52 12.58 142.25 13 141.9 13.36C141.55 13.72 141.13 14 140.63 14.2C140.14 14.4 139.59 14.51 138.99 14.51C138.39 14.51 137.84 14.41 137.35 14.2C136.86 14 136.43 13.72 136.08 13.36C135.73 13 135.45 12.58 135.26 12.09C135.07 11.6 134.97 11.07 134.97 10.5C134.97 9.92999 135.07 9.39999 135.26 8.90999C135.45 8.41999 135.73 7.99999 136.08 7.63999C136.43 7.27999 136.86 6.99999 137.35 6.79999C137.84 6.59999 138.39 6.48999 138.99 6.48999C139.59 6.48999 140.14 6.58999 140.63 6.79999C141.12 6.99999 141.55 7.27999 141.9 7.63999C142.25 7.99999 142.52 8.41999 142.71 8.90999C142.9 9.39999 143 9.92999 143 10.5ZM141.34 10.5C141.34 10.09 141.29 9.71999 141.18 9.39999C141.07 9.06999 140.92 8.79999 140.71 8.56999C140.51 8.33999 140.26 8.16999 139.97 8.04999C139.68 7.92999 139.35 7.86999 138.98 7.86999C138.61 7.86999 138.28 7.92999 137.99 8.04999C137.7 8.16999 137.45 8.34999 137.25 8.56999C137.05 8.79999 136.89 9.07999 136.78 9.39999C136.67 9.72999 136.62 10.09 136.62 10.5C136.62 10.91 136.67 11.28 136.78 11.61C136.89 11.94 137.04 12.21 137.25 12.44C137.45 12.67 137.7 12.84 137.99 12.96C138.28 13.08 138.61 13.14 138.98 13.14C139.35 13.14 139.68 13.08 139.97 12.96C140.26 12.84 140.51 12.67 140.71 12.44C140.91 12.21 141.07 11.94 141.18 11.61C141.29 11.28 141.34 10.92 141.34 10.5Z" fill="#164194"/>
<path d="M144.46 14.4201V6.59009H147.24C147.77 6.59009 148.21 6.64009 148.59 6.74009C148.97 6.84009 149.27 6.98009 149.5 7.16009C149.74 7.34009 149.91 7.56009 150.02 7.82009C150.13 8.08009 150.18 8.37009 150.18 8.69009C150.18 8.87009 150.15 9.04009 150.1 9.21009C150.05 9.38009 149.97 9.53009 149.86 9.68009C149.75 9.83009 149.61 9.96009 149.44 10.0801C149.27 10.2001 149.06 10.3001 148.82 10.3801C149.86 10.6201 150.39 11.2001 150.39 12.1001C150.39 12.4301 150.33 12.7401 150.2 13.0201C150.07 13.3001 149.89 13.5501 149.64 13.7601C149.4 13.9701 149.09 14.1301 148.74 14.2501C148.38 14.3701 147.97 14.4301 147.51 14.4301H144.46V14.4201ZM146.08 9.93009H147.14C147.37 9.93009 147.57 9.91009 147.74 9.87009C147.92 9.83009 148.06 9.77009 148.18 9.69009C148.3 9.61009 148.39 9.50009 148.45 9.36009C148.51 9.23009 148.54 9.06009 148.54 8.87009C148.54 8.68009 148.51 8.51009 148.46 8.37009C148.41 8.23009 148.33 8.12009 148.22 8.04009C148.11 7.96009 147.98 7.90009 147.81 7.86009C147.64 7.82009 147.45 7.80009 147.22 7.80009H146.06V9.93009H146.08ZM146.08 11.0401V13.1801H147.47C147.73 13.1801 147.94 13.1501 148.11 13.0901C148.28 13.0301 148.41 12.9401 148.51 12.8401C148.61 12.7401 148.68 12.6201 148.72 12.4801C148.76 12.3401 148.78 12.2101 148.78 12.0601C148.78 11.9001 148.76 11.7601 148.71 11.6301C148.66 11.5001 148.59 11.4001 148.48 11.3101C148.38 11.2201 148.24 11.1501 148.07 11.1101C147.9 11.0601 147.7 11.0401 147.45 11.0401H146.08Z" fill="#164194"/>
<path d="M158.61 14.4201H157.36C157.22 14.4201 157.11 14.3901 157.02 14.3201C156.93 14.2501 156.87 14.1701 156.82 14.0601L156.29 12.5601H153.16L152.63 14.0601C152.6 14.1501 152.54 14.2301 152.44 14.3101C152.35 14.3801 152.23 14.4201 152.1 14.4201H150.84L153.9 6.59009H155.56L158.61 14.4201ZM153.56 11.4501H155.9L155.05 9.05009C155 8.92009 154.95 8.78009 154.89 8.60009C154.83 8.43009 154.78 8.24009 154.72 8.05009C154.67 8.25009 154.62 8.44009 154.56 8.61009C154.5 8.78009 154.45 8.93009 154.4 9.06009L153.56 11.4501Z" fill="#164194"/>
<path d="M166.3 14.4201H164.67V11.0501H161.22V14.4201H159.59V6.59009H161.22V9.92009H164.67V6.59009H166.3V14.4201Z" fill="#164194"/>
<path d="M174.93 14.4201H173.3V11.0501H169.85V14.4201H168.22V6.59009H169.85V9.92009H173.3V6.59009H174.93V14.4201Z" fill="#164194"/>
<path d="M178.46 6.59009V9.78009H179.64C180.16 9.78009 180.61 9.84009 180.98 9.95009C181.35 10.0601 181.65 10.2201 181.88 10.4201C182.11 10.6201 182.28 10.8501 182.39 11.1101C182.5 11.3701 182.55 11.6501 182.55 11.9401C182.55 12.3101 182.48 12.6501 182.35 12.9601C182.22 13.2701 182.03 13.5201 181.78 13.7401C181.53 13.9601 181.23 14.1201 180.86 14.2401C180.5 14.3601 180.09 14.4201 179.63 14.4201H176.83V6.59009H178.46ZM178.46 11.0201V13.1701H179.64C179.9 13.1701 180.11 13.1401 180.28 13.0801C180.45 13.0201 180.58 12.9401 180.68 12.8501C180.78 12.7601 180.85 12.6401 180.89 12.5101C180.93 12.3801 180.95 12.2401 180.95 12.1001C180.95 11.9401 180.93 11.7901 180.89 11.6601C180.85 11.5301 180.78 11.4101 180.68 11.3201C180.58 11.2201 180.45 11.1501 180.28 11.1001C180.11 11.0501 179.9 11.0201 179.64 11.0201H178.46ZM185.21 14.4201H183.58V6.59009H185.21V14.4201Z" fill="#164194"/>
<path d="M188.84 10.3901L186.37 6.58008H187.99C188.1 6.58008 188.18 6.59008 188.23 6.62008C188.28 6.65008 188.33 6.70008 188.36 6.76008L190.04 9.53008C190.06 9.49008 190.08 9.44008 190.1 9.40008C190.12 9.36008 190.15 9.31008 190.18 9.26008L191.69 6.79008C191.73 6.72008 191.78 6.66008 191.83 6.63008C191.88 6.60008 191.95 6.58008 192.02 6.58008H193.57L191.08 10.3201L193.63 14.4201H192.01C191.9 14.4201 191.81 14.3901 191.75 14.3401C191.68 14.2901 191.63 14.2201 191.59 14.1501L189.89 11.2701C189.88 11.3101 189.86 11.3501 189.84 11.3901C189.82 11.4301 189.8 11.4601 189.79 11.5001L188.18 14.1601C188.13 14.2301 188.08 14.2901 188.02 14.3501C187.96 14.4101 187.88 14.4301 187.78 14.4301H186.27L188.84 10.3901Z" fill="#164194"/>
<path d="M204.4 14.4201H203.15C203.01 14.4201 202.9 14.3901 202.81 14.3201C202.72 14.2501 202.66 14.1701 202.61 14.0601L202.08 12.5601H198.95L198.42 14.0601C198.39 14.1501 198.33 14.2301 198.23 14.3101C198.14 14.3801 198.02 14.4201 197.89 14.4201H196.63L199.69 6.59009H201.35L204.4 14.4201ZM199.34 11.4501H201.68L200.83 9.05009C200.78 8.92009 200.73 8.78009 200.67 8.60009C200.61 8.42009 200.56 8.24009 200.5 8.05009C200.45 8.25009 200.4 8.44009 200.34 8.61009C200.28 8.78009 200.23 8.93009 200.18 9.06009L199.34 11.4501Z" fill="#164194"/>
<path d="M206.99 9.82008H207.7C207.84 9.82008 207.96 9.79008 208.07 9.74008C208.17 9.69008 208.27 9.60008 208.36 9.46008L209.94 7.01008C210.02 6.88008 210.11 6.78008 210.22 6.70008C210.33 6.62008 210.46 6.58008 210.61 6.58008H212L209.97 9.70008C209.88 9.84008 209.77 9.96008 209.65 10.0501C209.53 10.1401 209.39 10.2101 209.24 10.2701C209.47 10.3301 209.66 10.4301 209.82 10.5701C209.98 10.7101 210.13 10.9001 210.27 11.1501L212.19 14.4201H210.71C210.56 14.4201 210.44 14.3801 210.34 14.3001C210.24 14.2201 210.15 14.1101 210.06 13.9601L208.56 11.4101C208.52 11.3301 208.47 11.2701 208.42 11.2201C208.37 11.1701 208.32 11.1301 208.26 11.1001C208.2 11.0701 208.14 11.0501 208.07 11.0401C208 11.0301 207.92 11.0201 207.83 11.0201H206.98V14.4201H205.36V6.59008H206.98V9.82008H206.99Z" fill="#164194"/>
<path d="M214.89 9.82008H215.6C215.74 9.82008 215.86 9.79008 215.97 9.74008C216.07 9.69008 216.17 9.60008 216.26 9.46008L217.84 7.01008C217.92 6.88008 218.01 6.78008 218.12 6.70008C218.23 6.62008 218.36 6.58008 218.51 6.58008H219.9L217.87 9.70008C217.78 9.84008 217.67 9.96008 217.55 10.0501C217.43 10.1401 217.29 10.2101 217.14 10.2701C217.37 10.3301 217.56 10.4301 217.72 10.5701C217.88 10.7101 218.03 10.9001 218.17 11.1501L220.09 14.4201H218.61C218.46 14.4201 218.34 14.3801 218.24 14.3001C218.14 14.2201 218.05 14.1101 217.96 13.9601L216.46 11.4101C216.42 11.3301 216.37 11.2701 216.32 11.2201C216.27 11.1701 216.22 11.1301 216.16 11.1001C216.1 11.0701 216.04 11.0501 215.97 11.0401C215.9 11.0301 215.82 11.0201 215.73 11.0201H214.88V14.4201H213.26V6.59008H214.88V9.82008H214.89Z" fill="#164194"/>
<path d="M222.4 13.1901C222.48 13.1801 222.56 13.1501 222.64 13.1101C222.72 13.0701 222.8 13.0101 222.87 12.9301C222.95 12.8501 223.02 12.7501 223.08 12.6201L223.36 12.0601L220.22 6.58008H221.74C221.88 6.58008 221.99 6.61008 222.07 6.68008C222.15 6.75008 222.22 6.83008 222.28 6.94008L223.64 9.56008C223.73 9.73008 223.81 9.89008 223.88 10.0601C223.95 10.2301 224.01 10.3901 224.07 10.5601C224.17 10.2201 224.3 9.89008 224.46 9.56008L225.66 6.94008C225.7 6.85008 225.77 6.77008 225.86 6.70008C225.95 6.63008 226.06 6.59008 226.2 6.59008H227.54L224.38 13.3101C224.26 13.5501 224.14 13.7501 224.01 13.9001C223.88 14.0501 223.73 14.1801 223.58 14.2601C223.43 14.3501 223.26 14.4101 223.09 14.4401C222.92 14.4701 222.73 14.4901 222.53 14.4901C222.25 14.4901 222.04 14.4601 221.91 14.4101C221.78 14.3601 221.72 14.2901 221.72 14.1901V13.1901H222.16C222.24 13.2101 222.32 13.2001 222.4 13.1901Z" fill="#164194"/>
<path d="M232.64 11.4101C232.7 11.5401 232.76 11.6801 232.81 11.8201C232.86 11.6801 232.92 11.5401 232.98 11.4001C233.04 11.2601 233.11 11.1301 233.17 11.0101L235.35 6.85009C235.38 6.79009 235.42 6.74009 235.45 6.71009C235.49 6.68009 235.52 6.65009 235.57 6.63009C235.61 6.61009 235.66 6.60009 235.71 6.60009C235.76 6.60009 235.82 6.59009 235.9 6.59009H237.13V14.4201H235.7V9.61009C235.7 9.51009 235.7 9.41009 235.71 9.29009C235.71 9.17009 235.72 9.06009 235.73 8.93009L233.49 13.1801C233.37 13.4101 233.18 13.5301 232.92 13.5301H232.69C232.56 13.5301 232.45 13.5001 232.36 13.4401C232.26 13.3801 232.19 13.2901 232.13 13.1801L229.88 8.92009C229.89 9.04009 229.9 9.16009 229.91 9.28009C229.92 9.40009 229.92 9.51009 229.92 9.61009V14.4201H228.49V6.59009H229.72C229.79 6.59009 229.85 6.59009 229.9 6.60009C229.95 6.60009 230 6.61009 230.04 6.63009C230.08 6.65009 230.12 6.67009 230.15 6.71009C230.18 6.75009 230.22 6.79009 230.25 6.85009L232.44 11.0301C232.52 11.1501 232.58 11.2701 232.64 11.4101Z" fill="#164194"/>
<path d="M240.26 13.1901C240.34 13.1801 240.42 13.1501 240.5 13.1101C240.58 13.0701 240.66 13.0101 240.73 12.9301C240.81 12.8501 240.88 12.7501 240.94 12.6201L241.22 12.0601L238.08 6.58008H239.6C239.74 6.58008 239.85 6.61008 239.93 6.68008C240.01 6.75008 240.08 6.83008 240.14 6.94008L241.5 9.56008C241.59 9.73008 241.67 9.89008 241.74 10.0601C241.81 10.2301 241.87 10.3901 241.93 10.5601C242.03 10.2201 242.16 9.89008 242.32 9.56008L243.52 6.94008C243.56 6.85008 243.63 6.77008 243.72 6.70008C243.81 6.63008 243.92 6.59008 244.06 6.59008H245.4L242.24 13.3101C242.12 13.5501 242 13.7501 241.87 13.9001C241.74 14.0501 241.59 14.1801 241.44 14.2601C241.29 14.3501 241.12 14.4101 240.95 14.4401C240.78 14.4701 240.59 14.4901 240.39 14.4901C240.11 14.4901 239.9 14.4601 239.77 14.4101C239.64 14.3601 239.58 14.2901 239.58 14.1901V13.1901H240.02C240.1 13.2101 240.18 13.2001 240.26 13.1901Z" fill="#164194"/>
<path d="M252.09 6.59008V14.4201H250.46V7.81008H248.5C248.45 8.78008 248.37 9.62008 248.28 10.3301C248.19 11.0401 248.07 11.6401 247.94 12.1401C247.81 12.6401 247.66 13.0401 247.49 13.3401C247.32 13.6401 247.14 13.8901 246.94 14.0601C246.74 14.2301 246.53 14.3501 246.3 14.4101C246.07 14.4701 245.83 14.5001 245.58 14.5001C245.3 14.5001 245.09 14.4701 244.96 14.4201C244.83 14.3701 244.77 14.3001 244.77 14.2001V13.2001H245.2C245.32 13.2001 245.44 13.1801 245.56 13.1401C245.68 13.1001 245.81 13.0101 245.93 12.8701C246.05 12.7301 246.17 12.5201 246.28 12.2401C246.39 11.9601 246.5 11.5701 246.59 11.0801C246.68 10.5901 246.76 9.98008 246.83 9.24008C246.9 8.50008 246.94 7.62008 246.97 6.58008H252.09V6.59008Z" fill="#164194"/>
<path d="M258.14 14.4201V11.2201H257.39C257.23 11.2301 257.09 11.2701 256.95 11.3401C256.81 11.4201 256.69 11.5601 256.56 11.7601L255.31 13.8601C255.21 14.0301 255.08 14.1601 254.91 14.2601C254.74 14.3601 254.54 14.4101 254.3 14.4101H253.07L254.78 11.6901C254.89 11.5101 255.02 11.3501 255.16 11.2301C255.3 11.1101 255.46 11.0001 255.64 10.9301C255.36 10.8501 255.11 10.7401 254.91 10.6101C254.7 10.4801 254.53 10.3201 254.39 10.1501C254.26 9.98008 254.15 9.78008 254.09 9.57008C254.02 9.36008 253.99 9.13008 253.99 8.90008C253.99 8.57008 254.06 8.26008 254.19 7.97008C254.32 7.69008 254.51 7.44008 254.76 7.23008C255.01 7.02008 255.31 6.86008 255.68 6.75008C256.04 6.63008 256.46 6.58008 256.92 6.58008H259.76V14.4101H258.14V14.4201ZM255.6 8.90008C255.6 9.06008 255.62 9.21008 255.66 9.34008C255.7 9.47008 255.77 9.59008 255.87 9.68008C255.97 9.78008 256.11 9.85008 256.27 9.90008C256.44 9.95008 256.65 9.98008 256.91 9.98008H258.14V7.83008H256.92C256.66 7.83008 256.45 7.86008 256.28 7.92008C256.11 7.98008 255.98 8.06008 255.88 8.15008C255.78 8.25008 255.71 8.36008 255.67 8.49008C255.62 8.62008 255.6 8.75008 255.6 8.90008Z" fill="#164194"/>
<path d="M267.22 6.59009V7.90009H264.93V14.4301H263.3V7.89009H261.01V6.59009H267.22Z" fill="#164194"/>
<path d="M275.81 10.5C275.81 11.07 275.71 11.6 275.52 12.09C275.33 12.58 275.06 13 274.7 13.36C274.35 13.72 273.93 14 273.43 14.2C272.94 14.4 272.39 14.51 271.79 14.51C271.19 14.51 270.64 14.41 270.15 14.2C269.66 14 269.23 13.72 268.88 13.36C268.53 13 268.25 12.58 268.06 12.09C267.87 11.6 267.77 11.07 267.77 10.5C267.77 9.92999 267.87 9.39999 268.06 8.90999C268.25 8.41999 268.52 7.99999 268.88 7.63999C269.23 7.27999 269.66 6.99999 270.15 6.79999C270.64 6.59999 271.19 6.48999 271.79 6.48999C272.39 6.48999 272.94 6.58999 273.43 6.79999C273.92 6.99999 274.35 7.27999 274.7 7.63999C275.05 7.99999 275.32 8.41999 275.52 8.90999C275.71 9.39999 275.81 9.92999 275.81 10.5ZM274.15 10.5C274.15 10.09 274.1 9.71999 273.99 9.39999C273.88 9.06999 273.73 8.79999 273.52 8.56999C273.31 8.33999 273.07 8.16999 272.78 8.04999C272.49 7.92999 272.16 7.86999 271.79 7.86999C271.42 7.86999 271.09 7.92999 270.8 8.04999C270.51 8.16999 270.26 8.34999 270.06 8.56999C269.86 8.79999 269.7 9.07999 269.59 9.39999C269.48 9.72999 269.43 10.09 269.43 10.5C269.43 10.91 269.48 11.28 269.59 11.61C269.7 11.94 269.85 12.21 270.06 12.44C270.26 12.67 270.51 12.84 270.8 12.96C271.09 13.08 271.42 13.14 271.79 13.14C272.16 13.14 272.49 13.08 272.78 12.96C273.07 12.84 273.32 12.67 273.52 12.44C273.72 12.21 273.88 11.94 273.99 11.61C274.1 11.28 274.15 10.92 274.15 10.5Z" fill="#164194"/>
<path d="M278.88 11.7301V14.4201H277.26V6.59009H279.91C280.45 6.59009 280.91 6.65009 281.3 6.78009C281.69 6.91009 282.01 7.08009 282.26 7.31009C282.51 7.54009 282.7 7.80009 282.82 8.11009C282.94 8.42009 283 8.76009 283 9.12009C283 9.51009 282.94 9.86009 282.81 10.1801C282.68 10.5001 282.49 10.7801 282.24 11.0101C281.98 11.2401 281.66 11.4201 281.27 11.5501C280.88 11.6801 280.43 11.7401 279.9 11.7401H278.88V11.7301ZM278.88 10.4801H279.91C280.42 10.4801 280.79 10.3601 281.03 10.1101C281.27 9.86009 281.38 9.53009 281.38 9.11009C281.38 8.92009 281.35 8.74009 281.29 8.58009C281.23 8.42009 281.14 8.28009 281.02 8.17009C280.9 8.06009 280.75 7.97009 280.56 7.91009C280.38 7.85009 280.16 7.82009 279.91 7.82009H278.88V10.4801Z" fill="#164194"/>
<path d="M291.02 14.4201H289.39V11.0501H285.94V14.4201H284.31V6.59009H285.94V9.92009H289.39V6.59009H291.02V14.4201Z" fill="#164194"/>
<path d="M294.55 6.59009V9.78009H295.73C296.25 9.78009 296.7 9.84009 297.07 9.95009C297.44 10.0701 297.74 10.2201 297.97 10.4201C298.2 10.6201 298.37 10.8501 298.48 11.1101C298.59 11.3701 298.64 11.6501 298.64 11.9401C298.64 12.3101 298.57 12.6501 298.44 12.9601C298.31 13.2601 298.12 13.5201 297.87 13.7401C297.62 13.9601 297.32 14.1201 296.95 14.2401C296.58 14.3601 296.18 14.4201 295.72 14.4201H292.92V6.59009H294.55ZM294.55 11.0201V13.1701H295.73C295.98 13.1701 296.2 13.1401 296.37 13.0801C296.54 13.0201 296.67 12.9401 296.78 12.8501C296.89 12.7601 296.95 12.6401 296.99 12.5101C297.03 12.3801 297.05 12.2401 297.05 12.1001C297.05 11.9401 297.03 11.7901 296.99 11.6601C296.95 11.5301 296.88 11.4101 296.78 11.3201C296.68 11.2201 296.55 11.1501 296.38 11.1001C296.21 11.0501 296 11.0201 295.74 11.0201H294.55ZM301.3 14.4201H299.67V6.59009H301.3V14.4201Z" fill="#164194"/>
<path d="M304.93 10.3901L302.46 6.58008H304.08C304.19 6.58008 304.27 6.59008 304.32 6.62008C304.37 6.65008 304.41 6.70008 304.45 6.76008L306.13 9.53008C306.15 9.49008 306.17 9.44008 306.19 9.40008C306.21 9.36008 306.24 9.31008 306.27 9.26008L307.78 6.79008C307.82 6.72008 307.87 6.66008 307.92 6.63008C307.97 6.60008 308.04 6.58008 308.11 6.58008H309.66L307.17 10.3201L309.72 14.4201H308.1C307.99 14.4201 307.9 14.3901 307.84 14.3401C307.77 14.2901 307.72 14.2201 307.68 14.1501L305.98 11.2701C305.97 11.3101 305.95 11.3501 305.93 11.3901C305.91 11.4301 305.89 11.4601 305.88 11.5001L304.27 14.1601C304.22 14.2301 304.17 14.2901 304.1 14.3501C304.04 14.4101 303.96 14.4301 303.86 14.4301H302.35L304.93 10.3901Z" fill="#164194"/>
<path d="M317.8 11.4101C317.86 11.5401 317.92 11.6801 317.97 11.8201C318.02 11.6801 318.08 11.5401 318.14 11.4001C318.2 11.2601 318.27 11.1301 318.33 11.0101L320.51 6.85009C320.54 6.79009 320.58 6.74009 320.61 6.71009C320.64 6.68009 320.68 6.65009 320.73 6.63009C320.77 6.61009 320.82 6.60009 320.87 6.60009C320.92 6.60009 320.98 6.59009 321.06 6.59009H322.29V14.4201H320.86V9.61009C320.86 9.51009 320.86 9.41009 320.87 9.29009C320.88 9.17009 320.88 9.06009 320.89 8.93009L318.65 13.1801C318.53 13.4101 318.34 13.5301 318.08 13.5301H317.85C317.72 13.5301 317.61 13.5001 317.52 13.4401C317.42 13.3801 317.35 13.2901 317.29 13.1801L315.04 8.92009C315.05 9.04009 315.06 9.16009 315.07 9.28009C315.08 9.40009 315.08 9.51009 315.08 9.61009V14.4201H313.65V6.59009H314.88C314.95 6.59009 315.01 6.59009 315.06 6.60009C315.11 6.60009 315.16 6.61009 315.2 6.63009C315.24 6.65009 315.28 6.67009 315.31 6.71009C315.34 6.75009 315.38 6.79009 315.41 6.85009L317.6 11.0301C317.68 11.1501 317.74 11.2701 317.8 11.4101Z" fill="#164194"/>
<path d="M331.03 14.4201H329.78C329.64 14.4201 329.53 14.3901 329.44 14.3201C329.35 14.2501 329.29 14.1701 329.24 14.0601L328.71 12.5601H325.58L325.05 14.0601C325.02 14.1501 324.96 14.2301 324.86 14.3101C324.77 14.3801 324.65 14.4201 324.52 14.4201H323.26L326.32 6.59009H327.98L331.03 14.4201ZM325.98 11.4501H328.32L327.47 9.05009C327.42 8.92009 327.37 8.78009 327.31 8.60009C327.25 8.43009 327.2 8.24009 327.14 8.05009C327.09 8.25009 327.04 8.44009 326.98 8.61009C326.92 8.78009 326.87 8.93009 326.82 9.06009L325.98 11.4501Z" fill="#164194"/>
<path d="M336.89 7.81009H333.64V14.4201H332.01V6.59009H336.89V7.81009Z" fill="#164194"/>
<path d="M344.05 14.4201H342.8C342.66 14.4201 342.55 14.3901 342.46 14.3201C342.37 14.2501 342.31 14.1701 342.26 14.0601L341.73 12.5601H338.6L338.07 14.0601C338.04 14.1501 337.98 14.2301 337.88 14.3101C337.78 14.3901 337.67 14.4201 337.54 14.4201H336.28L339.34 6.59009H341L344.05 14.4201ZM339 11.4501H341.34L340.49 9.05009C340.44 8.92009 340.39 8.78009 340.33 8.60009C340.27 8.42009 340.22 8.24009 340.16 8.05009C340.11 8.25009 340.06 8.44009 340 8.61009C339.94 8.78009 339.89 8.93009 339.84 9.06009L339 11.4501Z" fill="#164194"/>
<path d="M349.91 8.56999C349.91 8.92999 349.83 9.25999 349.67 9.55999C349.51 9.85999 349.26 10.11 348.93 10.3C349.1 10.39 349.26 10.49 349.41 10.6C349.56 10.72 349.68 10.84 349.78 10.98C349.88 11.12 349.96 11.27 350.02 11.43C350.08 11.59 350.11 11.76 350.11 11.94C350.11 12.3 350.04 12.63 349.91 12.94C349.78 13.25 349.58 13.52 349.33 13.75C349.08 13.98 348.76 14.16 348.39 14.29C348.02 14.42 347.6 14.49 347.12 14.49C346.85 14.49 346.58 14.46 346.31 14.41C346.04 14.36 345.79 14.29 345.54 14.2C345.3 14.11 345.07 14 344.85 13.88C344.64 13.75 344.45 13.61 344.28 13.46L344.76 12.69C344.8 12.63 344.85 12.58 344.91 12.55C344.97 12.51 345.04 12.49 345.12 12.49C345.22 12.49 345.33 12.53 345.44 12.6C345.56 12.67 345.69 12.75 345.85 12.84C346.01 12.93 346.19 13.01 346.4 13.08C346.61 13.15 346.87 13.19 347.16 13.19C347.61 13.19 347.95 13.1 348.2 12.91C348.45 12.72 348.57 12.42 348.57 12.01C348.57 11.84 348.53 11.7 348.46 11.56C348.39 11.43 348.29 11.32 348.17 11.23C348.05 11.14 347.89 11.07 347.71 11.02C347.53 10.97 347.33 10.95 347.12 10.96H346V9.66999H347C347.45 9.66999 347.79 9.58999 348.03 9.41999C348.27 9.24999 348.39 9.00999 348.39 8.69999C348.39 8.41999 348.28 8.19999 348.06 8.03999C347.84 7.87999 347.51 7.79999 347.08 7.79999C346.83 7.79999 346.62 7.82999 346.43 7.87999C346.25 7.92999 346.09 7.98999 345.95 8.05999C345.82 8.12999 345.7 8.18999 345.6 8.23999C345.5 8.28999 345.41 8.31999 345.33 8.31999C345.25 8.31999 345.18 8.29999 345.12 8.25999C345.07 8.21999 345.01 8.15999 344.96 8.07999L344.56 7.31999C344.87 7.05999 345.23 6.85999 345.66 6.70999C346.09 6.55999 346.56 6.48999 347.07 6.48999C347.5 6.48999 347.89 6.53999 348.24 6.63999C348.59 6.73999 348.88 6.87999 349.13 7.05999C349.37 7.23999 349.56 7.45999 349.69 7.70999C349.85 7.97999 349.91 8.25999 349.91 8.56999Z" fill="#164194"/>
<path d="M356.38 7.08009C356.42 7.02009 356.46 6.96009 356.51 6.90009C356.56 6.84009 356.62 6.79009 356.68 6.74009C356.74 6.69009 356.8 6.66009 356.87 6.63009C356.94 6.60009 357.01 6.59009 357.09 6.59009H358.31V14.4201H356.68V9.75009C356.68 9.56009 356.68 9.35009 356.7 9.14009C356.71 8.93009 356.73 8.70009 356.77 8.46009C356.69 8.67009 356.61 8.87009 356.52 9.05009C356.43 9.23009 356.34 9.39009 356.26 9.53009L353.54 13.9201C353.5 13.9801 353.46 14.0401 353.41 14.1001C353.36 14.1601 353.3 14.2101 353.24 14.2601C353.18 14.3101 353.12 14.3501 353.05 14.3801C352.98 14.4101 352.91 14.4201 352.83 14.4201H351.61V6.59009H353.24V11.2601C353.24 11.4501 353.23 11.6601 353.22 11.8701C353.21 12.0801 353.19 12.3101 353.16 12.5501C353.24 12.3401 353.32 12.1401 353.41 11.9601C353.5 11.7801 353.59 11.6201 353.67 11.4801L356.38 7.08009Z" fill="#164194"/>
<path d="M366.94 14.4201H365.31V11.0501H361.86V14.4201H360.23V6.59009H361.86V9.92009H365.31V6.59009H366.94V14.4201Z" fill="#164194"/>
<path d="M376.42 10.5C376.42 11.07 376.32 11.6 376.13 12.09C375.94 12.58 375.67 13 375.32 13.36C374.97 13.72 374.55 14 374.05 14.2C373.56 14.4 373.01 14.51 372.41 14.51C371.81 14.51 371.26 14.41 370.77 14.2C370.28 14 369.85 13.72 369.5 13.36C369.15 13 368.87 12.58 368.68 12.09C368.49 11.6 368.39 11.07 368.39 10.5C368.39 9.92999 368.49 9.39999 368.68 8.90999C368.87 8.41999 369.15 7.99999 369.5 7.63999C369.85 7.27999 370.28 6.99999 370.77 6.79999C371.26 6.59999 371.81 6.48999 372.41 6.48999C373.01 6.48999 373.56 6.58999 374.05 6.79999C374.54 6.99999 374.97 7.27999 375.32 7.63999C375.67 7.99999 375.94 8.41999 376.13 8.90999C376.32 9.39999 376.42 9.92999 376.42 10.5ZM374.76 10.5C374.76 10.09 374.71 9.71999 374.6 9.39999C374.49 9.07999 374.34 8.79999 374.13 8.56999C373.93 8.33999 373.68 8.16999 373.39 8.04999C373.1 7.92999 372.77 7.86999 372.4 7.86999C372.03 7.86999 371.7 7.92999 371.41 8.04999C371.12 8.16999 370.87 8.34999 370.67 8.56999C370.47 8.78999 370.31 9.07999 370.2 9.39999C370.09 9.71999 370.04 10.09 370.04 10.5C370.04 10.91 370.09 11.28 370.2 11.61C370.31 11.94 370.46 12.21 370.67 12.44C370.87 12.67 371.12 12.84 371.41 12.96C371.7 13.08 372.03 13.14 372.4 13.14C372.77 13.14 373.1 13.08 373.39 12.96C373.68 12.84 373.93 12.67 374.13 12.44C374.33 12.21 374.49 11.94 374.6 11.61C374.71 11.28 374.76 10.92 374.76 10.5Z" fill="#164194"/>
<path d="M377.88 14.4201V6.59009H380.66C381.19 6.59009 381.63 6.64009 382.01 6.74009C382.38 6.84009 382.69 6.98009 382.92 7.16009C383.16 7.34009 383.33 7.56009 383.44 7.82009C383.55 8.08009 383.6 8.37009 383.6 8.69009C383.6 8.87009 383.57 9.04009 383.52 9.21009C383.47 9.38009 383.39 9.53009 383.28 9.68009C383.17 9.83009 383.03 9.96009 382.86 10.0801C382.69 10.2001 382.48 10.3001 382.24 10.3801C383.28 10.6201 383.81 11.2001 383.81 12.1001C383.81 12.4301 383.75 12.7401 383.62 13.0201C383.49 13.3001 383.31 13.5501 383.06 13.7601C382.82 13.9701 382.51 14.1301 382.16 14.2501C381.8 14.3701 381.39 14.4301 380.93 14.4301H377.88V14.4201ZM379.5 9.93009H380.56C380.79 9.93009 380.99 9.91009 381.16 9.87009C381.34 9.83009 381.48 9.77009 381.6 9.69009C381.72 9.61009 381.81 9.50009 381.87 9.36009C381.93 9.23009 381.96 9.06009 381.96 8.87009C381.96 8.68009 381.93 8.51009 381.88 8.37009C381.83 8.23009 381.75 8.12009 381.64 8.04009C381.53 7.96009 381.39 7.90009 381.23 7.86009C381.06 7.82009 380.87 7.80009 380.64 7.80009H379.48V9.93009H379.5ZM379.5 11.0401V13.1801H380.89C381.15 13.1801 381.36 13.1501 381.53 13.0901C381.7 13.0301 381.83 12.9401 381.93 12.8401C382.03 12.7401 382.1 12.6201 382.14 12.4801C382.18 12.3401 382.2 12.2101 382.2 12.0601C382.2 11.9001 382.18 11.7601 382.13 11.6301C382.08 11.5001 382.01 11.4001 381.9 11.3101C381.8 11.2201 381.66 11.1501 381.49 11.1101C381.32 11.0601 381.12 11.0401 380.87 11.0401H379.5Z" fill="#164194"/>
</svg>
