<svg width="345" height="36" viewBox="0 0 345 36" fill="none" xmlns="http://www.w3.org/2000/svg">
<g clip-path="url(#clip0_370_1740)">
<mask id="mask0_370_1740" style="mask-type:luminance" maskUnits="userSpaceOnUse" x="0" y="0" width="345" height="36">
<path d="M344.262 0H0V35.9668H344.262V0Z" fill="white"/>
</mask>
<g mask="url(#mask0_370_1740)">
<path fill-rule="evenodd" clip-rule="evenodd" d="M255.39 8.52952C248.992 8.58872 245.869 8.47927 245.176 8.38066C244.859 8.3356 243.06 11.1502 240.522 14.3411C238.541 16.5697 237.62 17.7547 235.711 20.2674C234.147 22.3275 232.762 24.4218 231.162 26.3161L236.367 8.48818L225.836 8.39506L217.882 34.3975C223.307 34.3713 226.748 34.3595 228.782 34.4082C228.981 34.413 230.145 32.5763 232.608 28.9403C236.388 23.7655 237.719 21.8281 242.275 16.2364L236.942 34.4251L247.482 34.254L255.39 8.52941L255.39 8.52952Z" fill="#092F6F"/>
<path fill-rule="evenodd" clip-rule="evenodd" d="M255.39 8.52967C248.992 8.58883 245.869 8.47942 245.175 8.3808C244.859 8.33575 243.06 11.1503 240.522 14.3412C238.541 16.5699 237.62 17.7548 235.711 20.2675C234.147 22.3276 232.762 24.4219 231.162 26.3163L236.367 8.48832L225.836 8.39521L217.882 34.3977C223.307 34.3714 226.748 34.3596 228.782 34.4084C228.981 34.4131 230.145 32.5764 232.608 28.9404C236.388 23.7656 237.719 21.8283 242.275 16.2365L236.942 34.4252L247.482 34.2542L255.39 8.52956L255.39 8.52967ZM248.816 7.34271C250.426 7.36598 252.588 7.37228 255.371 7.34679C255.488 7.34297 255.608 7.3724 255.724 7.43953C256.161 7.69317 256.365 8.38697 256.182 8.98887L248.28 34.6906C248.156 35.1233 247.851 35.4315 247.492 35.4373L236.999 35.6075C236.874 35.6189 236.746 35.5929 236.623 35.5248C236.182 35.2815 235.968 34.5917 236.145 33.9845L240.076 20.5742C237.999 23.2097 236.657 25.0542 234.68 27.7688C234.236 28.3789 233.76 29.033 233.237 29.7487C232.271 31.1747 231.925 31.6909 231.612 32.1568C230.074 34.4497 229.299 35.604 228.769 35.5915C227.751 35.5674 226.387 35.5581 224.604 35.5581C222.815 35.5581 220.603 35.568 217.898 35.5807C217.782 35.5839 217.663 35.5541 217.549 35.488C217.112 35.2343 216.907 34.5405 217.091 33.9386L225.038 7.96161C225.164 7.5213 225.476 7.21025 225.84 7.21233L236.325 7.30504C236.445 7.29709 236.568 7.32337 236.686 7.38884C237.127 7.63223 237.341 8.32191 237.164 8.92919L233.437 21.6968L233.452 21.6764C234 20.9192 234.553 20.1547 235.119 19.4092C236.092 18.1287 236.809 17.1902 237.514 16.3164C238.217 15.4434 238.944 14.5894 239.944 13.4633C241.041 12.0841 241.979 10.8041 242.724 9.78733C243.904 8.17824 244.68 7.11932 245.263 7.20231C245.639 7.25571 246.772 7.31298 248.816 7.34271Z" fill="white"/>
<path fill-rule="evenodd" clip-rule="evenodd" d="M16.241 34.4456C23.1648 34.235 31.8031 34.5727 38.7347 34.5907C45.0032 34.607 48.9706 26.9583 46.7956 21.2243C44.4811 18.6357 38.7352 18.7817 33.1199 19.2081C32.7375 20.8801 32.6406 21.6078 32.5277 22.4959C32.4801 22.8745 34.6707 22.4462 36.8591 22.7771C37.7701 27.3303 35.8043 29.7467 33.3604 30.0098C31.9768 30.1587 30.0215 30.0201 28.3525 29.8635C29.3206 25.4922 31.5443 16.7558 32.8533 12.7917C41.8405 12.7559 46.2858 12.5092 51.8952 12.5874C52.8223 12.6003 52.7591 10.5709 53.1463 8.66912L24.7349 8.5979C22.7182 13.6944 18.6382 26.8366 16.241 34.4456Z" fill="#092F6F"/>
<path fill-rule="evenodd" clip-rule="evenodd" d="M16.2409 34.4456C23.1647 34.235 31.803 34.5727 38.7346 34.5906C45.0031 34.6069 48.9705 26.9583 46.7955 21.2243C44.481 18.6357 38.7351 18.7817 33.1201 19.208C32.7377 20.8801 32.6405 21.6077 32.5279 22.4959C32.48 22.8744 34.6706 22.4461 36.859 22.777C37.77 27.3302 35.8042 29.7466 33.3605 30.0097C31.9767 30.1586 30.0214 30.02 28.3524 29.8635C29.3208 25.4922 31.5442 16.7557 32.8532 12.7917C41.8404 12.7558 46.2857 12.5091 51.8951 12.5873C52.8223 12.6002 52.759 10.5708 53.1462 8.66906L24.7349 8.59784C22.7182 13.6944 18.6382 26.8365 16.2409 34.4456ZM30.7665 35.6711C25.826 35.5844 20.6886 35.494 16.2577 35.6287V35.628C16.1387 35.6313 16.0173 35.6004 15.901 35.5312C15.4659 35.2725 15.2656 34.5767 15.4532 33.9772C15.712 33.1557 15.9907 32.2692 16.2839 31.3359C18.7155 23.5984 22.1675 12.614 23.9806 8.03167C24.1263 7.66406 24.4094 7.41455 24.7347 7.41455L53.0923 7.48562C53.186 7.47757 53.2827 7.49056 53.3783 7.52756C53.8356 7.70437 54.1024 8.3586 53.9742 8.98886C53.8786 9.45724 53.8111 9.94851 53.748 10.4079C53.492 12.2699 53.283 13.7894 51.8881 13.7701C48.8821 13.7283 46.2058 13.7801 42.9798 13.8424C40.3292 13.8936 37.3076 13.9522 33.4125 13.9718C32.8602 15.7296 32.177 18.1814 31.503 20.7374C30.7547 23.5758 30.0247 26.5166 29.4993 28.7751C30.005 28.8151 30.5099 28.8484 30.9868 28.8678C31.8192 28.9018 32.6222 28.8989 33.2964 28.8265C33.5851 28.7955 33.86 28.7313 34.1153 28.6342C34.7743 28.384 35.3381 27.9175 35.7119 27.2383C36.0819 26.566 36.2787 25.6476 36.2122 24.4762C36.2014 24.2836 36.1837 24.0855 36.1589 23.8821C35.3136 23.8048 34.5001 23.823 33.8638 23.8372C33.269 23.8505 32.8101 23.861 32.5319 23.7942C31.8763 23.6364 31.5666 23.1765 31.6794 22.2917C31.737 21.8362 31.7914 21.4197 31.8846 20.8768C31.9751 20.3496 32.1 19.7228 32.2985 18.8554L32.299 18.8555C32.4027 18.3968 32.7043 18.0527 33.0727 18.025C35.9114 17.8097 38.7857 17.6652 41.2526 17.9025C43.8436 18.1521 46.0226 18.8353 47.3373 20.3057L47.3367 20.3064C47.4248 20.405 47.5002 20.5295 47.5562 20.6768C48.0336 21.9359 48.2563 23.2734 48.2547 24.614C48.252 26.5092 47.8012 28.401 46.9883 30.0726C46.1912 31.7118 45.0422 33.1472 43.6258 34.1678C42.2285 35.1749 40.57 35.7783 38.7346 35.7736C36.2373 35.7672 33.5323 35.7195 30.7663 35.6709L30.7665 35.6711Z" fill="white"/>
<path fill-rule="evenodd" clip-rule="evenodd" d="M154.444 34.1392L164.622 34.3289C166.97 27.4976 169.854 17.5795 171.98 12.2902C174.178 12.0842 175.707 12.0023 178.853 12.2763C180.324 12.3986 180.352 14.204 180.285 14.4758C179.333 18.3338 178.318 18.1629 175.456 18.1763C172.857 18.2571 172.213 18.0907 171.877 18.0533C171.708 18.0347 171.625 18.7906 170.375 22.582C174.004 22.6346 177.721 22.791 183.248 22.2733C186.696 21.9503 190.121 18.5516 190.57 13.5566C190.903 9.84566 187.149 8.04099 186.004 8.06537C177.751 7.68314 168.694 7.69438 162.512 7.82736L154.444 34.1392Z" fill="#092F6F"/>
<path fill-rule="evenodd" clip-rule="evenodd" d="M171.98 12.2902C174.178 12.0842 175.707 12.0024 178.853 12.2764C180.324 12.3987 180.352 14.204 180.285 14.4759C179.333 18.3339 178.318 18.163 175.456 18.1764C172.858 18.2572 172.213 18.0908 171.877 18.0534C171.709 18.0348 171.625 18.7907 170.375 22.5821C174.004 22.6347 177.721 22.7911 183.248 22.2734C186.696 21.9503 190.121 18.5517 190.57 13.5566C190.903 9.84574 187.149 8.04106 186.003 8.06545C177.751 7.68322 168.694 7.69442 162.513 7.82744L154.444 34.1396L164.622 34.3293C166.971 27.4979 169.854 17.5795 171.98 12.2902ZM164.612 35.512L154.445 35.3225C154.334 35.3227 154.22 35.2929 154.111 35.2294C153.674 34.9758 153.469 34.282 153.653 33.6801L161.714 7.39191C161.839 6.95873 162.144 6.65002 162.503 6.64426C165.908 6.571 170.187 6.53471 174.725 6.58073C178.441 6.61825 182.32 6.71055 186.022 6.8819C186.152 6.88108 186.284 6.89162 186.415 6.91367C187.173 7.04282 188.386 7.57132 189.407 8.50331C190.515 9.51554 191.426 11.0076 191.449 13.0272C191.452 13.2649 191.444 13.4902 191.425 13.7002C191.182 16.4068 190.171 18.6918 188.759 20.3729C187.253 22.1665 185.282 23.271 183.306 23.4562C178.466 23.9095 174.989 23.8466 171.748 23.7881C171.296 23.7802 170.846 23.7717 170.424 23.7657C170.29 23.7763 170.152 23.7439 170.021 23.6627C169.588 23.3937 169.395 22.6914 169.59 22.0945C170.164 20.3562 170.478 19.3056 170.674 18.649C170.732 18.4546 170.785 18.2793 170.834 18.1214C170.014 20.5568 169.146 23.2808 168.283 25.9912C167.288 29.113 166.299 32.2175 165.4 34.8345L165.399 34.8338C165.26 35.239 164.959 35.5175 164.612 35.512ZM172.508 13.4304C172.044 14.6252 171.545 16.0275 171.024 17.5578C171.247 16.9823 171.457 16.8163 171.944 16.8703L172.123 16.8966C172.498 16.951 173.255 17.061 175.439 16.9934C175.445 16.9933 175.45 16.9934 175.456 16.9934L175.814 16.9924C177.93 16.9882 178.738 16.986 179.444 14.1991C179.442 14.113 179.426 13.9897 179.381 13.8604C179.336 13.7325 179.25 13.6046 179.097 13.5327C179.019 13.4964 178.926 13.4711 178.814 13.4607C178.81 13.4604 178.805 13.4601 178.799 13.4597C177.231 13.3233 176.083 13.2751 175.068 13.2867C174.212 13.2964 173.411 13.3503 172.508 13.4304Z" fill="white"/>
<path fill-rule="evenodd" clip-rule="evenodd" d="M108.781 34.4157L130.359 34.3772L131.409 30.3245L117.647 30.0799L130.113 17.9151C132.254 21.4729 136.153 30.0245 137.852 34.3363L150.948 34.3924C148.664 28.7887 145.924 22.4925 143.871 17.7193C140.022 8.76932 140.16 4.93403 132.542 12.0271C131.003 13.459 112.8 30.0252 108.781 34.4157Z" fill="#092F6F"/>
<path fill-rule="evenodd" clip-rule="evenodd" d="M108.781 34.4157L130.358 34.3772L131.409 30.3244L117.647 30.0798L130.112 17.9151C132.254 21.4729 136.153 30.0245 137.851 34.3363L150.948 34.3924C148.664 28.7886 145.924 22.4924 143.871 17.7193C140.022 8.76928 140.16 4.93402 132.541 12.027C131.003 13.459 112.8 30.0252 108.781 34.4157ZM130.358 35.5604L108.836 35.5987C108.565 35.6224 108.29 35.469 108.108 35.1535C107.812 34.6411 107.874 33.8953 108.246 33.4878C111.693 29.7221 125.413 17.1425 130.373 12.5951C131.165 11.8688 131.717 11.3631 132.06 11.0434C137.849 5.65398 139.677 6.03703 141.741 10.2484C142.21 11.2056 142.68 12.3806 143.229 13.7525C143.636 14.7697 144.088 15.899 144.612 17.1161C144.944 17.888 145.294 18.7002 145.657 19.5426C147.545 23.9213 149.786 29.1212 151.699 33.8127L151.697 33.814C151.767 33.9852 151.806 34.1825 151.806 34.3926C151.806 35.0458 151.422 35.5756 150.948 35.5756L137.875 35.5195C137.563 35.5308 137.257 35.3062 137.098 34.9023C136.191 32.6001 134.644 29.064 133.076 25.7373C131.967 23.3837 130.848 21.1394 129.944 19.5269L120.295 28.9438L131.348 29.1403C131.463 29.129 131.582 29.1495 131.698 29.2065C132.147 29.4267 132.38 30.106 132.22 30.7235L131.17 34.7763L131.167 34.7751C131.048 35.2328 130.731 35.5604 130.358 35.5604Z" fill="white"/>
<path fill-rule="evenodd" clip-rule="evenodd" d="M215.526 30.0673C208.399 29.6653 203.037 30.0813 202.115 29.4854C200.336 28.3357 201.256 23.4391 203.277 18.3853C204.626 15.5497 205.044 13.6233 206.527 13.2916C208.098 12.94 209.98 13.2293 212.6 13.1482C217.33 13.2184 219.229 13.1538 220.444 13.1031C220.635 13.0953 220.929 11.6104 221.87 8.5628C215.392 8.58674 208.021 8.33763 202.243 8.67633C199.316 8.84794 197.589 10.8193 195.763 13.1384C191.224 18.9032 184.622 34.3581 197.537 34.3834L214.48 34.4167L215.526 30.0673Z" fill="#092F6F"/>
<path fill-rule="evenodd" clip-rule="evenodd" d="M203.277 18.3851C204.626 15.5495 205.044 13.6231 206.527 13.2913C208.098 12.9398 209.979 13.229 212.6 13.148C217.329 13.2182 219.229 13.1536 220.443 13.1029C220.635 13.0951 220.928 11.6102 221.869 8.56258C215.392 8.58656 208.021 8.33741 202.243 8.67611C199.316 8.84772 197.589 10.819 195.763 13.1383C191.224 18.9029 184.622 34.3579 197.536 34.3832L214.479 34.4165L215.526 30.0672C208.399 29.6653 203.036 30.0812 202.114 29.4853C200.335 28.3357 201.256 23.439 203.277 18.3852L203.277 18.3851ZM207.443 28.6731C209.672 28.6892 212.461 28.7093 215.559 28.8841V28.8853C215.638 28.8896 215.717 28.9087 215.795 28.9443C216.245 29.1492 216.489 29.8182 216.34 30.4382L215.303 34.7481C215.199 35.2398 214.87 35.5994 214.479 35.5994L197.537 35.5661C194.966 35.5611 193.096 34.9628 191.784 33.9519C190.227 32.7524 189.439 31.0073 189.202 28.9762C188.98 27.0743 189.266 24.9546 189.859 22.8382C190.987 18.809 193.262 14.7023 195.18 12.2658C196.131 11.0589 197.06 9.93856 198.166 9.07178C199.302 8.18117 200.59 7.58787 202.209 7.49282C206.166 7.26098 210.879 7.3044 215.541 7.34738C217.67 7.36697 219.789 7.38657 221.819 7.37955C221.948 7.36901 222.08 7.39819 222.206 7.4723C222.643 7.72838 222.846 8.42426 222.66 9.02631C222.283 10.2477 222.019 11.1862 221.821 11.8892C221.374 13.4747 221.153 14.2574 220.467 14.2858C219.863 14.311 219.085 14.3397 217.846 14.3537C216.627 14.3674 214.97 14.366 212.609 14.3311C211.601 14.3618 210.703 14.3389 209.89 14.3182C208.621 14.2858 207.566 14.2587 206.664 14.4604C205.928 14.6252 205.498 15.6225 204.841 17.1454C204.596 17.7147 204.325 18.344 204.011 19.0053C203.734 19.6998 203.486 20.3679 203.271 20.9988C202.604 22.9615 202.159 24.7923 202.051 26.2351C201.969 27.3259 202.076 28.1079 202.437 28.382C202.468 28.4054 202.474 28.4112 202.478 28.4135C202.828 28.6399 204.687 28.6533 207.443 28.6731H207.443Z" fill="white"/>
<path fill-rule="evenodd" clip-rule="evenodd" d="M92.1404 12.8375C92.1557 12.9606 92.2112 12.8949 93.3468 12.9499L99.111 13.2464L92.8139 34.1157L103.393 34.2521L110.102 13.2715C112.506 13.1688 113.417 13.2719 115.299 13.1726C119.694 13.0666 118.701 13.956 119.084 9.88051C119.089 9.17822 119.17 8.78474 119.105 8.58258C119.067 8.46126 118.418 8.52587 116.621 8.55493H96.0498C92.366 8.477 92.4064 8.39854 92.3685 8.72543C92.2925 9.37666 92.2556 10.8684 92.1404 12.8375Z" fill="#092F6F"/>
<path fill-rule="evenodd" clip-rule="evenodd" d="M92.4939 14.1062C91.5218 14.09 91.4278 14.0899 91.2983 13.0867C91.2813 12.977 91.2754 12.8622 91.2818 12.7447C91.3344 11.8507 91.3667 11.1585 91.3941 10.5706C91.4359 9.67051 91.4679 8.98862 91.5202 8.53981C91.5204 8.53721 91.5207 8.53432 91.521 8.53172C91.6166 7.70754 91.657 7.35775 92.7308 7.30831C93.0139 7.29528 93.4856 7.30761 94.3045 7.32924C94.7575 7.34119 95.3184 7.35611 95.9875 7.37037C96.0083 7.36844 96.029 7.36721 96.0497 7.36721H116.621V7.3717C117.11 7.36391 117.523 7.35281 117.858 7.3439C119.127 7.3105 119.635 7.29666 119.893 8.10454C120.02 8.50255 120.001 8.80535 119.972 9.25305C119.96 9.44701 119.945 9.68613 119.943 9.87485C119.943 9.92566 119.941 9.97699 119.936 10.0288C119.874 10.6913 119.849 11.2537 119.83 11.6926C119.779 12.8963 119.752 13.4966 119.156 14.0155C118.72 14.3945 118.21 14.3832 117.194 14.3608C116.721 14.3502 116.115 14.337 115.338 14.355C115.335 14.3552 115.332 14.3554 115.329 14.3556C114.397 14.4048 113.688 14.4042 112.917 14.4038C112.278 14.4034 111.595 14.403 110.671 14.4336L104.18 34.7299L104.179 34.7288C104.044 35.1478 103.739 35.4389 103.386 35.4351L92.8633 35.2995C92.7373 35.3098 92.6081 35.2818 92.4836 35.2108C92.045 34.9599 91.8371 34.2659 92.0191 33.6611L97.8415 14.3659L93.3163 14.133C92.9099 14.1134 92.6603 14.1089 92.4939 14.1062ZM92.1403 12.8374C92.1559 12.9606 92.2111 12.8948 93.3467 12.9499L99.1109 13.2464L92.8138 34.1157L103.393 34.2521L110.102 13.2714C112.506 13.1687 113.417 13.2719 115.299 13.1726C119.694 13.0666 118.701 13.956 119.084 9.88046C119.089 9.17816 119.17 8.78468 119.105 8.58253C119.066 8.4612 118.418 8.52582 116.621 8.55488H96.0497C92.366 8.47694 92.4064 8.39848 92.3684 8.72538C92.2925 9.3766 92.2556 10.8683 92.1403 12.8374Z" fill="white"/>
<path fill-rule="evenodd" clip-rule="evenodd" d="M268.693 8.60277L258.294 8.59375L250.204 34.3892L260.721 34.3687L268.693 8.60277Z" fill="#092F6F"/>
<path fill-rule="evenodd" clip-rule="evenodd" d="M268.693 8.60259L258.294 8.59343L250.204 34.3888L260.721 34.3684L268.693 8.60259ZM258.294 7.4104L268.645 7.41957C268.773 7.40958 268.904 7.43875 269.03 7.51242C269.467 7.76854 269.669 8.46438 269.483 9.06644L261.512 34.8324L261.511 34.8319C261.38 35.2549 261.075 35.5516 260.721 35.5516L250.204 35.572V35.5714C250.091 35.5716 249.975 35.5405 249.864 35.4745C249.429 35.2158 249.229 34.5199 249.417 33.9204L257.493 8.16722C257.617 7.72457 257.929 7.4104 258.294 7.4104Z" fill="white"/>
<path fill-rule="evenodd" clip-rule="evenodd" d="M276.277 18.414C279.505 15.9932 283.135 12.9046 285.893 10.9666C286.827 10.2116 287.859 9.51447 288.86 8.51456C285.583 8.34774 283.561 8.16559 281.961 8.19505C281.749 8.19888 279.775 9.79646 276.492 12.068C271.554 15.2043 267.763 17.4246 267.336 19.6698C267.126 20.771 268.622 24.4228 272.372 34.3394L283.704 34.3135C279.856 26.5225 278.439 24.0107 276.277 18.414Z" fill="#092F6F"/>
<path fill-rule="evenodd" clip-rule="evenodd" d="M288.86 8.51454C285.583 8.34772 283.561 8.16557 281.961 8.19503C281.748 8.19886 279.775 9.79644 276.492 12.068C271.553 15.2042 267.763 17.4245 267.336 19.6698C267.126 20.771 268.623 24.4228 272.372 34.3394L283.703 34.3135C279.855 26.5224 278.439 24.0108 276.277 18.4142C279.505 15.9933 283.135 12.9048 285.893 10.9667C286.827 10.2117 287.858 9.51445 288.86 8.51454ZM281.032 16.06C279.845 17.0061 278.638 17.968 277.437 18.8858C278.937 22.6626 280.162 25.1125 282.333 29.4631C282.99 30.779 283.728 32.2559 284.414 33.6453V33.6466C284.509 33.8365 284.562 34.066 284.562 34.3134C284.562 34.9666 284.18 35.4964 283.706 35.4964L272.445 35.5221C272.108 35.5615 271.774 35.3249 271.607 34.8867C270.358 31.5828 270.231 31.2442 270.097 30.8955C267.348 23.6593 266.242 20.7503 266.504 19.3727C267 16.7658 270.387 14.6246 274.952 11.7414L276.134 10.9916V10.9934C277.707 9.90437 278.994 8.95812 279.915 8.27951C280.997 7.48476 281.633 7.01761 281.95 7.01186C283.063 6.99145 284.336 7.06786 286.057 7.17074C286.894 7.22085 287.831 7.27729 288.839 7.32877C289.113 7.32083 289.383 7.49107 289.555 7.81852C289.835 8.34883 289.749 9.09058 289.364 9.47471C288.623 10.2143 287.869 10.793 287.148 11.3469C286.881 11.5519 286.617 11.7541 286.385 11.9404C286.353 11.9711 286.321 11.9992 286.283 12.0241C284.719 13.124 282.901 14.5731 281.032 16.06Z" fill="white"/>
<path fill-rule="evenodd" clip-rule="evenodd" d="M6.96288 34.3556C6.34162 31.5806 4.26183 26.2066 4.25695 24.1055C4.25119 21.651 5.95983 17.3217 6.86012 13.8974C3.44491 13.918 4.12638 13.5357 2.84046 17.5392C2.29143 19.2484 1.87359 20.4921 1.58442 21.4658C0.713455 24.3993 0.670426 23.5711 1.23673 25.603C1.53345 26.6674 2.05275 28.0725 2.82842 30.6438C4.24056 35.197 3.26406 34.3701 6.96288 34.3556Z" fill="#0B3171"/>
<path fill-rule="evenodd" clip-rule="evenodd" d="M6.96289 34.3557C6.34164 31.5807 4.26185 26.2068 4.25697 24.1056C4.25121 21.6511 5.95985 17.3218 6.86014 13.8976C3.44493 13.9181 4.1264 13.5358 2.84047 17.5393C2.29145 19.2485 1.8736 20.4922 1.58444 21.4659C0.713467 24.3994 0.670439 23.5712 1.23674 25.6031C1.53346 26.6675 2.05276 28.0726 2.82844 30.644C4.24057 35.1972 3.26408 34.3702 6.96289 34.3557ZM6.60575 29.9136C7.07578 31.4179 7.52938 32.8692 7.78417 34.0077L7.78347 34.008C7.80803 34.1179 7.82122 34.2346 7.82122 34.3557C7.82122 35.009 7.43688 35.5387 6.96289 35.5387C6.40761 35.5409 5.9358 35.5639 5.55442 35.5825C4.56271 35.6306 4.07036 35.6547 3.5748 35.2097C3.07219 34.7584 2.90268 34.1473 2.5668 32.9345C2.43136 32.4455 2.26253 31.8362 2.04998 31.1482C2.04442 31.1319 2.03905 31.1155 2.03398 31.0986C1.62766 29.7514 1.2903 28.7224 1.02012 27.8971C0.784218 27.1772 0.599588 26.6136 0.435629 26.0253C0.426487 25.9923 0.350173 25.7295 0.283991 25.5013L0.285184 25.5006C0.284788 25.4994 0.28439 25.4982 0.283991 25.4966C0.0627973 24.7333 -0.0383607 24.3835 0.0115227 23.7887C0.0478918 23.3559 0.16157 23.0049 0.370743 22.3587C0.485513 22.0043 0.63407 21.5459 0.789981 21.0206C1.00372 20.3009 1.25046 19.5423 1.55423 18.6073C1.63134 18.3701 1.72961 18.0674 2.05286 17.0614C2.25657 16.4268 2.38545 15.9942 2.49406 15.6291C2.87096 14.3625 3.06842 13.6999 3.60591 13.2129C4.16655 12.705 4.77588 12.7078 6.05197 12.7139C6.27992 12.7149 6.53301 12.716 6.81363 12.7148C6.92573 12.7063 7.0409 12.7281 7.15309 12.7841C7.59926 13.0068 7.82979 13.6862 7.66822 14.3012C7.36423 15.4576 6.99698 16.6356 6.6292 17.8151C5.87231 20.2434 5.11213 22.6818 5.11552 24.1057C5.118 25.1523 5.88262 27.5999 6.60575 29.9136Z" fill="white"/>
<path fill-rule="evenodd" clip-rule="evenodd" d="M238.278 4.80584C243.187 1.42442 244.07 8.60496 246.664 1.64177C242.868 4.35113 242.512 -0.413783 240.441 1.78393L238.278 4.80595L238.278 4.80584Z" fill="#092F6F"/>
<path fill-rule="evenodd" clip-rule="evenodd" d="M246.664 1.64151C242.868 4.35087 242.512 -0.414041 240.441 1.78367L238.278 4.8057C243.186 1.4243 244.071 8.60471 246.664 1.64151ZM242.741 5.54158C241.791 5.10579 240.589 4.55551 238.702 5.83645C238.376 6.09049 237.955 6.02925 237.676 5.65003C237.337 5.19153 237.333 4.44143 237.665 3.97521L239.829 0.953179C239.856 0.915242 239.885 0.879769 239.916 0.846489C241.29 -0.611529 242.096 -0.0244045 243.072 0.687347C243.756 1.18573 244.586 1.79038 246.27 0.588466L246.271 0.590247C246.508 0.422068 246.799 0.408373 247.055 0.588466C247.477 0.885659 247.644 1.59824 247.428 2.17988C245.675 6.88605 244.487 6.34126 242.742 5.54169L242.741 5.54158Z" fill="white"/>
<path fill-rule="evenodd" clip-rule="evenodd" d="M12.4062 34.2653C11.785 31.4903 9.70518 26.1163 9.7003 24.0152C9.69454 21.5607 11.4032 17.2314 12.3035 13.8071C8.88826 13.8277 9.56976 13.4454 8.28381 17.4489C7.7348 19.1581 7.31695 20.4017 7.02777 21.3755C6.15681 24.3089 6.11378 23.4808 6.68011 25.5126C6.9768 26.577 7.49611 27.9822 8.2718 30.5535C9.68393 35.1067 8.70741 34.2798 12.4062 34.2653Z" fill="#0B3171"/>
<path fill-rule="evenodd" clip-rule="evenodd" d="M12.4065 34.2654C11.7852 31.4904 9.70543 26.1164 9.70056 24.0153C9.69479 21.5608 11.4035 17.2315 12.3037 13.8072C8.88851 13.8278 9.56998 13.4455 8.28406 17.449C7.73505 19.1582 7.31721 20.4019 7.02803 21.3756C6.15707 24.309 6.11403 23.4809 6.68033 25.5127C6.97705 26.5772 7.49636 27.9823 8.27202 30.5536C9.68416 35.1068 8.70766 34.2799 12.4065 34.2654ZM12.0494 29.8232C12.5194 31.3276 12.973 32.7789 13.2278 33.9174L13.2271 33.9177C13.2516 34.0276 13.2648 34.1443 13.2648 34.2654C13.2648 34.9186 12.8805 35.4484 12.4065 35.4484C11.8512 35.4506 11.3794 35.4736 10.998 35.4922C10.0063 35.5403 9.51395 35.5644 9.01839 35.1194C8.51578 34.668 8.34626 34.0569 8.01039 32.8442C7.87497 32.3551 7.70613 31.7457 7.49348 31.0579C7.48801 31.0416 7.48265 31.0252 7.47759 31.0083C7.07125 29.6611 6.73389 28.632 6.46372 27.8067C6.22781 27.0869 6.04319 26.5233 5.87922 25.935C5.87009 25.9019 5.79378 25.6392 5.72759 25.411L5.72877 25.4103C5.7284 25.4091 5.72799 25.4078 5.72759 25.4063C5.5064 24.643 5.40523 24.2932 5.45513 23.6984C5.49148 23.2656 5.60517 22.9146 5.81432 22.2684C5.92912 21.914 6.07765 21.4556 6.23357 20.9302C6.44732 20.2105 6.69406 19.4519 6.99781 18.517C7.07494 18.2797 7.17322 17.9771 7.49647 16.971C7.70018 16.3365 7.82906 15.9039 7.93766 15.5387C8.31457 14.2722 8.51201 13.6096 9.04949 13.1226C9.61013 12.6146 10.2195 12.6175 11.4956 12.6235C11.7235 12.6246 11.9766 12.6257 12.2571 12.6245C12.3693 12.616 12.4844 12.6378 12.5967 12.6938C13.0428 12.9165 13.2734 13.5959 13.1118 14.2108C12.8078 15.3673 12.4406 16.5452 12.0728 17.7248C11.3159 20.153 10.5557 22.5915 10.5591 24.0154C10.5616 25.062 11.3263 27.5095 12.0494 29.8232Z" fill="white"/>
<path fill-rule="evenodd" clip-rule="evenodd" d="M337.298 34.712C337.92 31.937 339.999 26.5631 340.005 24.4619C340.01 22.0074 338.303 17.6782 337.403 14.2539C340.818 14.2744 340.137 13.8922 341.421 17.8956C341.97 19.6048 342.388 20.8485 342.679 21.8223C343.548 24.7557 343.591 23.9275 343.026 25.9594C342.73 27.0238 342.21 28.4289 341.434 31.0003C340.021 35.5535 340.998 34.7265 337.298 34.712Z" fill="#0B3171"/>
<path fill-rule="evenodd" clip-rule="evenodd" d="M336.477 34.3641C336.733 33.2256 337.185 31.7742 337.657 30.2699C338.378 27.9564 339.146 25.5086 339.146 24.462C339.151 23.038 338.389 20.5995 337.632 18.1714C337.266 16.9918 336.897 15.8138 336.593 14.6574C336.431 14.0425 336.663 13.3631 337.11 13.1403C337.22 13.0843 337.336 13.0625 337.449 13.071C337.729 13.0722 337.982 13.0712 338.211 13.0701C339.488 13.064 340.096 13.0612 340.656 13.5691C341.195 14.0562 341.391 14.7187 341.768 15.9853C341.876 16.3504 342.005 16.7832 342.21 17.4176C342.533 18.4236 342.63 18.7263 342.708 18.9635C343.013 19.8984 343.258 20.657 343.473 21.3768C343.629 21.9022 343.777 22.3605 343.89 22.715C344.1 23.3611 344.214 23.7121 344.251 24.1449C344.3 24.7397 344.2 25.0895 343.979 25.8529C343.979 25.8542 343.977 25.8555 343.977 25.8568L343.979 25.8575C343.912 26.0857 343.837 26.3486 343.826 26.3815C343.662 26.97 343.478 27.5334 343.241 28.2533C342.972 29.0784 342.636 30.1076 342.229 31.4549C342.224 31.4717 342.218 31.4881 342.213 31.5044C342 32.1924 341.83 32.8017 341.696 33.2907C341.359 34.5033 341.19 35.1146 340.689 35.566C340.193 36.0111 339.7 35.987 338.707 35.9388C338.327 35.9203 337.856 35.8972 337.298 35.8949C336.824 35.8949 336.442 35.3652 336.442 34.7119C336.442 34.5909 336.456 34.4742 336.48 34.3642L336.477 34.3641ZM337.298 34.7121C337.92 31.9371 339.999 26.5631 340.005 24.462C340.01 22.0074 338.303 17.6782 337.401 14.2539C340.818 14.2745 340.137 13.8922 341.421 17.8957C341.97 19.6049 342.388 20.8485 342.679 21.8223C343.548 24.7557 343.592 23.9276 343.026 25.9594C342.73 27.0238 342.21 28.429 341.435 31.0003C340.021 35.5535 340.998 34.7266 337.298 34.7121Z" fill="white"/>
<path fill-rule="evenodd" clip-rule="evenodd" d="M331.856 34.6217C332.478 31.8467 334.557 26.4728 334.562 24.3716C334.568 21.9171 332.858 17.5878 331.959 14.1635C335.373 14.1841 334.692 13.8018 335.979 17.8053C336.528 19.5145 336.946 20.7582 337.234 21.7319C338.106 24.6654 338.149 23.8372 337.581 25.8691C337.285 26.9335 336.765 28.3386 335.99 30.91C334.579 35.4631 335.553 34.6362 331.856 34.6217Z" fill="#0B3171"/>
<path fill-rule="evenodd" clip-rule="evenodd" d="M331.035 34.2735C331.288 33.1349 331.743 31.6837 332.212 30.1793C332.936 27.8658 333.701 25.418 333.703 24.3714C333.706 22.9474 332.947 20.509 332.19 18.0808C331.821 16.9012 331.455 15.7232 331.151 14.5668C330.989 13.9518 331.221 13.2726 331.665 13.0497C331.778 12.9937 331.894 12.9719 332.004 12.9804C332.287 12.9817 332.54 12.9806 332.766 12.9795C334.043 12.9735 334.651 12.9706 335.214 13.4785C335.75 13.9655 335.946 14.6281 336.323 15.8947C336.434 16.2598 336.563 16.6926 336.765 17.327C337.088 18.333 337.188 18.6357 337.263 18.8729C337.568 19.8077 337.815 20.5663 338.028 21.2862C338.184 21.8115 338.332 22.2699 338.448 22.6244C338.658 23.2705 338.771 23.6215 338.806 24.0543C338.857 24.6491 338.755 24.9989 338.534 25.7623C338.534 25.7636 338.534 25.7649 338.534 25.7662V25.7669C338.47 25.9951 338.392 26.2581 338.383 26.2909C338.219 26.8794 338.033 27.4429 337.799 28.1627C337.527 28.9878 337.191 30.0171 336.784 31.3643C336.779 31.3811 336.773 31.3976 336.768 31.4139C336.555 32.1018 336.388 32.7111 336.251 33.2002C335.917 34.4127 335.747 35.024 335.244 35.4754C334.748 35.9205 334.255 35.8964 333.264 35.8482C332.882 35.8297 332.411 35.8067 331.856 35.8043C331.382 35.8043 330.997 35.2746 330.997 34.6213C330.997 34.5002 331.011 34.3835 331.035 34.2735ZM331.856 34.6215C332.478 31.8465 334.557 26.4725 334.562 24.3714C334.568 21.9169 332.858 17.5876 331.958 14.1633C335.373 14.1838 334.692 13.8016 335.979 17.8051C336.528 19.5143 336.945 20.758 337.234 21.7317C338.106 24.6652 338.149 23.837 337.581 25.8688C337.285 26.9332 336.765 28.3384 335.99 30.9097C334.579 35.4629 335.553 34.636 331.856 34.6215Z" fill="white"/>
<path fill-rule="evenodd" clip-rule="evenodd" d="M285.804 33.9621L307.381 33.9236L308.432 29.8709L294.671 29.6263L307.136 17.4615C309.277 21.0193 313.176 29.5709 314.875 33.8827L327.971 33.9388C325.687 28.3351 322.949 22.0388 320.894 17.2657C317.046 8.31571 317.183 4.48041 309.565 11.5735C308.025 13.0054 289.822 29.5716 285.804 33.9621Z" fill="#092F6F"/>
<path fill-rule="evenodd" clip-rule="evenodd" d="M285.804 33.9621L307.381 33.9236L308.432 29.8708L294.671 29.6262L307.136 17.4615C309.277 21.0193 313.176 29.5709 314.875 33.8826L327.971 33.9388C325.687 28.335 322.948 22.0388 320.894 17.2657C317.046 8.31565 317.183 4.48039 309.565 11.5734C308.025 13.0054 289.822 29.5716 285.804 33.9621ZM307.381 35.1067L285.86 35.1451C285.588 35.1688 285.314 35.0154 285.131 34.6999C284.834 34.1875 284.896 33.4416 285.268 33.0342C288.715 29.2685 302.437 16.689 307.398 12.1415C308.189 11.4152 308.739 10.9095 309.083 10.5898C314.873 5.20035 316.701 5.58343 318.764 9.79477C319.232 10.752 319.704 11.927 320.253 13.2989C320.66 14.3161 321.112 15.4454 321.634 16.6625C321.968 17.4344 322.318 18.2465 322.679 19.0889C324.567 23.4676 326.81 28.6676 328.722 33.3591L328.719 33.3604C328.789 33.5316 328.83 33.7288 328.83 33.9389C328.83 34.5922 328.444 35.122 327.971 35.122L314.897 35.0659C314.585 35.0772 314.28 34.8525 314.121 34.4487C313.214 32.1465 311.668 28.6104 310.098 25.2837C308.989 22.9301 307.871 20.6858 306.967 19.0733L297.318 28.4902L308.372 28.6867C308.485 28.6754 308.607 28.6959 308.722 28.7528C309.169 28.9731 309.404 29.6524 309.245 30.2699L308.192 34.3227L308.189 34.3215C308.071 34.7791 307.753 35.1067 307.381 35.1067Z" fill="white"/>
<path fill-rule="evenodd" clip-rule="evenodd" d="M48.2381 33.9621L69.8153 33.9236L70.8657 29.8709L57.1039 29.6263L69.5691 17.4615C71.7105 21.0193 75.6096 29.5709 77.3083 33.8827L90.4047 33.9388C88.1204 28.3351 85.3808 22.0388 83.328 17.2657C79.4787 8.31571 79.6168 4.48041 71.998 11.5735C70.4596 13.0054 52.2563 29.5716 48.2378 33.9621H48.2381Z" fill="#092F6F"/>
<path fill-rule="evenodd" clip-rule="evenodd" d="M48.2376 33.9621L69.8148 33.9236L70.8656 29.8708L57.1034 29.6262L69.569 17.4615C71.7103 21.0193 75.6095 29.5709 77.3078 33.8826L90.4046 33.9388C88.1203 28.335 85.3806 22.0388 83.3276 17.2657C79.4785 8.31565 79.6166 4.48039 71.9979 11.5734C70.4595 13.0054 52.2561 29.5716 48.2376 33.9621ZM69.8148 35.1067L48.2928 35.1451C48.0214 35.1688 47.7465 35.0154 47.5644 34.6999C47.269 34.1875 47.3307 33.4416 47.7026 33.0342C51.1494 29.2685 64.8695 16.689 69.8296 12.1415C70.6216 11.4152 71.1731 10.9095 71.5167 10.5898C77.3054 5.20035 79.1336 5.58343 81.1973 9.79477C81.6667 10.752 82.1368 11.927 82.6859 13.2989C83.0928 14.3161 83.5447 15.4454 84.0684 16.6625C84.4004 17.4344 84.7505 18.2465 85.1135 19.0889C87.0011 23.4676 89.2429 28.6676 91.1553 33.3591L91.1534 33.3604C91.2232 33.5316 91.263 33.7288 91.263 33.9389C91.263 34.5922 90.8788 35.122 90.4046 35.122L77.3315 35.0659C77.0192 35.0772 76.7135 34.8525 76.5541 34.4487C75.6472 32.1465 74.1004 28.6104 72.5324 25.2837C71.4232 22.9301 70.3049 20.6858 69.4009 19.0733L59.7515 28.4902L70.8044 28.6867C70.92 28.6754 71.039 28.6959 71.155 28.7528C71.6031 28.9731 71.8366 29.6524 71.6769 30.2699L70.6262 34.3227L70.6235 34.3215C70.505 34.7791 70.1875 35.1067 69.8148 35.1067Z" fill="white"/>
<path fill-rule="evenodd" clip-rule="evenodd" d="M205.867 19.8013L218.437 20.0307L217.281 23.5536H204.474L205.867 19.8013Z" fill="#092F6F"/>
<path fill-rule="evenodd" clip-rule="evenodd" d="M205.878 18.6182L218.447 18.8476C218.921 18.8551 219.301 19.3913 219.295 20.0445C219.294 20.2129 219.267 20.3727 219.22 20.5169L219.221 20.5179L218.066 24.0408C217.922 24.4793 217.609 24.7392 217.282 24.7395V24.7413H204.474C203.998 24.7413 203.613 24.2095 203.613 23.5536C203.613 23.3195 203.662 23.1012 203.747 22.9173L205.104 19.2631C205.257 18.8498 205.562 18.6138 205.878 18.6186V18.6182ZM205.867 19.8012L218.437 20.0306L217.282 23.5535H204.474L205.868 19.8012H205.867Z" fill="white"/>
</g>
</g>
<defs>
<clipPath id="clip0_370_1740">
<rect width="344.41" height="36" fill="white"/>
</clipPath>
</defs>
</svg>
