<?xml version="1.0" encoding="utf-8"?>
<!-- Generator: Adobe Illustrator 24.0.1, SVG Export Plug-In . SVG Version: 6.00 Build 0)  -->
<svg version="1.1" id="Layer_1" xmlns="http://www.w3.org/2000/svg" xmlns:xlink="http://www.w3.org/1999/xlink" x="0px" y="0px"
	 viewBox="0 0 396.85 56.69" style="enable-background:new 0 0 396.85 56.69;" xml:space="preserve">
<style type="text/css">
	.st0{fill:#FFE100;}
	.st1{fill:#DB0D15;}
	.st2{fill-rule:evenodd;clip-rule:evenodd;fill:#164194;}
	.st3{fill-rule:evenodd;clip-rule:evenodd;fill:#FFFFFF;}
	.st4{fill:#164194;}
</style>
<g>
	<rect x="1.75" y="2.22" class="st0" width="393.35" height="18.84"/>
	<rect x="1.75" y="17.92" class="st1" width="393.35" height="35.59"/>
	<g>
		<path class="st2" d="M288.8,26.11c-6.83,0.05-10.16-0.04-10.9-0.12c-0.34-0.03-2.26,2.14-4.97,4.61c-2.11,1.73-3.1,2.64-5.13,4.59
			c-1.67,1.59-3.15,3.22-4.85,4.68l5.55-13.8l-11.24-0.07l-8.49,20.13c5.79-0.02,9.46-0.03,11.63,0.01c0.21,0,1.45-1.42,4.08-4.23
			c4.03-4.01,5.45-5.51,10.31-9.83l-5.69,14.08l11.25-0.13L288.8,26.11L288.8,26.11z"/>
		<path class="st3" d="M288.8,26.11c-6.83,0.05-10.16-0.04-10.9-0.12c-0.34-0.03-2.26,2.14-4.97,4.61c-2.11,1.73-3.1,2.64-5.13,4.59
			c-1.67,1.59-3.15,3.22-4.85,4.68l5.55-13.8l-11.24-0.07l-8.49,20.13c5.79-0.02,9.46-0.03,11.63,0.01c0.21,0,1.45-1.42,4.08-4.23
			c4.03-4.01,5.45-5.51,10.31-9.83l-5.69,14.08l11.25-0.13L288.8,26.11L288.8,26.11z M281.79,25.19c1.72,0.02,4.02,0.02,6.99,0
			c0.13,0,0.25,0.02,0.38,0.07c0.47,0.2,0.68,0.73,0.49,1.2l-8.43,19.9c-0.13,0.33-0.46,0.57-0.84,0.58l-11.2,0.13
			c-0.13,0.01-0.27-0.01-0.4-0.06c-0.47-0.19-0.7-0.72-0.51-1.19l4.19-10.38c-2.22,2.04-3.65,3.47-5.76,5.57
			c-0.47,0.47-0.98,0.98-1.54,1.53c-1.03,1.1-1.4,1.5-1.73,1.86c-1.64,1.78-2.47,2.67-3.03,2.66c-1.09-0.02-2.54-0.03-4.44-0.03
			c-1.91,0-4.27,0.01-7.15,0.02c-0.12,0-0.25-0.02-0.37-0.07c-0.47-0.2-0.68-0.73-0.49-1.2l8.48-20.11
			c0.13-0.34,0.47-0.58,0.86-0.58l11.19,0.07c0.13-0.01,0.26,0.01,0.39,0.06c0.47,0.19,0.7,0.72,0.51,1.19l-3.98,9.88l0.02-0.02
			c0.58-0.59,1.17-1.18,1.78-1.76c1.04-0.99,1.8-1.72,2.56-2.39c0.75-0.68,1.53-1.34,2.59-2.21c1.17-1.07,2.17-2.06,2.97-2.85
			c1.26-1.25,2.09-2.07,2.71-2C278.4,25.13,279.61,25.17,281.79,25.19L281.79,25.19z"/>
		<path class="st2" d="M33.63,46.18c7.39-0.16,16.6,0.1,24,0.11c6.69,0.01,10.92-5.91,8.6-10.35c-2.47-2-8.6-1.89-14.59-1.56
			c-0.41,1.29-0.51,1.86-0.63,2.55c-0.05,0.29,2.29-0.04,4.62,0.22c0.97,3.52-1.13,5.4-3.73,5.6c-1.48,0.12-3.56,0.01-5.34-0.11
			c1.03-3.38,3.41-10.15,4.8-13.22c9.59-0.03,14.33-0.22,20.32-0.16c0.99,0.01,0.92-1.56,1.33-3.03l-30.31-0.06
			C40.54,30.11,36.19,40.28,33.63,46.18L33.63,46.18z"/>
		<path class="st3" d="M33.63,46.18c7.39-0.16,16.6,0.1,24,0.11c6.69,0.01,10.92-5.91,8.6-10.35c-2.47-2-8.6-1.89-14.59-1.56
			c-0.41,1.29-0.51,1.86-0.63,2.55c-0.05,0.29,2.29-0.04,4.62,0.22c0.97,3.52-1.13,5.4-3.73,5.6c-1.48,0.12-3.56,0.01-5.34-0.11
			c1.03-3.38,3.41-10.15,4.8-13.22c9.59-0.03,14.33-0.22,20.32-0.16c0.99,0.01,0.92-1.56,1.33-3.03l-30.31-0.06
			C40.54,30.11,36.19,40.28,33.63,46.18L33.63,46.18z M49.13,47.12c-5.27-0.07-10.75-0.14-15.48-0.03v0c-0.13,0-0.26-0.02-0.38-0.07
			c-0.46-0.2-0.68-0.74-0.48-1.2c0.28-0.64,0.57-1.32,0.89-2.04c2.59-5.99,6.28-14.49,8.21-18.04l0,0c0.16-0.28,0.46-0.48,0.8-0.48
			l30.26,0.06c0.1-0.01,0.2,0,0.31,0.03c0.49,0.14,0.77,0.64,0.64,1.13c-0.1,0.36-0.17,0.74-0.24,1.1c-0.27,1.44-0.5,2.62-1.98,2.6
			c-3.21-0.03-6.06,0.01-9.51,0.06c-2.83,0.04-6.05,0.09-10.21,0.1c-0.59,1.36-1.32,3.26-2.04,5.24c-0.8,2.2-1.58,4.47-2.14,6.22
			c0.54,0.03,1.08,0.06,1.59,0.07c0.89,0.03,1.74,0.02,2.46-0.03c0.31-0.02,0.6-0.07,0.87-0.15c0.7-0.19,1.3-0.55,1.7-1.08
			c0.39-0.52,0.6-1.23,0.53-2.14c-0.01-0.15-0.03-0.3-0.06-0.46c-0.9-0.06-1.77-0.05-2.45-0.03c-0.63,0.01-1.12,0.02-1.42-0.03
			c-0.7-0.12-1.03-0.48-0.91-1.16c0.06-0.35,0.12-0.68,0.22-1.1c0.1-0.41,0.23-0.89,0.44-1.56l0,0c0.11-0.36,0.43-0.62,0.83-0.64
			c3.03-0.17,6.1-0.28,8.73-0.09c2.76,0.19,5.09,0.72,6.49,1.86l0,0c0.09,0.08,0.17,0.17,0.23,0.29c0.51,0.97,0.75,2.01,0.75,3.05
			c0,1.47-0.48,2.93-1.35,4.23c-0.85,1.27-2.08,2.38-3.59,3.17c-1.49,0.78-3.26,1.25-5.22,1.24C54.97,47.2,52.08,47.16,49.13,47.12
			L49.13,47.12z"/>
		<path class="st2" d="M181.09,45.94l10.86,0.15c2.51-5.29,5.58-12.97,7.85-17.06c2.35-0.16,3.98-0.22,7.33-0.01
			c1.57,0.09,1.6,1.49,1.53,1.7c-1.02,2.99-2.1,2.85-5.15,2.86c-2.77,0.06-3.46-0.07-3.82-0.1c-0.18-0.01-0.27,0.57-1.6,3.51
			c3.87,0.04,7.84,0.16,13.74-0.24c3.68-0.25,7.33-2.88,7.81-6.75c0.36-2.87-3.65-4.27-4.87-4.25c-8.81-0.3-18.47-0.29-25.06-0.18
			L181.09,45.94L181.09,45.94z"/>
		<path class="st3" d="M199.8,29.02c2.35-0.16,3.98-0.22,7.33-0.01c1.57,0.09,1.6,1.49,1.53,1.7c-1.02,2.99-2.1,2.85-5.15,2.86
			c-2.77,0.06-3.46-0.07-3.82-0.1c-0.18-0.01-0.27,0.57-1.6,3.51c3.87,0.04,7.84,0.16,13.74-0.24c3.68-0.25,7.33-2.88,7.81-6.75
			c0.36-2.87-3.65-4.27-4.87-4.25c-8.81-0.3-18.47-0.29-25.06-0.18l-8.61,20.37l10.86,0.15C194.46,40.8,197.53,33.12,199.8,29.02
			L199.8,29.02z M191.94,47l-10.85-0.15c-0.12,0-0.24-0.02-0.36-0.07c-0.47-0.2-0.68-0.73-0.49-1.2l8.6-20.35
			c0.13-0.34,0.46-0.57,0.84-0.58c3.63-0.06,8.2-0.08,13.04-0.05c3.96,0.03,8.1,0.1,12.05,0.23c0.14,0,0.28,0.01,0.42,0.02
			c0.81,0.1,2.1,0.51,3.19,1.23c1.18,0.78,2.15,1.94,2.18,3.5c0,0.18-0.01,0.36-0.03,0.52c-0.26,2.1-1.34,3.86-2.84,5.17
			c-1.61,1.39-3.71,2.24-5.82,2.39c-5.16,0.35-8.87,0.3-12.33,0.26c-0.48-0.01-0.96-0.01-1.41-0.02c-0.14,0.01-0.29-0.02-0.43-0.08
			c-0.46-0.21-0.67-0.75-0.46-1.21c0.61-1.35,0.95-2.16,1.16-2.67c0.06-0.15,0.12-0.29,0.17-0.41c-0.87,1.89-1.8,3.99-2.72,6.09
			c-1.06,2.42-2.12,4.82-3.08,6.85l0,0C192.63,46.79,192.31,47,191.94,47L191.94,47z M200.37,29.91c-0.5,0.92-1.03,2.01-1.58,3.2
			c0.24-0.45,0.46-0.57,0.98-0.53l0.19,0.02c0.4,0.04,1.21,0.13,3.54,0.07v0c0.01,0,0.01,0,0.02,0l0.38,0
			c2.26,0,3.12-0.01,3.87-2.16c0-0.07-0.02-0.16-0.07-0.26c-0.05-0.1-0.14-0.2-0.3-0.25c-0.08-0.03-0.18-0.05-0.3-0.06
			c-0.01,0-0.01,0-0.02,0c-1.67-0.11-2.9-0.14-3.98-0.13C202.18,29.8,201.33,29.84,200.37,29.91L200.37,29.91z"/>
		<path class="st2" d="M132.37,46.15l23.02-0.03l1.12-3.14l-14.68-0.19l13.3-9.42c2.28,2.75,6.45,9.37,8.26,12.71l13.97,0.04
			c-2.44-4.34-5.36-9.21-7.55-12.91c-4.11-6.93-3.96-9.9-12.09-4.41C156.08,29.93,136.66,42.75,132.37,46.15L132.37,46.15z"/>
		<path class="st3" d="M132.37,46.15l23.02-0.03l1.12-3.14l-14.68-0.19l13.3-9.42c2.28,2.75,6.45,9.37,8.26,12.71l13.97,0.04
			c-2.44-4.34-5.36-9.21-7.55-12.91c-4.11-6.93-3.96-9.9-12.09-4.41C156.08,29.93,136.66,42.75,132.37,46.15L132.37,46.15z
			 M155.39,47.04l-22.96,0.03c-0.29,0.02-0.58-0.1-0.78-0.34c-0.32-0.4-0.25-0.97,0.15-1.29c3.68-2.92,18.32-12.65,23.61-16.17
			c0.85-0.56,1.43-0.95,1.8-1.2c6.18-4.17,8.13-3.88,10.33-0.62c0.5,0.74,1,1.65,1.59,2.71c0.43,0.79,0.92,1.66,1.48,2.6
			c0.35,0.6,0.73,1.23,1.12,1.88c2.01,3.39,4.41,7.42,6.45,11.05l0,0c0.07,0.13,0.12,0.29,0.12,0.45c0,0.51-0.41,0.92-0.92,0.92
			l-13.95-0.04c-0.33,0.01-0.66-0.17-0.83-0.48c-0.97-1.78-2.62-4.52-4.29-7.1c-1.18-1.82-2.38-3.56-3.34-4.81l-10.3,7.29
			l11.79,0.15c0.12-0.01,0.25,0.01,0.37,0.05c0.48,0.17,0.73,0.7,0.56,1.17l-1.12,3.14l0,0C156.13,46.78,155.79,47.04,155.39,47.04
			L155.39,47.04z"/>
		<path class="st2" d="M246.27,42.79c-7.6-0.31-13.33,0.01-14.31-0.45c-1.9-0.89-0.92-4.68,1.24-8.59c1.44-2.2,1.89-3.69,3.47-3.94
			c1.68-0.27,3.68-0.05,6.48-0.11c5.05,0.05,7.07,0,8.37-0.03c0.2-0.01,0.52-1.16,1.52-3.51c-6.91,0.02-14.78-0.17-20.94,0.09
			c-3.12,0.13-4.97,1.66-6.91,3.45c-4.84,4.46-11.89,16.43,1.89,16.45l18.08,0.03L246.27,42.79L246.27,42.79z"/>
		<path class="st3" d="M233.2,33.74c1.44-2.2,1.88-3.69,3.47-3.94c1.68-0.27,3.68-0.05,6.48-0.11c5.05,0.05,7.07,0,8.37-0.03
			c0.2-0.01,0.52-1.16,1.52-3.51c-6.91,0.02-14.78-0.17-20.94,0.09c-3.12,0.13-4.97,1.66-6.91,3.45
			c-4.84,4.46-11.89,16.43,1.89,16.45l18.08,0.03l1.12-3.37c-7.6-0.31-13.33,0.01-14.31-0.45C230.06,41.45,231.04,37.65,233.2,33.74
			L233.2,33.74z M237.64,41.71c2.38,0.01,5.35,0.03,8.66,0.16v0c0.08,0,0.17,0.02,0.25,0.05c0.48,0.16,0.74,0.68,0.58,1.16
			l-1.11,3.34c-0.11,0.38-0.46,0.66-0.88,0.66l-18.08-0.03c-2.74,0-4.74-0.47-6.14-1.25c-1.66-0.93-2.5-2.28-2.75-3.85
			c-0.24-1.47,0.07-3.11,0.7-4.75c1.2-3.12,3.63-6.3,5.68-8.18c1.01-0.93,2.01-1.8,3.19-2.47c1.21-0.69,2.59-1.15,4.31-1.22
			c4.22-0.18,9.25-0.15,14.22-0.11c2.27,0.02,4.53,0.03,6.7,0.02c0.14-0.01,0.28,0.01,0.41,0.07c0.47,0.2,0.68,0.74,0.49,1.2
			c-0.4,0.95-0.68,1.67-0.9,2.22c-0.48,1.23-0.71,1.83-1.44,1.86c-0.64,0.02-1.47,0.04-2.8,0.05c-1.3,0.01-3.07,0.01-5.59-0.02
			c-1.08,0.02-2.03,0.01-2.9-0.01c-1.35-0.03-2.48-0.05-3.44,0.11c-0.79,0.13-1.24,0.9-1.95,2.08c-0.26,0.44-0.55,0.93-0.89,1.44
			c-0.3,0.54-0.56,1.05-0.79,1.54c-0.71,1.52-1.19,2.94-1.3,4.05c-0.09,0.84,0.03,1.45,0.41,1.66c0.03,0.02,0.04,0.02,0.04,0.02
			C232.72,41.68,234.7,41.69,237.64,41.71L237.64,41.71z"/>
		<path class="st2" d="M114.61,29.45c0.02,0.1,0.08,0.04,1.29,0.09l6.15,0.23l-6.72,16.16l11.29,0.11l7.16-16.24
			c2.57-0.08,3.54,0,5.54-0.08c4.69-0.08,3.63,0.61,4.04-2.55c0-0.54,0.09-0.85,0.02-1c-0.04-0.09-0.73-0.04-2.65-0.02h-21.95
			c-3.93-0.06-3.89-0.12-3.93,0.13C114.78,26.77,114.74,27.92,114.61,29.45z"/>
		<path class="st3" d="M114.99,30.43c-1.04-0.01-1.14-0.01-1.28-0.79c-0.02-0.08-0.02-0.17-0.02-0.26c0.06-0.69,0.09-1.23,0.12-1.68
			c0.04-0.7,0.08-1.22,0.13-1.57l0,0c0,0,0,0,0-0.01c0.1-0.64,0.15-0.91,1.29-0.95c0.3-0.01,0.81,0,1.68,0.02
			c0.48,0.01,1.08,0.02,1.8,0.03c0.02,0,0.04,0,0.07,0h21.95v0c0.52-0.01,0.96-0.01,1.32-0.02c1.35-0.03,1.9-0.04,2.17,0.59
			c0.14,0.31,0.12,0.54,0.08,0.89c-0.01,0.15-0.03,0.34-0.03,0.48c0,0.04,0,0.08-0.01,0.12c-0.07,0.51-0.09,0.95-0.11,1.29
			c-0.06,0.93-0.08,1.4-0.72,1.8c-0.46,0.29-1.01,0.28-2.09,0.27c-0.5-0.01-1.15-0.02-1.98,0c0,0-0.01,0-0.01,0
			c-0.99,0.04-1.75,0.04-2.57,0.04c-0.68,0-1.41,0-2.4,0.02l-6.93,15.71l0,0c-0.14,0.32-0.47,0.55-0.85,0.55l-11.23-0.1
			c-0.13,0.01-0.27-0.01-0.41-0.07c-0.47-0.19-0.69-0.73-0.5-1.2l6.21-14.94l-4.83-0.18v0C115.44,30.43,115.17,30.43,114.99,30.43
			L114.99,30.43z M114.61,29.45c0.02,0.1,0.08,0.04,1.29,0.09l6.15,0.23l-6.72,16.16l11.29,0.11l7.16-16.24
			c2.57-0.08,3.54,0,5.54-0.08c4.69-0.08,3.63,0.61,4.04-2.55c0-0.54,0.09-0.85,0.02-1c-0.04-0.09-0.73-0.04-2.65-0.02h-21.95
			c-3.93-0.06-3.89-0.12-3.93,0.13C114.78,26.77,114.74,27.92,114.61,29.45z"/>
		<path class="st2" d="M302.99,26.17l-11.1-0.01l-8.63,19.97l11.22-0.02L302.99,26.17z"/>
		<path class="st3" d="M302.99,26.17l-11.1-0.01l-8.63,19.97l11.22-0.02L302.99,26.17L302.99,26.17z M291.9,25.25l11.04,0.01
			c0.14-0.01,0.28,0.01,0.41,0.07c0.47,0.2,0.68,0.74,0.48,1.2l-8.51,19.95l0,0c-0.14,0.33-0.46,0.56-0.84,0.56l-11.22,0.02v0
			c-0.12,0-0.24-0.02-0.36-0.08c-0.46-0.2-0.68-0.74-0.48-1.2l8.62-19.94C291.18,25.49,291.51,25.25,291.9,25.25z"/>
		<path class="st2" d="M311.09,33.76c3.44-1.87,7.32-4.27,10.26-5.77c1-0.58,2.1-1.12,3.17-1.9c-3.5-0.13-5.65-0.27-7.36-0.25
			c-0.23,0-2.33,1.24-5.84,3c-5.27,2.43-9.31,4.15-9.77,5.89c-0.22,0.85,1.37,3.68,5.37,11.36l12.09-0.02
			C314.9,40.04,313.39,38.1,311.09,33.76L311.09,33.76z"/>
		<path class="st3" d="M324.51,26.1c-3.5-0.13-5.65-0.27-7.36-0.25c-0.23,0-2.33,1.24-5.84,3c-5.27,2.43-9.31,4.15-9.77,5.89
			c-0.22,0.85,1.37,3.68,5.37,11.36l12.09-0.02c-4.11-6.03-5.62-7.98-7.92-12.31c3.44-1.87,7.32-4.27,10.26-5.77
			C322.34,27.41,323.44,26.87,324.51,26.1L324.51,26.1z M316.16,31.94c-1.27,0.73-2.55,1.48-3.84,2.19c1.6,2.92,2.91,4.82,5.22,8.19
			c0.7,1.02,1.49,2.16,2.22,3.24v0c0.1,0.15,0.16,0.32,0.16,0.52c0,0.51-0.41,0.92-0.91,0.92L307,47.01
			c-0.36,0.03-0.72-0.15-0.89-0.49c-1.33-2.56-1.47-2.82-1.61-3.09c-2.93-5.6-4.11-7.85-3.83-8.92c0.53-2.02,4.14-3.68,9.01-5.91
			l1.26-0.58v0c1.68-0.84,3.05-1.58,4.03-2.1c1.16-0.62,1.83-0.98,2.17-0.98c1.19-0.02,2.55,0.04,4.38,0.12
			c0.89,0.04,1.89,0.08,2.97,0.12c0.29-0.01,0.58,0.13,0.76,0.38c0.3,0.41,0.21,0.98-0.2,1.28c-0.79,0.57-1.59,1.02-2.36,1.45
			c-0.28,0.16-0.57,0.32-0.81,0.46c-0.03,0.02-0.07,0.05-0.11,0.06C320.09,29.67,318.15,30.79,316.16,31.94L316.16,31.94z"/>
		<path class="st2" d="M23.73,46.11c-0.66-2.15-2.88-6.31-2.89-7.94c-0.01-1.9,1.82-5.25,2.78-7.9c-3.64,0.02-2.92-0.28-4.29,2.82
			c-0.59,1.32-1.03,2.29-1.34,3.04c-0.93,2.27-0.98,1.63-0.37,3.2c0.32,0.82,0.87,1.91,1.7,3.9C20.83,46.76,19.78,46.12,23.73,46.11
			z"/>
		<path class="st3" d="M23.73,46.11c-0.66-2.15-2.88-6.31-2.89-7.94c-0.01-1.9,1.82-5.25,2.78-7.9c-3.64,0.02-2.92-0.28-4.29,2.82
			c-0.59,1.32-1.03,2.29-1.34,3.04c-0.93,2.27-0.98,1.63-0.37,3.2c0.32,0.82,0.87,1.91,1.7,3.9C20.83,46.76,19.78,46.12,23.73,46.11
			z M23.35,42.67c0.5,1.16,0.99,2.29,1.26,3.17l0,0c0.03,0.09,0.04,0.18,0.04,0.27c0,0.51-0.41,0.92-0.92,0.92
			c-0.59,0-1.1,0.02-1.5,0.03c-1.06,0.04-1.58,0.06-2.11-0.29c-0.54-0.35-0.72-0.82-1.08-1.76c-0.14-0.38-0.32-0.85-0.55-1.38
			c-0.01-0.01-0.01-0.03-0.02-0.04c-0.43-1.04-0.79-1.84-1.08-2.48c-0.25-0.56-0.45-0.99-0.62-1.45c-0.01-0.03-0.09-0.23-0.16-0.41
			l0,0c0,0,0,0,0,0c-0.24-0.59-0.34-0.86-0.29-1.32c0.04-0.34,0.16-0.61,0.38-1.11c0.12-0.27,0.28-0.63,0.45-1.04
			c0.23-0.56,0.49-1.14,0.82-1.87c0.08-0.18,0.19-0.42,0.53-1.2c0.22-0.49,0.35-0.83,0.47-1.11c0.4-0.98,0.61-1.49,1.19-1.87
			c0.6-0.39,1.25-0.39,2.61-0.39c0.24,0,0.51,0,0.81,0c0.12-0.01,0.24,0.01,0.36,0.05c0.48,0.17,0.72,0.7,0.55,1.17
			c-0.32,0.9-0.72,1.81-1.11,2.72c-0.81,1.88-1.62,3.77-1.62,4.87C21.76,38.98,22.58,40.88,23.35,42.67L23.35,42.67z"/>
		<path class="st2" d="M270.54,23.23c5.24-2.62,6.18,2.94,8.95-2.45c-4.05,2.1-4.43-1.59-6.64,0.11L270.54,23.23L270.54,23.23z"/>
		<path class="st3" d="M279.49,20.78c-4.05,2.1-4.43-1.59-6.64,0.11l-2.31,2.34C275.78,20.61,276.72,26.17,279.49,20.78
			L279.49,20.78z M275.3,23.8c-1.01-0.34-2.3-0.76-4.31,0.23c-0.35,0.2-0.8,0.15-1.09-0.14c-0.36-0.35-0.37-0.94-0.01-1.3l2.31-2.34
			v0c0.03-0.03,0.06-0.06,0.09-0.08c1.47-1.13,2.33-0.67,3.37-0.12c0.73,0.39,1.62,0.85,3.41-0.08l0,0c0.25-0.13,0.56-0.14,0.84,0
			c0.45,0.23,0.63,0.78,0.4,1.23C278.43,24.84,277.17,24.42,275.3,23.8L275.3,23.8z"/>
		<path class="st2" d="M29.54,46.04c-0.66-2.15-2.88-6.31-2.89-7.94c-0.01-1.9,1.82-5.25,2.78-7.9c-3.64,0.02-2.92-0.28-4.29,2.82
			c-0.59,1.32-1.03,2.29-1.34,3.04c-0.93,2.27-0.98,1.63-0.37,3.2c0.32,0.82,0.87,1.91,1.7,3.9C26.63,46.69,25.59,46.05,29.54,46.04
			z"/>
		<path class="st3" d="M29.54,46.04c-0.66-2.15-2.88-6.31-2.89-7.94c-0.01-1.9,1.82-5.25,2.78-7.9c-3.64,0.02-2.92-0.28-4.29,2.82
			c-0.59,1.32-1.03,2.29-1.34,3.04c-0.93,2.27-0.98,1.63-0.37,3.2c0.32,0.82,0.87,1.91,1.7,3.9C26.63,46.69,25.59,46.05,29.54,46.04
			z M29.16,42.6c0.5,1.16,0.99,2.29,1.26,3.17l0,0c0.03,0.09,0.04,0.18,0.04,0.27c0,0.51-0.41,0.92-0.92,0.92
			c-0.59,0-1.1,0.02-1.5,0.03c-1.06,0.04-1.58,0.06-2.11-0.29c-0.54-0.35-0.72-0.82-1.08-1.76c-0.14-0.38-0.32-0.85-0.55-1.38
			c-0.01-0.01-0.01-0.03-0.02-0.04c-0.43-1.04-0.79-1.84-1.08-2.48c-0.25-0.56-0.45-0.99-0.62-1.45c-0.01-0.03-0.09-0.23-0.16-0.41
			l0,0c0,0,0,0,0,0c-0.24-0.59-0.34-0.86-0.29-1.32c0.04-0.34,0.16-0.61,0.38-1.11c0.12-0.27,0.28-0.63,0.45-1.04
			c0.23-0.56,0.49-1.14,0.82-1.87c0.08-0.18,0.19-0.42,0.53-1.2c0.22-0.49,0.35-0.83,0.47-1.11c0.4-0.98,0.61-1.49,1.19-1.87
			c0.6-0.39,1.25-0.39,2.61-0.39c0.24,0,0.51,0,0.81,0c0.12-0.01,0.24,0.01,0.36,0.05c0.48,0.17,0.72,0.7,0.55,1.17
			c-0.32,0.9-0.72,1.81-1.11,2.72c-0.81,1.88-1.62,3.77-1.62,4.87C27.57,38.91,28.39,40.81,29.16,42.6L29.16,42.6z"/>
		<path class="st2" d="M376.2,46.38c0.66-2.15,2.88-6.31,2.89-7.94c0.01-1.9-1.82-5.25-2.78-7.9c3.64,0.02,2.92-0.28,4.29,2.82
			c0.59,1.32,1.03,2.29,1.34,3.04c0.93,2.27,0.97,1.63,0.37,3.2c-0.32,0.82-0.87,1.91-1.7,3.9C379.1,47.03,380.14,46.39,376.2,46.38
			z"/>
		<path class="st3" d="M375.32,46.11c0.27-0.88,0.76-2,1.26-3.17c0.77-1.79,1.59-3.69,1.59-4.5c0.01-1.1-0.81-2.99-1.61-4.87
			c-0.39-0.91-0.78-1.83-1.11-2.72c-0.17-0.48,0.07-1,0.55-1.17c0.12-0.04,0.24-0.06,0.36-0.05c0.3,0,0.57,0,0.81,0
			c1.36,0,2.01-0.01,2.61,0.39c0.57,0.38,0.78,0.89,1.19,1.87c0.11,0.28,0.25,0.62,0.47,1.11c0.34,0.78,0.45,1.01,0.53,1.2
			c0.32,0.72,0.59,1.31,0.82,1.87c0.17,0.41,0.32,0.76,0.45,1.04c0.22,0.5,0.34,0.77,0.39,1.11c0.05,0.46-0.05,0.73-0.29,1.32
			c0,0,0,0,0,0l0,0c-0.07,0.18-0.15,0.38-0.16,0.41c-0.18,0.46-0.37,0.89-0.62,1.45c-0.29,0.64-0.65,1.44-1.08,2.48
			c-0.01,0.01-0.01,0.03-0.02,0.04c-0.23,0.53-0.41,1-0.55,1.38c-0.36,0.94-0.54,1.41-1.07,1.76c-0.53,0.34-1.05,0.33-2.11,0.29
			c-0.41-0.01-0.91-0.03-1.5-0.03c-0.51,0-0.91-0.41-0.91-0.92C375.28,46.29,375.3,46.2,375.32,46.11L375.32,46.11L375.32,46.11z
			 M376.2,46.38c0.66-2.15,2.88-6.31,2.89-7.94c0.01-1.9-1.82-5.25-2.78-7.9c3.65,0.02,2.92-0.28,4.29,2.82
			c0.59,1.32,1.03,2.29,1.34,3.04c0.93,2.27,0.97,1.63,0.37,3.2c-0.32,0.82-0.87,1.91-1.7,3.9C379.1,47.03,380.14,46.39,376.2,46.38
			z"/>
		<path class="st2" d="M370.39,46.31c0.66-2.15,2.88-6.31,2.89-7.94c0.01-1.9-1.82-5.25-2.78-7.9c3.64,0.02,2.92-0.28,4.29,2.82
			c0.59,1.32,1.03,2.29,1.34,3.04c0.93,2.27,0.98,1.63,0.37,3.2c-0.32,0.82-0.87,1.91-1.7,3.9
			C373.29,46.96,374.33,46.32,370.39,46.31z"/>
		<path class="st3" d="M369.51,46.04c0.27-0.88,0.76-2,1.26-3.17c0.77-1.79,1.59-3.69,1.59-4.5c0-1.1-0.81-2.99-1.61-4.87
			c-0.39-0.91-0.78-1.83-1.11-2.72c-0.17-0.48,0.07-1,0.55-1.17c0.12-0.04,0.24-0.06,0.36-0.05c0.3,0,0.57,0,0.81,0
			c1.36,0,2.01-0.01,2.61,0.39c0.57,0.38,0.78,0.89,1.18,1.87c0.12,0.28,0.26,0.62,0.47,1.11c0.34,0.78,0.45,1.01,0.53,1.2
			c0.32,0.72,0.59,1.31,0.82,1.87c0.17,0.41,0.32,0.76,0.45,1.04c0.22,0.5,0.34,0.77,0.38,1.11c0.05,0.46-0.05,0.73-0.29,1.32
			c0,0,0,0,0,0v0c-0.07,0.18-0.15,0.38-0.16,0.41c-0.18,0.46-0.37,0.89-0.62,1.45c-0.29,0.64-0.65,1.44-1.08,2.48
			c-0.01,0.01-0.01,0.03-0.02,0.04c-0.23,0.53-0.41,1-0.55,1.38c-0.36,0.94-0.54,1.41-1.07,1.76c-0.53,0.34-1.05,0.33-2.11,0.29
			c-0.41-0.01-0.91-0.03-1.5-0.03c-0.51,0-0.92-0.41-0.92-0.92C369.47,46.22,369.49,46.13,369.51,46.04L369.51,46.04L369.51,46.04z
			 M370.39,46.31c0.66-2.15,2.88-6.31,2.89-7.94c0.01-1.9-1.82-5.25-2.78-7.9c3.64,0.02,2.92-0.28,4.29,2.82
			c0.59,1.32,1.03,2.29,1.34,3.04c0.93,2.27,0.98,1.63,0.37,3.2c-0.32,0.82-0.87,1.91-1.7,3.9
			C373.29,46.96,374.33,46.32,370.39,46.31z"/>
		<path class="st2" d="M321.25,45.8l23.02-0.03l1.12-3.14l-14.68-0.19l13.3-9.42c2.28,2.75,6.44,9.37,8.26,12.71l13.97,0.04
			c-2.44-4.34-5.36-9.21-7.55-12.91c-4.11-6.93-3.96-9.9-12.09-4.41C344.96,29.58,325.54,42.4,321.25,45.8L321.25,45.8z"/>
		<path class="st3" d="M321.25,45.8l23.02-0.03l1.12-3.14l-14.68-0.19l13.3-9.42c2.28,2.75,6.44,9.37,8.26,12.71l13.97,0.04
			c-2.44-4.34-5.36-9.21-7.55-12.91c-4.11-6.93-3.96-9.9-12.09-4.41C344.96,29.58,325.54,42.4,321.25,45.8L321.25,45.8z
			 M344.27,46.69l-22.96,0.03c-0.29,0.02-0.58-0.1-0.78-0.34c-0.32-0.4-0.25-0.97,0.15-1.29c3.68-2.92,18.32-12.65,23.61-16.17
			c0.84-0.56,1.43-0.95,1.8-1.2c6.18-4.17,8.13-3.88,10.33-0.62c0.5,0.74,1,1.65,1.59,2.71c0.43,0.79,0.92,1.66,1.47,2.6
			c0.36,0.6,0.73,1.23,1.11,1.88c2.01,3.39,4.41,7.42,6.45,11.05l0,0c0.07,0.13,0.12,0.29,0.12,0.45c0,0.51-0.41,0.92-0.92,0.92
			l-13.95-0.04c-0.33,0.01-0.66-0.17-0.83-0.48c-0.97-1.78-2.62-4.52-4.29-7.1c-1.18-1.82-2.38-3.56-3.34-4.81l-10.29,7.29
			l11.79,0.15c0.12-0.01,0.25,0.01,0.37,0.05c0.48,0.17,0.73,0.7,0.56,1.17l-1.12,3.14l0,0C345.01,46.43,344.67,46.69,344.27,46.69
			L344.27,46.69z"/>
		<path class="st2" d="M67.77,45.8l23.02-0.03l1.12-3.14l-14.68-0.19l13.3-9.42c2.28,2.75,6.45,9.37,8.26,12.71l13.97,0.04
			c-2.44-4.34-5.36-9.21-7.55-12.91c-4.11-6.93-3.96-9.9-12.09-4.41C91.48,29.58,72.06,42.4,67.77,45.8L67.77,45.8z"/>
		<path class="st3" d="M67.77,45.8l23.02-0.03l1.12-3.14l-14.68-0.19l13.3-9.42c2.28,2.75,6.45,9.37,8.26,12.71l13.97,0.04
			c-2.44-4.34-5.36-9.21-7.55-12.91c-4.11-6.93-3.96-9.9-12.09-4.41C91.48,29.58,72.06,42.4,67.77,45.8L67.77,45.8z M90.79,46.69
			l-22.96,0.03c-0.29,0.02-0.58-0.1-0.78-0.34c-0.32-0.4-0.25-0.97,0.15-1.29c3.68-2.92,18.32-12.65,23.61-16.17
			c0.85-0.56,1.43-0.95,1.8-1.2c6.18-4.17,8.13-3.88,10.33-0.62c0.5,0.74,1,1.65,1.59,2.71c0.43,0.79,0.92,1.66,1.48,2.6
			c0.35,0.6,0.73,1.23,1.12,1.88c2.01,3.39,4.41,7.42,6.45,11.05l0,0c0.07,0.13,0.12,0.29,0.12,0.45c0,0.51-0.41,0.92-0.92,0.92
			l-13.95-0.04c-0.33,0.01-0.66-0.17-0.83-0.48c-0.97-1.78-2.62-4.52-4.29-7.1c-1.18-1.82-2.38-3.56-3.34-4.81l-10.3,7.29
			l11.79,0.15c0.12-0.01,0.25,0.01,0.37,0.05c0.48,0.17,0.73,0.7,0.56,1.17l-1.12,3.14l0,0C91.53,46.43,91.19,46.69,90.79,46.69
			L90.79,46.69z"/>
		<path class="st2" d="M235.96,34.84l13.41,0.18l-1.23,2.73h-13.67L235.96,34.84z"/>
		<path class="st3" d="M235.97,33.92l13.41,0.18c0.51,0.01,0.91,0.42,0.91,0.93c0,0.13-0.03,0.25-0.08,0.37l0,0l-1.23,2.73
			c-0.15,0.34-0.49,0.54-0.84,0.54v0h-13.67c-0.51,0-0.92-0.41-0.92-0.92c0-0.18,0.05-0.35,0.14-0.49l1.45-2.83
			C235.31,34.1,235.63,33.92,235.97,33.92L235.97,33.92L235.97,33.92z M235.96,34.84l13.41,0.18l-1.23,2.73h-13.67L235.96,34.84
			L235.96,34.84z"/>
	</g>
	<g>
		<path class="st4" d="M23.25,12.49c0.09,0,0.17,0.03,0.23,0.1l0.64,0.69c-0.32,0.4-0.71,0.71-1.18,0.92
			c-0.47,0.21-1.03,0.31-1.68,0.31c-0.59,0-1.11-0.1-1.58-0.3c-0.47-0.2-0.87-0.48-1.19-0.83s-0.58-0.78-0.76-1.27
			c-0.18-0.49-0.26-1.02-0.26-1.6c0-0.39,0.04-0.76,0.13-1.11c0.08-0.35,0.21-0.67,0.37-0.97c0.16-0.3,0.36-0.56,0.59-0.8
			c0.23-0.24,0.49-0.44,0.77-0.61s0.6-0.29,0.94-0.38c0.34-0.09,0.7-0.13,1.09-0.13c0.29,0,0.56,0.03,0.82,0.08s0.5,0.12,0.72,0.21
			s0.43,0.2,0.62,0.33c0.19,0.13,0.36,0.27,0.51,0.42l-0.55,0.75c-0.03,0.05-0.07,0.09-0.12,0.12c-0.05,0.04-0.12,0.05-0.21,0.05
			s-0.17-0.03-0.26-0.09c-0.09-0.06-0.2-0.13-0.32-0.21s-0.29-0.14-0.48-0.21c-0.19-0.06-0.44-0.09-0.73-0.09
			c-0.33,0-0.63,0.06-0.9,0.18c-0.27,0.12-0.51,0.29-0.7,0.52c-0.2,0.22-0.35,0.5-0.46,0.83c-0.11,0.33-0.16,0.7-0.16,1.12
			c0,0.42,0.06,0.8,0.18,1.13c0.12,0.33,0.28,0.61,0.48,0.83c0.2,0.23,0.44,0.4,0.71,0.52c0.27,0.12,0.56,0.18,0.87,0.18
			c0.18,0,0.35-0.01,0.5-0.03c0.15-0.02,0.29-0.05,0.42-0.09c0.13-0.04,0.25-0.1,0.36-0.17s0.23-0.15,0.34-0.26
			c0.04-0.03,0.08-0.06,0.12-0.08C23.16,12.5,23.2,12.49,23.25,12.49z"/>
		<path class="st4" d="M30.29,6.59v1.27h-3.36v2.01h2.61v1.23h-2.61v2.06h3.36v1.27h-4.99V6.59H30.29z"/>
		<path class="st4" d="M37.32,6.59v1.31h-2.29v6.53H33.4V7.89h-2.29V6.59H37.32z"/>
		<path class="st4" d="M40.19,6.59v3.19h1.18c0.52,0,0.97,0.06,1.34,0.17s0.67,0.27,0.9,0.47c0.23,0.2,0.4,0.43,0.51,0.69
			c0.11,0.26,0.16,0.54,0.16,0.83c0,0.37-0.07,0.71-0.2,1.02s-0.32,0.56-0.57,0.78c-0.25,0.22-0.55,0.38-0.92,0.5
			c-0.36,0.12-0.77,0.18-1.23,0.18h-2.8V6.59H40.19z M40.19,11.02v2.15h1.18c0.26,0,0.47-0.03,0.64-0.09
			c0.17-0.06,0.3-0.14,0.4-0.23s0.17-0.21,0.21-0.34c0.04-0.13,0.06-0.27,0.06-0.41c0-0.16-0.02-0.31-0.06-0.44
			c-0.04-0.13-0.11-0.25-0.21-0.34c-0.1-0.1-0.23-0.17-0.4-0.22c-0.17-0.05-0.38-0.08-0.64-0.08H40.19z"/>
		<path class="st4" d="M53.73,12.49c0.09,0,0.17,0.03,0.23,0.1l0.64,0.69c-0.32,0.4-0.71,0.71-1.18,0.92
			c-0.47,0.21-1.03,0.31-1.68,0.31c-0.59,0-1.11-0.1-1.58-0.3c-0.47-0.2-0.87-0.48-1.19-0.83s-0.58-0.78-0.76-1.27
			c-0.18-0.49-0.26-1.02-0.26-1.6c0-0.39,0.04-0.76,0.13-1.11c0.08-0.35,0.21-0.67,0.37-0.97c0.16-0.3,0.36-0.56,0.59-0.8
			c0.23-0.24,0.49-0.44,0.77-0.61s0.6-0.29,0.94-0.38c0.34-0.09,0.7-0.13,1.09-0.13c0.29,0,0.56,0.03,0.82,0.08s0.5,0.12,0.72,0.21
			s0.43,0.2,0.62,0.33c0.19,0.13,0.36,0.27,0.51,0.42l-0.55,0.75c-0.03,0.05-0.07,0.09-0.12,0.12c-0.05,0.04-0.12,0.05-0.21,0.05
			s-0.17-0.03-0.26-0.09c-0.09-0.06-0.2-0.13-0.32-0.21s-0.29-0.14-0.48-0.21c-0.19-0.06-0.44-0.09-0.73-0.09
			c-0.33,0-0.63,0.06-0.9,0.18c-0.27,0.12-0.51,0.29-0.7,0.52c-0.2,0.22-0.35,0.5-0.46,0.83c-0.11,0.33-0.16,0.7-0.16,1.12
			c0,0.42,0.06,0.8,0.18,1.13c0.12,0.33,0.28,0.61,0.48,0.83c0.2,0.23,0.44,0.4,0.71,0.52c0.27,0.12,0.56,0.18,0.87,0.18
			c0.18,0,0.35-0.01,0.5-0.03c0.15-0.02,0.29-0.05,0.42-0.09c0.13-0.04,0.25-0.1,0.36-0.17s0.23-0.15,0.34-0.26
			c0.04-0.03,0.08-0.06,0.12-0.08C53.63,12.5,53.68,12.49,53.73,12.49z"/>
		<path class="st4" d="M62.23,14.42H60.6V7.81h-3.19v6.61h-1.63V6.59h6.45V14.42z"/>
		<path class="st4" d="M69.13,6.59v1.27h-3.36v2.01h2.61v1.23h-2.61v2.06h3.36v1.27h-4.99V6.59H69.13z"/>
		<path class="st4" d="M70.61,14.42V6.59h1.63v6.61h3.19V6.59h1.63v6.61h1.09v2.62c0,0.14-0.05,0.25-0.14,0.33
			c-0.09,0.08-0.22,0.12-0.37,0.12h-0.98v-1.85H70.61z"/>
		<path class="st4" d="M84.3,7.08c0.04-0.06,0.08-0.12,0.13-0.18c0.05-0.06,0.11-0.11,0.17-0.16c0.06-0.05,0.12-0.08,0.19-0.11
			c0.07-0.03,0.14-0.04,0.22-0.04h1.22v7.83h-1.63V9.75c0-0.19,0.01-0.4,0.02-0.61c0.01-0.21,0.03-0.44,0.06-0.68
			c-0.08,0.21-0.16,0.41-0.25,0.59c-0.09,0.18-0.18,0.34-0.26,0.48l-2.72,4.39c-0.04,0.06-0.08,0.12-0.13,0.18s-0.1,0.11-0.16,0.16
			c-0.06,0.05-0.12,0.09-0.19,0.12s-0.15,0.04-0.22,0.04h-1.22V6.59h1.63v4.67c0,0.19-0.01,0.4-0.02,0.61
			c-0.01,0.21-0.03,0.44-0.06,0.68c0.08-0.21,0.16-0.41,0.25-0.59s0.18-0.34,0.26-0.48L84.3,7.08z"/>
		<path class="st4" d="M94.98,14.42h-1.25c-0.14,0-0.25-0.03-0.34-0.1c-0.09-0.07-0.15-0.15-0.2-0.26l-0.53-1.5h-3.13l-0.53,1.5
			c-0.03,0.09-0.09,0.17-0.19,0.25c-0.09,0.07-0.21,0.11-0.34,0.11h-1.26l3.06-7.83h1.66L94.98,14.42z M89.93,11.45h2.34l-0.85-2.4
			c-0.05-0.13-0.1-0.27-0.16-0.45c-0.06-0.17-0.11-0.36-0.17-0.55c-0.05,0.2-0.1,0.39-0.16,0.56s-0.11,0.32-0.16,0.45L89.93,11.45z"
			/>
		<path class="st4" d="M102.66,6.59v7.83h-1.63V7.81h-1.95c-0.05,0.97-0.13,1.81-0.22,2.52c-0.09,0.71-0.21,1.31-0.34,1.81
			c-0.13,0.5-0.28,0.9-0.45,1.2c-0.17,0.31-0.35,0.55-0.55,0.72c-0.2,0.17-0.41,0.29-0.64,0.35c-0.23,0.06-0.47,0.09-0.72,0.09
			c-0.28,0-0.49-0.03-0.62-0.08s-0.19-0.12-0.19-0.22v-1h0.43c0.12,0,0.23-0.02,0.36-0.06c0.12-0.04,0.25-0.13,0.37-0.27
			s0.24-0.35,0.35-0.63c0.11-0.28,0.22-0.67,0.31-1.16c0.09-0.49,0.17-1.1,0.24-1.84c0.07-0.73,0.11-1.62,0.14-2.66H102.66z"/>
		<path class="st4" d="M109.35,7.08c0.04-0.06,0.08-0.12,0.13-0.18c0.05-0.06,0.11-0.11,0.17-0.16c0.06-0.05,0.12-0.08,0.19-0.11
			c0.07-0.03,0.14-0.04,0.22-0.04h1.22v7.83h-1.63V9.75c0-0.19,0.01-0.4,0.02-0.61c0.01-0.21,0.03-0.44,0.06-0.68
			c-0.08,0.21-0.16,0.41-0.25,0.59c-0.09,0.18-0.18,0.34-0.26,0.48l-2.72,4.39c-0.04,0.06-0.08,0.12-0.13,0.18s-0.1,0.11-0.16,0.16
			c-0.06,0.05-0.12,0.09-0.19,0.12s-0.15,0.04-0.22,0.04h-1.22V6.59h1.63v4.67c0,0.19-0.01,0.4-0.02,0.61
			c-0.01,0.21-0.03,0.44-0.06,0.68c0.08-0.21,0.16-0.41,0.25-0.59s0.18-0.34,0.26-0.48L109.35,7.08z"/>
		<path class="st4" d="M118.08,8.57c0,0.36-0.08,0.69-0.24,0.99c-0.16,0.3-0.41,0.55-0.74,0.74c0.17,0.09,0.33,0.19,0.48,0.3
			c0.15,0.12,0.27,0.24,0.37,0.38c0.1,0.14,0.18,0.29,0.24,0.45s0.09,0.33,0.09,0.51c0,0.36-0.07,0.69-0.2,1
			c-0.13,0.31-0.33,0.58-0.58,0.81c-0.25,0.23-0.57,0.41-0.94,0.54c-0.37,0.13-0.79,0.2-1.27,0.2c-0.27,0-0.54-0.03-0.81-0.08
			s-0.52-0.12-0.77-0.21c-0.24-0.09-0.47-0.2-0.69-0.32c-0.21-0.13-0.4-0.27-0.57-0.42l0.48-0.77c0.04-0.06,0.09-0.11,0.15-0.14
			c0.06-0.04,0.13-0.06,0.21-0.06c0.1,0,0.21,0.04,0.32,0.11c0.12,0.07,0.25,0.15,0.41,0.24s0.34,0.17,0.55,0.24
			c0.21,0.07,0.47,0.11,0.76,0.11c0.45,0,0.79-0.09,1.04-0.28s0.37-0.49,0.37-0.9c0-0.17-0.04-0.31-0.11-0.45
			c-0.07-0.13-0.17-0.24-0.29-0.33s-0.28-0.16-0.46-0.21c-0.18-0.05-0.38-0.07-0.59-0.06h-1.12l-0.01-1.29h1
			c0.45,0,0.79-0.08,1.03-0.25c0.24-0.17,0.36-0.41,0.36-0.72c0-0.28-0.11-0.5-0.33-0.66c-0.22-0.16-0.55-0.24-0.98-0.24
			c-0.25,0-0.46,0.03-0.65,0.08c-0.18,0.05-0.34,0.11-0.48,0.18c-0.13,0.07-0.25,0.13-0.35,0.18c-0.1,0.05-0.19,0.08-0.27,0.08
			c-0.08,0-0.15-0.02-0.21-0.06c-0.05-0.04-0.11-0.1-0.16-0.18l-0.4-0.76c0.31-0.26,0.67-0.46,1.1-0.61
			c0.43-0.15,0.9-0.22,1.41-0.22c0.43,0,0.82,0.05,1.17,0.15c0.35,0.1,0.64,0.24,0.89,0.42s0.43,0.4,0.56,0.65
			C118.01,7.98,118.08,8.26,118.08,8.57z"/>
		<path class="st4" d="M124.54,7.08c0.04-0.06,0.08-0.12,0.13-0.18c0.05-0.06,0.11-0.11,0.17-0.16c0.06-0.05,0.12-0.08,0.19-0.11
			c0.07-0.03,0.14-0.04,0.22-0.04h1.22v7.83h-1.63V9.75c0-0.19,0.01-0.4,0.02-0.61c0.01-0.21,0.03-0.44,0.06-0.68
			c-0.08,0.21-0.16,0.41-0.25,0.59c-0.09,0.18-0.18,0.34-0.26,0.48l-2.72,4.39c-0.04,0.06-0.08,0.12-0.13,0.18s-0.1,0.11-0.16,0.16
			c-0.06,0.05-0.12,0.09-0.19,0.12s-0.15,0.04-0.22,0.04h-1.22V6.59h1.63v4.67c0,0.19-0.01,0.4-0.02,0.61
			c-0.01,0.21-0.03,0.44-0.06,0.68c0.08-0.21,0.16-0.41,0.25-0.59s0.18-0.34,0.26-0.48L124.54,7.08z"/>
		<path class="st4" d="M130.01,11.73v2.69h-1.62V6.59h2.65c0.54,0,1,0.06,1.39,0.19c0.39,0.13,0.71,0.3,0.96,0.53
			c0.25,0.23,0.44,0.49,0.56,0.8s0.18,0.65,0.18,1.01c0,0.39-0.06,0.74-0.19,1.06c-0.13,0.32-0.32,0.6-0.57,0.83
			c-0.26,0.23-0.58,0.41-0.97,0.54c-0.39,0.13-0.84,0.19-1.37,0.19H130.01z M130.01,10.48h1.03c0.51,0,0.88-0.12,1.12-0.37
			c0.24-0.24,0.35-0.58,0.35-1c0-0.19-0.03-0.37-0.09-0.53c-0.06-0.16-0.15-0.3-0.27-0.41c-0.12-0.11-0.27-0.2-0.46-0.26
			c-0.18-0.06-0.4-0.09-0.65-0.09h-1.03V10.48z"/>
		<path class="st4" d="M143,10.5c0,0.57-0.1,1.1-0.29,1.59c-0.19,0.49-0.46,0.91-0.81,1.27c-0.35,0.36-0.77,0.64-1.27,0.84
			c-0.49,0.2-1.04,0.31-1.64,0.31s-1.15-0.1-1.64-0.31c-0.49-0.2-0.92-0.48-1.27-0.84c-0.35-0.36-0.63-0.78-0.82-1.27
			c-0.19-0.49-0.29-1.02-0.29-1.59s0.1-1.1,0.29-1.59c0.19-0.49,0.47-0.91,0.82-1.27c0.35-0.36,0.78-0.64,1.27-0.84
			c0.49-0.2,1.04-0.31,1.64-0.31s1.15,0.1,1.64,0.31c0.49,0.2,0.92,0.48,1.27,0.84c0.35,0.36,0.62,0.78,0.81,1.27
			C142.9,9.4,143,9.93,143,10.5z M141.34,10.5c0-0.41-0.05-0.78-0.16-1.1c-0.11-0.33-0.26-0.6-0.47-0.83
			c-0.2-0.23-0.45-0.4-0.74-0.52s-0.62-0.18-0.99-0.18s-0.7,0.06-0.99,0.18s-0.54,0.3-0.74,0.52c-0.2,0.23-0.36,0.51-0.47,0.83
			c-0.11,0.33-0.16,0.69-0.16,1.1c0,0.41,0.05,0.78,0.16,1.11c0.11,0.33,0.26,0.6,0.47,0.83c0.2,0.23,0.45,0.4,0.74,0.52
			s0.62,0.18,0.99,0.18s0.7-0.06,0.99-0.18s0.54-0.29,0.74-0.52c0.2-0.23,0.36-0.5,0.47-0.83C141.29,11.28,141.34,10.92,141.34,10.5
			z"/>
		<path class="st4" d="M144.46,14.42V6.59h2.78c0.53,0,0.97,0.05,1.35,0.15s0.68,0.24,0.91,0.42c0.24,0.18,0.41,0.4,0.52,0.66
			c0.11,0.26,0.16,0.55,0.16,0.87c0,0.18-0.03,0.35-0.08,0.52s-0.13,0.32-0.24,0.47c-0.11,0.15-0.25,0.28-0.42,0.4
			c-0.17,0.12-0.38,0.22-0.62,0.3c1.04,0.24,1.57,0.82,1.57,1.72c0,0.33-0.06,0.64-0.19,0.92c-0.13,0.28-0.31,0.53-0.56,0.74
			c-0.24,0.21-0.55,0.37-0.9,0.49c-0.36,0.12-0.77,0.18-1.23,0.18H144.46z M146.08,9.93h1.06c0.23,0,0.43-0.02,0.6-0.06
			c0.18-0.04,0.32-0.1,0.44-0.18c0.12-0.08,0.21-0.19,0.27-0.33c0.06-0.13,0.09-0.3,0.09-0.49c0-0.19-0.03-0.36-0.08-0.5
			c-0.05-0.14-0.13-0.25-0.24-0.33c-0.11-0.08-0.24-0.14-0.41-0.18c-0.17-0.04-0.36-0.06-0.59-0.06h-1.16V9.93z M146.08,11.04v2.14
			h1.39c0.26,0,0.47-0.03,0.64-0.09c0.17-0.06,0.3-0.15,0.4-0.25c0.1-0.1,0.17-0.22,0.21-0.36c0.04-0.14,0.06-0.27,0.06-0.42
			c0-0.16-0.02-0.3-0.07-0.43s-0.12-0.23-0.23-0.32c-0.1-0.09-0.24-0.16-0.41-0.2c-0.17-0.05-0.37-0.07-0.62-0.07H146.08z"/>
		<path class="st4" d="M158.61,14.42h-1.25c-0.14,0-0.25-0.03-0.34-0.1c-0.09-0.07-0.15-0.15-0.2-0.26l-0.53-1.5h-3.13l-0.53,1.5
			c-0.03,0.09-0.09,0.17-0.19,0.25c-0.09,0.07-0.21,0.11-0.34,0.11h-1.26l3.06-7.83h1.66L158.61,14.42z M153.56,11.45h2.34
			l-0.85-2.4c-0.05-0.13-0.1-0.27-0.16-0.45c-0.06-0.17-0.11-0.36-0.17-0.55c-0.05,0.2-0.1,0.39-0.16,0.56s-0.11,0.32-0.16,0.45
			L153.56,11.45z"/>
		<path class="st4" d="M166.3,14.42h-1.63v-3.37h-3.45v3.37h-1.63V6.59h1.63v3.33h3.45V6.59h1.63V14.42z"/>
		<path class="st4" d="M174.93,14.42h-1.63v-3.37h-3.45v3.37h-1.63V6.59h1.63v3.33h3.45V6.59h1.63V14.42z"/>
		<path class="st4" d="M178.46,6.59v3.19h1.18c0.52,0,0.97,0.06,1.34,0.17s0.67,0.27,0.9,0.47c0.23,0.2,0.4,0.43,0.51,0.69
			c0.11,0.26,0.16,0.54,0.16,0.83c0,0.37-0.07,0.71-0.2,1.02s-0.32,0.56-0.57,0.78c-0.25,0.22-0.55,0.38-0.92,0.5
			c-0.36,0.12-0.77,0.18-1.23,0.18h-2.8V6.59H178.46z M178.46,11.02v2.15h1.18c0.26,0,0.47-0.03,0.64-0.09
			c0.17-0.06,0.3-0.14,0.4-0.23s0.17-0.21,0.21-0.34c0.04-0.13,0.06-0.27,0.06-0.41c0-0.16-0.02-0.31-0.06-0.44
			c-0.04-0.13-0.11-0.25-0.21-0.34c-0.1-0.1-0.23-0.17-0.4-0.22c-0.17-0.05-0.38-0.08-0.64-0.08H178.46z M185.21,14.42h-1.63V6.59
			h1.63V14.42z"/>
		<path class="st4" d="M188.84,10.39l-2.47-3.81h1.62c0.11,0,0.19,0.01,0.24,0.04c0.05,0.03,0.1,0.08,0.13,0.14l1.68,2.77
			c0.02-0.04,0.04-0.09,0.06-0.13s0.05-0.09,0.08-0.14l1.51-2.47c0.04-0.07,0.09-0.13,0.14-0.16s0.12-0.05,0.19-0.05h1.55
			l-2.49,3.74l2.55,4.1h-1.62c-0.11,0-0.2-0.03-0.26-0.08c-0.07-0.05-0.12-0.12-0.16-0.19l-1.7-2.88c-0.01,0.04-0.03,0.08-0.05,0.12
			s-0.04,0.07-0.05,0.11l-1.61,2.66c-0.05,0.07-0.1,0.13-0.16,0.19c-0.06,0.06-0.14,0.08-0.24,0.08h-1.51L188.84,10.39z"/>
		<path class="st4" d="M204.4,14.42h-1.25c-0.14,0-0.25-0.03-0.34-0.1c-0.09-0.07-0.15-0.15-0.2-0.26l-0.53-1.5h-3.13l-0.53,1.5
			c-0.03,0.09-0.09,0.17-0.19,0.25c-0.09,0.07-0.21,0.11-0.34,0.11h-1.26l3.06-7.83h1.66L204.4,14.42z M199.34,11.45h2.34l-0.85-2.4
			c-0.05-0.13-0.1-0.27-0.16-0.45s-0.11-0.36-0.17-0.55c-0.05,0.2-0.1,0.39-0.16,0.56s-0.11,0.32-0.16,0.45L199.34,11.45z"/>
		<path class="st4" d="M206.99,9.82h0.71c0.14,0,0.26-0.03,0.37-0.08c0.1-0.05,0.2-0.14,0.29-0.28l1.58-2.45
			c0.08-0.13,0.17-0.23,0.28-0.31c0.11-0.08,0.24-0.12,0.39-0.12h1.39l-2.03,3.12c-0.09,0.14-0.2,0.26-0.32,0.35
			s-0.26,0.16-0.41,0.22c0.23,0.06,0.42,0.16,0.58,0.3s0.31,0.33,0.45,0.58l1.92,3.27h-1.48c-0.15,0-0.27-0.04-0.37-0.12
			c-0.1-0.08-0.19-0.19-0.28-0.34l-1.5-2.55c-0.04-0.08-0.09-0.14-0.14-0.19s-0.1-0.09-0.16-0.12c-0.06-0.03-0.12-0.05-0.19-0.06
			s-0.15-0.02-0.24-0.02h-0.85v3.4h-1.62V6.59h1.62V9.82z"/>
		<path class="st4" d="M214.89,9.82h0.71c0.14,0,0.26-0.03,0.37-0.08c0.1-0.05,0.2-0.14,0.29-0.28l1.58-2.45
			c0.08-0.13,0.17-0.23,0.28-0.31c0.11-0.08,0.24-0.12,0.39-0.12h1.39l-2.03,3.12c-0.09,0.14-0.2,0.26-0.32,0.35
			s-0.26,0.16-0.41,0.22c0.23,0.06,0.42,0.16,0.58,0.3s0.31,0.33,0.45,0.58l1.92,3.27h-1.48c-0.15,0-0.27-0.04-0.37-0.12
			c-0.1-0.08-0.19-0.19-0.28-0.34l-1.5-2.55c-0.04-0.08-0.09-0.14-0.14-0.19s-0.1-0.09-0.16-0.12c-0.06-0.03-0.12-0.05-0.19-0.06
			s-0.15-0.02-0.24-0.02h-0.85v3.4h-1.62V6.59h1.62V9.82z"/>
		<path class="st4" d="M222.4,13.19c0.08-0.01,0.16-0.04,0.24-0.08c0.08-0.04,0.16-0.1,0.23-0.18c0.08-0.08,0.15-0.18,0.21-0.31
			l0.28-0.56l-3.14-5.48h1.52c0.14,0,0.25,0.03,0.33,0.1c0.08,0.07,0.15,0.15,0.21,0.26l1.36,2.62c0.09,0.17,0.17,0.33,0.24,0.5
			s0.13,0.33,0.19,0.5c0.1-0.34,0.23-0.67,0.39-1l1.2-2.62c0.04-0.09,0.11-0.17,0.2-0.24s0.2-0.11,0.34-0.11h1.34l-3.16,6.72
			c-0.12,0.24-0.24,0.44-0.37,0.59c-0.13,0.15-0.28,0.28-0.43,0.36c-0.15,0.09-0.32,0.15-0.49,0.18c-0.17,0.03-0.36,0.05-0.56,0.05
			c-0.28,0-0.49-0.03-0.62-0.08s-0.19-0.12-0.19-0.22v-1h0.44C222.24,13.21,222.32,13.2,222.4,13.19z"/>
		<path class="st4" d="M232.64,11.41c0.06,0.13,0.12,0.27,0.17,0.41c0.05-0.14,0.11-0.28,0.17-0.42c0.06-0.14,0.13-0.27,0.19-0.39
			l2.18-4.16c0.03-0.06,0.07-0.11,0.1-0.14c0.04-0.03,0.07-0.06,0.12-0.08c0.04-0.02,0.09-0.03,0.14-0.03
			c0.05,0,0.11-0.01,0.19-0.01h1.23v7.83h-1.43V9.61c0-0.1,0-0.2,0.01-0.32c0-0.12,0.01-0.23,0.02-0.36l-2.24,4.25
			c-0.12,0.23-0.31,0.35-0.57,0.35h-0.23c-0.13,0-0.24-0.03-0.33-0.09c-0.1-0.06-0.17-0.15-0.23-0.26l-2.25-4.26
			c0.01,0.12,0.02,0.24,0.03,0.36c0.01,0.12,0.01,0.23,0.01,0.33v4.81h-1.43V6.59h1.23c0.07,0,0.13,0,0.18,0.01
			c0.05,0,0.1,0.01,0.14,0.03c0.04,0.02,0.08,0.04,0.11,0.08s0.07,0.08,0.1,0.14l2.19,4.18C232.52,11.15,232.58,11.27,232.64,11.41z
			"/>
		<path class="st4" d="M240.26,13.19c0.08-0.01,0.16-0.04,0.24-0.08c0.08-0.04,0.16-0.1,0.23-0.18c0.08-0.08,0.15-0.18,0.21-0.31
			l0.28-0.56l-3.14-5.48h1.52c0.14,0,0.25,0.03,0.33,0.1c0.08,0.07,0.15,0.15,0.21,0.26l1.36,2.62c0.09,0.17,0.17,0.33,0.24,0.5
			s0.13,0.33,0.19,0.5c0.1-0.34,0.23-0.67,0.39-1l1.2-2.62c0.04-0.09,0.11-0.17,0.2-0.24s0.2-0.11,0.34-0.11h1.34l-3.16,6.72
			c-0.12,0.24-0.24,0.44-0.37,0.59c-0.13,0.15-0.28,0.28-0.43,0.36c-0.15,0.09-0.32,0.15-0.49,0.18c-0.17,0.03-0.36,0.05-0.56,0.05
			c-0.28,0-0.49-0.03-0.62-0.08s-0.19-0.12-0.19-0.22v-1h0.44C240.1,13.21,240.18,13.2,240.26,13.19z"/>
		<path class="st4" d="M252.09,6.59v7.83h-1.63V7.81h-1.96c-0.05,0.97-0.13,1.81-0.22,2.52c-0.09,0.71-0.21,1.31-0.34,1.81
			c-0.13,0.5-0.28,0.9-0.45,1.2s-0.35,0.55-0.55,0.72s-0.41,0.29-0.64,0.35s-0.47,0.09-0.72,0.09c-0.28,0-0.49-0.03-0.62-0.08
			s-0.19-0.12-0.19-0.22v-1h0.43c0.12,0,0.24-0.02,0.36-0.06c0.12-0.04,0.25-0.13,0.37-0.27c0.12-0.14,0.24-0.35,0.35-0.63
			c0.11-0.28,0.22-0.67,0.31-1.16c0.09-0.49,0.17-1.1,0.24-1.84s0.11-1.62,0.14-2.66H252.09z"/>
		<path class="st4" d="M258.14,14.42v-3.2h-0.75c-0.16,0.01-0.3,0.05-0.44,0.12c-0.14,0.08-0.26,0.22-0.39,0.42l-1.25,2.1
			c-0.1,0.17-0.23,0.3-0.4,0.4c-0.17,0.1-0.37,0.15-0.61,0.15h-1.23l1.71-2.72c0.11-0.18,0.24-0.34,0.38-0.46
			c0.14-0.12,0.3-0.23,0.48-0.3c-0.28-0.08-0.53-0.19-0.73-0.32c-0.21-0.13-0.38-0.29-0.52-0.46c-0.13-0.17-0.24-0.37-0.3-0.58
			c-0.07-0.21-0.1-0.44-0.1-0.67c0-0.33,0.07-0.64,0.2-0.93c0.13-0.28,0.32-0.53,0.57-0.74c0.25-0.21,0.55-0.37,0.92-0.48
			c0.36-0.12,0.78-0.17,1.24-0.17h2.84v7.83H258.14z M255.6,8.9c0,0.16,0.02,0.31,0.06,0.44c0.04,0.13,0.11,0.25,0.21,0.34
			c0.1,0.1,0.24,0.17,0.4,0.22c0.17,0.05,0.38,0.08,0.64,0.08h1.23V7.83h-1.22c-0.26,0-0.47,0.03-0.64,0.09
			c-0.17,0.06-0.3,0.14-0.4,0.23c-0.1,0.1-0.17,0.21-0.21,0.34C255.62,8.62,255.6,8.75,255.6,8.9z"/>
		<path class="st4" d="M267.22,6.59v1.31h-2.29v6.53h-1.63V7.89h-2.29V6.59H267.22z"/>
		<path class="st4" d="M275.81,10.5c0,0.57-0.1,1.1-0.29,1.59c-0.19,0.49-0.46,0.91-0.82,1.27c-0.35,0.36-0.77,0.64-1.27,0.84
			c-0.49,0.2-1.04,0.31-1.64,0.31c-0.6,0-1.15-0.1-1.64-0.31c-0.49-0.2-0.92-0.48-1.27-0.84c-0.35-0.36-0.63-0.78-0.82-1.27
			c-0.19-0.49-0.29-1.02-0.29-1.59s0.1-1.1,0.29-1.59c0.19-0.49,0.46-0.91,0.82-1.27c0.35-0.36,0.78-0.64,1.27-0.84
			c0.49-0.2,1.04-0.31,1.64-0.31c0.6,0,1.15,0.1,1.64,0.31c0.49,0.2,0.92,0.48,1.27,0.84c0.35,0.36,0.62,0.78,0.82,1.27
			C275.71,9.4,275.81,9.93,275.81,10.5z M274.15,10.5c0-0.41-0.05-0.78-0.16-1.1c-0.11-0.33-0.26-0.6-0.47-0.83s-0.45-0.4-0.74-0.52
			c-0.29-0.12-0.62-0.18-0.99-0.18s-0.7,0.06-0.99,0.18c-0.29,0.12-0.54,0.3-0.74,0.52c-0.2,0.23-0.36,0.51-0.47,0.83
			c-0.11,0.33-0.16,0.69-0.16,1.1c0,0.41,0.05,0.78,0.16,1.11c0.11,0.33,0.26,0.6,0.47,0.83c0.2,0.23,0.45,0.4,0.74,0.52
			c0.29,0.12,0.62,0.18,0.99,0.18s0.7-0.06,0.99-0.18c0.29-0.12,0.54-0.29,0.74-0.52c0.2-0.23,0.36-0.5,0.47-0.83
			C274.1,11.28,274.15,10.92,274.15,10.5z"/>
		<path class="st4" d="M278.88,11.73v2.69h-1.62V6.59h2.65c0.54,0,1,0.06,1.39,0.19s0.71,0.3,0.96,0.53
			c0.25,0.23,0.44,0.49,0.56,0.8c0.12,0.31,0.18,0.65,0.18,1.01c0,0.39-0.06,0.74-0.19,1.06c-0.13,0.32-0.32,0.6-0.57,0.83
			c-0.26,0.23-0.58,0.41-0.97,0.54c-0.39,0.13-0.84,0.19-1.37,0.19H278.88z M278.88,10.48h1.03c0.51,0,0.88-0.12,1.12-0.37
			s0.35-0.58,0.35-1c0-0.19-0.03-0.37-0.09-0.53s-0.15-0.3-0.27-0.41c-0.12-0.11-0.27-0.2-0.46-0.26c-0.18-0.06-0.4-0.09-0.65-0.09
			h-1.03V10.48z"/>
		<path class="st4" d="M291.02,14.42h-1.63v-3.37h-3.45v3.37h-1.63V6.59h1.63v3.33h3.45V6.59h1.63V14.42z"/>
		<path class="st4" d="M294.55,6.59v3.19h1.18c0.52,0,0.97,0.06,1.34,0.17c0.37,0.12,0.67,0.27,0.9,0.47
			c0.23,0.2,0.4,0.43,0.51,0.69c0.11,0.26,0.16,0.54,0.16,0.83c0,0.37-0.07,0.71-0.2,1.02c-0.13,0.3-0.32,0.56-0.57,0.78
			c-0.25,0.22-0.55,0.38-0.92,0.5s-0.77,0.18-1.23,0.18h-2.8V6.59H294.55z M294.55,11.02v2.15h1.18c0.25,0,0.47-0.03,0.64-0.09
			s0.3-0.14,0.41-0.23s0.17-0.21,0.21-0.34c0.04-0.13,0.06-0.27,0.06-0.41c0-0.16-0.02-0.31-0.06-0.44
			c-0.04-0.13-0.11-0.25-0.21-0.34c-0.1-0.1-0.23-0.17-0.4-0.22c-0.17-0.05-0.38-0.08-0.64-0.08H294.55z M301.3,14.42h-1.63V6.59
			h1.63V14.42z"/>
		<path class="st4" d="M304.93,10.39l-2.47-3.81h1.62c0.11,0,0.19,0.01,0.24,0.04c0.05,0.03,0.09,0.08,0.13,0.14l1.68,2.77
			c0.02-0.04,0.04-0.09,0.06-0.13s0.05-0.09,0.08-0.14l1.51-2.47c0.04-0.07,0.09-0.13,0.14-0.16c0.05-0.03,0.12-0.05,0.19-0.05h1.55
			l-2.49,3.74l2.55,4.1h-1.62c-0.11,0-0.2-0.03-0.26-0.08c-0.07-0.05-0.12-0.12-0.16-0.19l-1.7-2.88c-0.01,0.04-0.03,0.08-0.05,0.12
			c-0.02,0.04-0.04,0.07-0.05,0.11l-1.61,2.66c-0.05,0.07-0.1,0.13-0.17,0.19c-0.06,0.06-0.14,0.08-0.24,0.08h-1.51L304.93,10.39z"
			/>
		<path class="st4" d="M317.8,11.41c0.06,0.13,0.12,0.27,0.17,0.41c0.05-0.14,0.11-0.28,0.17-0.42c0.06-0.14,0.13-0.27,0.19-0.39
			l2.18-4.16c0.03-0.06,0.07-0.11,0.1-0.14s0.07-0.06,0.12-0.08c0.04-0.02,0.09-0.03,0.14-0.03c0.05,0,0.11-0.01,0.19-0.01h1.23
			v7.83h-1.43V9.61c0-0.1,0-0.2,0.01-0.32c0.01-0.12,0.01-0.23,0.02-0.36l-2.24,4.25c-0.12,0.23-0.31,0.35-0.57,0.35h-0.23
			c-0.13,0-0.24-0.03-0.33-0.09c-0.1-0.06-0.17-0.15-0.23-0.26l-2.25-4.26c0.01,0.12,0.02,0.24,0.03,0.36
			c0.01,0.12,0.01,0.23,0.01,0.33v4.81h-1.43V6.59h1.23c0.07,0,0.13,0,0.18,0.01c0.05,0,0.1,0.01,0.14,0.03
			c0.04,0.02,0.08,0.04,0.11,0.08s0.07,0.08,0.1,0.14l2.19,4.18C317.68,11.15,317.74,11.27,317.8,11.41z"/>
		<path class="st4" d="M331.03,14.42h-1.25c-0.14,0-0.25-0.03-0.34-0.1c-0.09-0.07-0.15-0.15-0.2-0.26l-0.53-1.5h-3.13l-0.53,1.5
			c-0.03,0.09-0.09,0.17-0.19,0.25c-0.09,0.07-0.21,0.11-0.34,0.11h-1.26l3.06-7.83h1.66L331.03,14.42z M325.98,11.45h2.34
			l-0.85-2.4c-0.05-0.13-0.1-0.27-0.16-0.45c-0.06-0.17-0.11-0.36-0.17-0.55c-0.05,0.2-0.1,0.39-0.16,0.56s-0.11,0.32-0.16,0.45
			L325.98,11.45z"/>
		<path class="st4" d="M336.89,7.81h-3.25v6.61h-1.63V6.59h4.88V7.81z"/>
		<path class="st4" d="M344.05,14.42h-1.25c-0.14,0-0.25-0.03-0.34-0.1c-0.09-0.07-0.15-0.15-0.2-0.26l-0.53-1.5h-3.13l-0.53,1.5
			c-0.03,0.09-0.09,0.17-0.19,0.25s-0.21,0.11-0.34,0.11h-1.26l3.06-7.83h1.66L344.05,14.42z M339,11.45h2.34l-0.85-2.4
			c-0.05-0.13-0.1-0.27-0.16-0.45s-0.11-0.36-0.17-0.55c-0.05,0.2-0.1,0.39-0.16,0.56s-0.11,0.32-0.16,0.45L339,11.45z"/>
		<path class="st4" d="M349.91,8.57c0,0.36-0.08,0.69-0.24,0.99c-0.16,0.3-0.41,0.55-0.74,0.74c0.17,0.09,0.33,0.19,0.48,0.3
			c0.15,0.12,0.27,0.24,0.37,0.38c0.1,0.14,0.18,0.29,0.24,0.45s0.09,0.33,0.09,0.51c0,0.36-0.07,0.69-0.2,1
			c-0.13,0.31-0.33,0.58-0.58,0.81c-0.25,0.23-0.57,0.41-0.94,0.54c-0.37,0.13-0.79,0.2-1.27,0.2c-0.27,0-0.54-0.03-0.81-0.08
			c-0.27-0.05-0.52-0.12-0.77-0.21c-0.24-0.09-0.47-0.2-0.69-0.32c-0.21-0.13-0.4-0.27-0.57-0.42l0.48-0.77
			c0.04-0.06,0.09-0.11,0.15-0.14c0.06-0.04,0.13-0.06,0.21-0.06c0.1,0,0.21,0.04,0.32,0.11c0.12,0.07,0.25,0.15,0.41,0.24
			c0.16,0.09,0.34,0.17,0.55,0.24c0.21,0.07,0.47,0.11,0.76,0.11c0.45,0,0.79-0.09,1.04-0.28c0.25-0.19,0.37-0.49,0.37-0.9
			c0-0.17-0.04-0.31-0.11-0.45c-0.07-0.13-0.17-0.24-0.29-0.33s-0.28-0.16-0.46-0.21c-0.18-0.05-0.38-0.07-0.59-0.06h-1.12L346,9.67
			h1c0.45,0,0.79-0.08,1.03-0.25c0.24-0.17,0.36-0.41,0.36-0.72c0-0.28-0.11-0.5-0.33-0.66c-0.22-0.16-0.55-0.24-0.98-0.24
			c-0.25,0-0.46,0.03-0.65,0.08c-0.18,0.05-0.34,0.11-0.48,0.18c-0.13,0.07-0.25,0.13-0.35,0.18c-0.1,0.05-0.19,0.08-0.27,0.08
			c-0.08,0-0.15-0.02-0.21-0.06c-0.05-0.04-0.11-0.1-0.16-0.18l-0.4-0.76c0.31-0.26,0.67-0.46,1.1-0.61
			c0.43-0.15,0.9-0.22,1.41-0.22c0.43,0,0.82,0.05,1.17,0.15c0.35,0.1,0.64,0.24,0.89,0.42c0.24,0.18,0.43,0.4,0.56,0.65
			C349.85,7.98,349.91,8.26,349.91,8.57z"/>
		<path class="st4" d="M356.38,7.08c0.04-0.06,0.08-0.12,0.13-0.18c0.05-0.06,0.11-0.11,0.17-0.16c0.06-0.05,0.12-0.08,0.19-0.11
			c0.07-0.03,0.14-0.04,0.22-0.04h1.22v7.83h-1.63V9.75c0-0.19,0-0.4,0.02-0.61c0.01-0.21,0.03-0.44,0.07-0.68
			c-0.08,0.21-0.16,0.41-0.25,0.59s-0.18,0.34-0.26,0.48l-2.72,4.39c-0.04,0.06-0.08,0.12-0.13,0.18c-0.05,0.06-0.11,0.11-0.17,0.16
			c-0.06,0.05-0.12,0.09-0.19,0.12s-0.14,0.04-0.22,0.04h-1.22V6.59h1.63v4.67c0,0.19-0.01,0.4-0.02,0.61
			c-0.01,0.21-0.03,0.44-0.06,0.68c0.08-0.21,0.16-0.41,0.25-0.59s0.18-0.34,0.26-0.48L356.38,7.08z"/>
		<path class="st4" d="M366.94,14.42h-1.63v-3.37h-3.45v3.37h-1.63V6.59h1.63v3.33h3.45V6.59h1.63V14.42z"/>
		<path class="st4" d="M376.42,10.5c0,0.57-0.1,1.1-0.29,1.59c-0.19,0.49-0.46,0.91-0.81,1.27c-0.35,0.36-0.77,0.64-1.27,0.84
			c-0.49,0.2-1.04,0.31-1.64,0.31c-0.6,0-1.15-0.1-1.64-0.31c-0.49-0.2-0.92-0.48-1.27-0.84c-0.35-0.36-0.63-0.78-0.82-1.27
			c-0.19-0.49-0.29-1.02-0.29-1.59s0.1-1.1,0.29-1.59c0.19-0.49,0.47-0.91,0.82-1.27c0.35-0.36,0.78-0.64,1.27-0.84
			c0.49-0.2,1.04-0.31,1.64-0.31c0.6,0,1.15,0.1,1.64,0.31c0.49,0.2,0.92,0.48,1.27,0.84c0.35,0.36,0.62,0.78,0.81,1.27
			C376.32,9.4,376.42,9.93,376.42,10.5z M374.76,10.5c0-0.41-0.05-0.78-0.16-1.1s-0.26-0.6-0.47-0.83c-0.2-0.23-0.45-0.4-0.74-0.52
			c-0.29-0.12-0.62-0.18-0.99-0.18s-0.7,0.06-0.99,0.18c-0.29,0.12-0.54,0.3-0.74,0.52s-0.36,0.51-0.47,0.83s-0.16,0.69-0.16,1.1
			c0,0.41,0.05,0.78,0.16,1.11c0.11,0.33,0.26,0.6,0.47,0.83c0.2,0.23,0.45,0.4,0.74,0.52c0.29,0.12,0.62,0.18,0.99,0.18
			s0.7-0.06,0.99-0.18c0.29-0.12,0.54-0.29,0.74-0.52c0.2-0.23,0.36-0.5,0.47-0.83C374.71,11.28,374.76,10.92,374.76,10.5z"/>
		<path class="st4" d="M377.88,14.42V6.59h2.78c0.53,0,0.97,0.05,1.35,0.15c0.37,0.1,0.68,0.24,0.91,0.42
			c0.24,0.18,0.41,0.4,0.52,0.66s0.16,0.55,0.16,0.87c0,0.18-0.03,0.35-0.08,0.52c-0.05,0.17-0.13,0.32-0.24,0.47
			c-0.11,0.15-0.25,0.28-0.42,0.4c-0.17,0.12-0.38,0.22-0.62,0.3c1.04,0.24,1.57,0.82,1.57,1.72c0,0.33-0.06,0.64-0.19,0.92
			c-0.13,0.28-0.31,0.53-0.56,0.74c-0.24,0.21-0.55,0.37-0.9,0.49c-0.36,0.12-0.77,0.18-1.23,0.18H377.88z M379.5,9.93h1.06
			c0.23,0,0.43-0.02,0.6-0.06c0.18-0.04,0.32-0.1,0.44-0.18c0.12-0.08,0.21-0.19,0.27-0.33c0.06-0.13,0.09-0.3,0.09-0.49
			c0-0.19-0.03-0.36-0.08-0.5c-0.05-0.14-0.13-0.25-0.24-0.33c-0.11-0.08-0.25-0.14-0.41-0.18c-0.17-0.04-0.36-0.06-0.59-0.06h-1.16
			V9.93z M379.5,11.04v2.14h1.39c0.26,0,0.47-0.03,0.64-0.09c0.17-0.06,0.3-0.15,0.4-0.25c0.1-0.1,0.17-0.22,0.21-0.36
			c0.04-0.14,0.06-0.27,0.06-0.42c0-0.16-0.02-0.3-0.07-0.43s-0.12-0.23-0.23-0.32c-0.1-0.09-0.24-0.16-0.41-0.2
			c-0.17-0.05-0.37-0.07-0.62-0.07H379.5z"/>
	</g>
</g>
</svg>
