<svg width="37" height="52" viewBox="0 0 37 52" fill="none" xmlns="http://www.w3.org/2000/svg">
<g clip-path="url(#clip0_752_2046)">
<path d="M36.08 18.04C36.08 32.35 18.04 51.22 18.04 51.22C18.04 51.22 0 32.35 0 18.04C0 13.42 1.76 8.81 5.28 5.28C8.81 1.76 13.42 0 18.04 0C22.66 0 27.27 1.76 30.8 5.28C34.32 8.8 36.08 13.42 36.08 18.04Z" fill="#E30613"/>
<path d="M19.3795 11.7L20.3995 13.94C20.6095 14.41 21.0595 14.73 21.5695 14.79L24.0195 15.07C25.2695 15.21 25.7795 16.76 24.8495 17.62L23.0395 19.29C22.6595 19.64 22.4895 20.16 22.5895 20.67L23.0795 23.08C23.3295 24.32 22.0095 25.27 20.9095 24.65L18.7695 23.44C18.3195 23.19 17.7695 23.19 17.3195 23.44L15.1795 24.65C14.0795 25.27 12.7595 24.31 13.0095 23.08L13.4995 20.67C13.5995 20.16 13.4295 19.64 13.0495 19.29L11.2395 17.62C10.3095 16.77 10.8095 15.22 12.0695 15.07L14.5195 14.79C15.0295 14.73 15.4795 14.41 15.6895 13.94L16.7095 11.7C17.2295 10.55 18.8595 10.55 19.3895 11.7H19.3795Z" fill="#FFED00"/>
<path d="M24.8493 17.61L23.0393 19.28C22.6593 19.63 22.4893 20.15 22.5893 20.66L23.0793 23.07C23.3293 24.31 22.0093 25.26 20.9093 24.64L18.7693 23.43C18.3193 23.18 17.7693 23.18 17.3193 23.43L15.1793 24.64C14.0793 25.26 12.7593 24.3 13.0093 23.07L13.0693 22.77C17.0393 20.94 20.4993 18.02 23.8593 15.05L24.0193 15.07C25.2693 15.21 25.7793 16.76 24.8493 17.62V17.61Z" fill="#FBD700"/>
</g>
<defs>
<clipPath id="clip0_752_2046">
<rect width="36.08" height="51.22" fill="white"/>
</clipPath>
</defs>
</svg>
