<svg width="37" height="30" viewBox="0 0 37 30" fill="none" xmlns="http://www.w3.org/2000/svg">
<g clip-path="url(#clip0_738_1720)">
<path d="M35.9899 27.93C35.6599 28.54 35.1799 29.05 34.5999 29.41C33.9799 29.79 33.2599 30 32.5099 30H3.96993C3.22993 30 2.50993 29.8 1.87993 29.41C1.29993 29.05 0.819929 28.54 0.489929 27.93C0.159929 27.32 -0.0100712 26.64 -7.11849e-05 25.96C0.00992882 25.23 0.229929 24.51 0.639929 23.89L4.71993 17.58L14.9099 1.81C15.6399 0.68 16.8899 0 18.2399 0C19.5899 0 20.8299 0.68 21.5699 1.81L31.7599 17.58L35.8399 23.89C36.2399 24.51 36.4599 25.23 36.4799 25.96C36.4899 26.64 36.3199 27.33 35.9899 27.93Z" fill="#1D1D1B"/>
<path d="M32.2102 28.35H4.27017C2.25017 28.35 1.04017 26.12 2.13017 24.42L16.1002 2.80996C17.1002 1.25996 19.3702 1.25996 20.3702 2.80996L34.3402 24.42C35.4302 26.11 34.2202 28.35 32.2002 28.35H32.2102Z" fill="url(#paint0_linear_738_1720)"/>
<path d="M19.5503 8.89995L19.0904 19.25C19.0704 19.72 18.6704 20.08 18.2004 20.06C17.7604 20.04 17.4103 19.68 17.3903 19.25L16.9304 8.89995C16.9004 8.16995 17.4604 7.55995 18.1904 7.52995C18.9604 7.48995 19.6003 8.13995 19.5603 8.89995H19.5503Z" fill="#1D1D1B"/>
<path d="M18.2402 24.54C18.9747 24.54 19.5702 23.9445 19.5702 23.21C19.5702 22.4755 18.9747 21.88 18.2402 21.88C17.5056 21.88 16.9102 22.4755 16.9102 23.21C16.9102 23.9445 17.5056 24.54 18.2402 24.54Z" fill="#1D1D1B"/>
</g>
<defs>
<linearGradient id="paint0_linear_738_1720" x1="18.2402" y1="8.70996" x2="18.2402" y2="52.21" gradientUnits="userSpaceOnUse">
<stop stop-color="#FFD70D"/>
<stop offset="1" stop-color="#E0A714"/>
</linearGradient>
<clipPath id="clip0_738_1720">
<rect width="36.48" height="30" fill="white"/>
</clipPath>
</defs>
</svg>
